<?xml version="1.0" encoding="utf-8" standalone="no"?>
<!DOCTYPE svg PUBLIC "-//W3C//DTD SVG 1.1//EN"
  "http://www.w3.org/Graphics/SVG/1.1/DTD/svg11.dtd">
<svg xmlns:xlink="http://www.w3.org/1999/xlink" width="388.8pt" height="273.6pt" viewBox="0 0 388.8 273.6" xmlns="http://www.w3.org/2000/svg" version="1.1">
 <metadata>
  <rdf:RDF xmlns:dc="http://purl.org/dc/elements/1.1/" xmlns:cc="http://creativecommons.org/ns#" xmlns:rdf="http://www.w3.org/1999/02/22-rdf-syntax-ns#">
   <cc:Work>
    <dc:type rdf:resource="http://purl.org/dc/dcmitype/StillImage"/>
    <dc:date>2026-06-21T21:30:01.561253</dc:date>
    <dc:format>image/svg+xml</dc:format>
    <dc:creator>
     <cc:Agent>
      <dc:title>python-plotting-skill clean-room renderer</dc:title>
     </cc:Agent>
    </dc:creator>
   </cc:Work>
  </rdf:RDF>
 </metadata>
 <defs>
  <style type="text/css">*{stroke-linejoin: round; stroke-linecap: butt}</style>
 </defs>
 <g id="figure_1">
  <g id="patch_1">
   <path d="M 0 273.6 
L 388.8 273.6 
L 388.8 0 
L 0 0 
z
" style="fill: #ffffff"/>
  </g>
  <g id="axes_1">
   <g id="patch_2">
    <path d="M 40.362344 244.198125 
L 374.8 244.198125 
L 374.8 28.357422 
L 40.362344 28.357422 
z
" style="fill: #ffffff"/>
   </g>
   <g id="matplotlib.axis_1">
    <g id="xtick_1">
     <g id="line2d_1">
      <path d="M 96.101953 244.198125 
L 96.101953 28.357422 
" clip-path="url(#p45c11ae244)" style="fill: none; stroke: #d9dee7; stroke-opacity: 0.75; stroke-width: 0.7; stroke-linecap: square"/>
     </g>
     <g id="line2d_2">
      <defs>
       <path id="mea6e40bfe7" d="M 0 0 
L 0 3.5 
" style="stroke: #324052; stroke-width: 0.8"/>
      </defs>
      <g>
       <use xlink:href="#mea6e40bfe7" x="96.101953" y="244.198125" style="fill: #324052; stroke: #324052; stroke-width: 0.8"/>
      </g>
     </g>
     <g id="text_1">
      <!-- baseline -->
      <g style="fill: #324052" transform="translate(79.347578 257.276875) scale(0.08 -0.08)">
       <defs>
        <path id="DejaVuSans-45" d="M 3116 1747 
Q 3116 2381 2855 2742 
Q 2594 3103 2138 3103 
Q 1681 3103 1420 2742 
Q 1159 2381 1159 1747 
Q 1159 1113 1420 752 
Q 1681 391 2138 391 
Q 2594 391 2855 752 
Q 3116 1113 3116 1747 
z
M 1159 2969 
Q 1341 3281 1617 3432 
Q 1894 3584 2278 3584 
Q 2916 3584 3314 3078 
Q 3713 2572 3713 1747 
Q 3713 922 3314 415 
Q 2916 -91 2278 -91 
Q 1894 -91 1617 61 
Q 1341 213 1159 525 
L 1159 0 
L 581 0 
L 581 4863 
L 1159 4863 
L 1159 2969 
z
" transform="scale(0.015625)"/>
        <path id="DejaVuSans-44" d="M 2194 1759 
Q 1497 1759 1228 1600 
Q 959 1441 959 1056 
Q 959 750 1161 570 
Q 1363 391 1709 391 
Q 2188 391 2477 730 
Q 2766 1069 2766 1631 
L 2766 1759 
L 2194 1759 
z
M 3341 1997 
L 3341 0 
L 2766 0 
L 2766 531 
Q 2569 213 2275 61 
Q 1981 -91 1556 -91 
Q 1019 -91 701 211 
Q 384 513 384 1019 
Q 384 1609 779 1909 
Q 1175 2209 1959 2209 
L 2766 2209 
L 2766 2266 
Q 2766 2663 2505 2880 
Q 2244 3097 1772 3097 
Q 1472 3097 1187 3025 
Q 903 2953 641 2809 
L 641 3341 
Q 956 3463 1253 3523 
Q 1550 3584 1831 3584 
Q 2591 3584 2966 3190 
Q 3341 2797 3341 1997 
z
" transform="scale(0.015625)"/>
        <path id="DejaVuSans-56" d="M 2834 3397 
L 2834 2853 
Q 2591 2978 2328 3040 
Q 2066 3103 1784 3103 
Q 1356 3103 1142 2972 
Q 928 2841 928 2578 
Q 928 2378 1081 2264 
Q 1234 2150 1697 2047 
L 1894 2003 
Q 2506 1872 2764 1633 
Q 3022 1394 3022 966 
Q 3022 478 2636 193 
Q 2250 -91 1575 -91 
Q 1294 -91 989 -36 
Q 684 19 347 128 
L 347 722 
Q 666 556 975 473 
Q 1284 391 1588 391 
Q 1994 391 2212 530 
Q 2431 669 2431 922 
Q 2431 1156 2273 1281 
Q 2116 1406 1581 1522 
L 1381 1569 
Q 847 1681 609 1914 
Q 372 2147 372 2553 
Q 372 3047 722 3315 
Q 1072 3584 1716 3584 
Q 2034 3584 2315 3537 
Q 2597 3491 2834 3397 
z
" transform="scale(0.015625)"/>
        <path id="DejaVuSans-48" d="M 3597 1894 
L 3597 1613 
L 953 1613 
Q 991 1019 1311 708 
Q 1631 397 2203 397 
Q 2534 397 2845 478 
Q 3156 559 3463 722 
L 3463 178 
Q 3153 47 2828 -22 
Q 2503 -91 2169 -91 
Q 1331 -91 842 396 
Q 353 884 353 1716 
Q 353 2575 817 3079 
Q 1281 3584 2069 3584 
Q 2775 3584 3186 3129 
Q 3597 2675 3597 1894 
z
M 3022 2063 
Q 3016 2534 2758 2815 
Q 2500 3097 2075 3097 
Q 1594 3097 1305 2825 
Q 1016 2553 972 2059 
L 3022 2063 
z
" transform="scale(0.015625)"/>
        <path id="DejaVuSans-4f" d="M 603 4863 
L 1178 4863 
L 1178 0 
L 603 0 
L 603 4863 
z
" transform="scale(0.015625)"/>
        <path id="DejaVuSans-4c" d="M 603 3500 
L 1178 3500 
L 1178 0 
L 603 0 
L 603 3500 
z
M 603 4863 
L 1178 4863 
L 1178 4134 
L 603 4134 
L 603 4863 
z
" transform="scale(0.015625)"/>
        <path id="DejaVuSans-51" d="M 3513 2113 
L 3513 0 
L 2938 0 
L 2938 2094 
Q 2938 2591 2744 2837 
Q 2550 3084 2163 3084 
Q 1697 3084 1428 2787 
Q 1159 2491 1159 1978 
L 1159 0 
L 581 0 
L 581 3500 
L 1159 3500 
L 1159 2956 
Q 1366 3272 1645 3428 
Q 1925 3584 2291 3584 
Q 2894 3584 3203 3211 
Q 3513 2838 3513 2113 
z
" transform="scale(0.015625)"/>
       </defs>
       <use xlink:href="#DejaVuSans-45"/>
       <use xlink:href="#DejaVuSans-44" transform="translate(63.484375 0)"/>
       <use xlink:href="#DejaVuSans-56" transform="translate(124.765625 0)"/>
       <use xlink:href="#DejaVuSans-48" transform="translate(176.859375 0)"/>
       <use xlink:href="#DejaVuSans-4f" transform="translate(238.390625 0)"/>
       <use xlink:href="#DejaVuSans-4c" transform="translate(266.171875 0)"/>
       <use xlink:href="#DejaVuSans-51" transform="translate(293.953125 0)"/>
       <use xlink:href="#DejaVuSans-48" transform="translate(357.328125 0)"/>
      </g>
     </g>
    </g>
    <g id="xtick_2">
     <g id="line2d_3">
      <path d="M 207.581172 244.198125 
L 207.581172 28.357422 
" clip-path="url(#p45c11ae244)" style="fill: none; stroke: #d9dee7; stroke-opacity: 0.75; stroke-width: 0.7; stroke-linecap: square"/>
     </g>
     <g id="line2d_4">
      <g>
       <use xlink:href="#mea6e40bfe7" x="207.581172" y="244.198125" style="fill: #324052; stroke: #324052; stroke-width: 0.8"/>
      </g>
     </g>
     <g id="text_2">
      <!-- mid -->
      <g style="fill: #324052" transform="translate(200.034297 257.276875) scale(0.08 -0.08)">
       <defs>
        <path id="DejaVuSans-50" d="M 3328 2828 
Q 3544 3216 3844 3400 
Q 4144 3584 4550 3584 
Q 5097 3584 5394 3201 
Q 5691 2819 5691 2113 
L 5691 0 
L 5113 0 
L 5113 2094 
Q 5113 2597 4934 2840 
Q 4756 3084 4391 3084 
Q 3944 3084 3684 2787 
Q 3425 2491 3425 1978 
L 3425 0 
L 2847 0 
L 2847 2094 
Q 2847 2600 2669 2842 
Q 2491 3084 2119 3084 
Q 1678 3084 1418 2786 
Q 1159 2488 1159 1978 
L 1159 0 
L 581 0 
L 581 3500 
L 1159 3500 
L 1159 2956 
Q 1356 3278 1631 3431 
Q 1906 3584 2284 3584 
Q 2666 3584 2933 3390 
Q 3200 3197 3328 2828 
z
" transform="scale(0.015625)"/>
        <path id="DejaVuSans-47" d="M 2906 2969 
L 2906 4863 
L 3481 4863 
L 3481 0 
L 2906 0 
L 2906 525 
Q 2725 213 2448 61 
Q 2172 -91 1784 -91 
Q 1150 -91 751 415 
Q 353 922 353 1747 
Q 353 2572 751 3078 
Q 1150 3584 1784 3584 
Q 2172 3584 2448 3432 
Q 2725 3281 2906 2969 
z
M 947 1747 
Q 947 1113 1208 752 
Q 1469 391 1925 391 
Q 2381 391 2643 752 
Q 2906 1113 2906 1747 
Q 2906 2381 2643 2742 
Q 2381 3103 1925 3103 
Q 1469 3103 1208 2742 
Q 947 2381 947 1747 
z
" transform="scale(0.015625)"/>
       </defs>
       <use xlink:href="#DejaVuSans-50"/>
       <use xlink:href="#DejaVuSans-4c" transform="translate(97.40625 0)"/>
       <use xlink:href="#DejaVuSans-47" transform="translate(125.1875 0)"/>
      </g>
     </g>
    </g>
    <g id="xtick_3">
     <g id="line2d_5">
      <path d="M 319.060391 244.198125 
L 319.060391 28.357422 
" clip-path="url(#p45c11ae244)" style="fill: none; stroke: #d9dee7; stroke-opacity: 0.75; stroke-width: 0.7; stroke-linecap: square"/>
     </g>
     <g id="line2d_6">
      <g>
       <use xlink:href="#mea6e40bfe7" x="319.060391" y="244.198125" style="fill: #324052; stroke: #324052; stroke-width: 0.8"/>
      </g>
     </g>
     <g id="text_3">
      <!-- final -->
      <g style="fill: #324052" transform="translate(310.443516 257.276875) scale(0.08 -0.08)">
       <defs>
        <path id="DejaVuSans-13af" d="M 3431 3500 
L 3431 0 
L 2853 0 
L 2853 3053 
L 1275 3053 
L 1275 0 
L 697 0 
L 697 3053 
L 147 3053 
L 147 3500 
L 697 3500 
L 697 3744 
Q 697 4316 967 4589 
Q 1238 4863 1797 4863 
L 2375 4863 
L 2375 4384 
L 1825 4384 
Q 1516 4384 1395 4259 
Q 1275 4134 1275 3809 
L 1275 3500 
L 3431 3500 
z
M 2853 4856 
L 3431 4856 
L 3431 4128 
L 2853 4128 
L 2853 4856 
z
" transform="scale(0.015625)"/>
       </defs>
       <use xlink:href="#DejaVuSans-13af"/>
       <use xlink:href="#DejaVuSans-51" transform="translate(62.984375 0)"/>
       <use xlink:href="#DejaVuSans-44" transform="translate(126.359375 0)"/>
       <use xlink:href="#DejaVuSans-4f" transform="translate(187.640625 0)"/>
      </g>
     </g>
    </g>
   </g>
   <g id="matplotlib.axis_2">
    <g id="ytick_1">
     <g id="line2d_7">
      <path d="M 40.362344 242.897978 
L 374.8 242.897978 
" clip-path="url(#p45c11ae244)" style="fill: none; stroke: #d9dee7; stroke-opacity: 0.75; stroke-width: 0.7; stroke-linecap: square"/>
     </g>
     <g id="line2d_8">
      <defs>
       <path id="ma10ca517ef" d="M 0 0 
L -3.5 0 
" style="stroke: #324052; stroke-width: 0.8"/>
      </defs>
      <g>
       <use xlink:href="#ma10ca517ef" x="40.362344" y="242.897978" style="fill: #324052; stroke: #324052; stroke-width: 0.8"/>
      </g>
     </g>
     <g id="text_4">
      <!-- 3 -->
      <g style="fill: #324052" transform="translate(28.272344 245.937041) scale(0.08 -0.08)">
       <defs>
        <path id="DejaVuSans-16" d="M 2597 2516 
Q 3050 2419 3304 2112 
Q 3559 1806 3559 1356 
Q 3559 666 3084 287 
Q 2609 -91 1734 -91 
Q 1441 -91 1130 -33 
Q 819 25 488 141 
L 488 750 
Q 750 597 1062 519 
Q 1375 441 1716 441 
Q 2309 441 2620 675 
Q 2931 909 2931 1356 
Q 2931 1769 2642 2001 
Q 2353 2234 1838 2234 
L 1294 2234 
L 1294 2753 
L 1863 2753 
Q 2328 2753 2575 2939 
Q 2822 3125 2822 3475 
Q 2822 3834 2567 4026 
Q 2313 4219 1838 4219 
Q 1578 4219 1281 4162 
Q 984 4106 628 3988 
L 628 4550 
Q 988 4650 1302 4700 
Q 1616 4750 1894 4750 
Q 2613 4750 3031 4423 
Q 3450 4097 3450 3541 
Q 3450 3153 3228 2886 
Q 3006 2619 2597 2516 
z
" transform="scale(0.015625)"/>
       </defs>
       <use xlink:href="#DejaVuSans-16"/>
      </g>
     </g>
    </g>
    <g id="ytick_2">
     <g id="line2d_9">
      <path d="M 40.362344 203.458665 
L 374.8 203.458665 
" clip-path="url(#p45c11ae244)" style="fill: none; stroke: #d9dee7; stroke-opacity: 0.75; stroke-width: 0.7; stroke-linecap: square"/>
     </g>
     <g id="line2d_10">
      <g>
       <use xlink:href="#ma10ca517ef" x="40.362344" y="203.458665" style="fill: #324052; stroke: #324052; stroke-width: 0.8"/>
      </g>
     </g>
     <g id="text_5">
      <!-- 4 -->
      <g style="fill: #324052" transform="translate(28.272344 206.497728) scale(0.08 -0.08)">
       <defs>
        <path id="DejaVuSans-17" d="M 2419 4116 
L 825 1625 
L 2419 1625 
L 2419 4116 
z
M 2253 4666 
L 3047 4666 
L 3047 1625 
L 3713 1625 
L 3713 1100 
L 3047 1100 
L 3047 0 
L 2419 0 
L 2419 1100 
L 313 1100 
L 313 1709 
L 2253 4666 
z
" transform="scale(0.015625)"/>
       </defs>
       <use xlink:href="#DejaVuSans-17"/>
      </g>
     </g>
    </g>
    <g id="ytick_3">
     <g id="line2d_11">
      <path d="M 40.362344 164.019352 
L 374.8 164.019352 
" clip-path="url(#p45c11ae244)" style="fill: none; stroke: #d9dee7; stroke-opacity: 0.75; stroke-width: 0.7; stroke-linecap: square"/>
     </g>
     <g id="line2d_12">
      <g>
       <use xlink:href="#ma10ca517ef" x="40.362344" y="164.019352" style="fill: #324052; stroke: #324052; stroke-width: 0.8"/>
      </g>
     </g>
     <g id="text_6">
      <!-- 5 -->
      <g style="fill: #324052" transform="translate(28.272344 167.058415) scale(0.08 -0.08)">
       <defs>
        <path id="DejaVuSans-18" d="M 691 4666 
L 3169 4666 
L 3169 4134 
L 1269 4134 
L 1269 2991 
Q 1406 3038 1543 3061 
Q 1681 3084 1819 3084 
Q 2600 3084 3056 2656 
Q 3513 2228 3513 1497 
Q 3513 744 3044 326 
Q 2575 -91 1722 -91 
Q 1428 -91 1123 -41 
Q 819 9 494 109 
L 494 744 
Q 775 591 1075 516 
Q 1375 441 1709 441 
Q 2250 441 2565 725 
Q 2881 1009 2881 1497 
Q 2881 1984 2565 2268 
Q 2250 2553 1709 2553 
Q 1456 2553 1204 2497 
Q 953 2441 691 2322 
L 691 4666 
z
" transform="scale(0.015625)"/>
       </defs>
       <use xlink:href="#DejaVuSans-18"/>
      </g>
     </g>
    </g>
    <g id="ytick_4">
     <g id="line2d_13">
      <path d="M 40.362344 124.580039 
L 374.8 124.580039 
" clip-path="url(#p45c11ae244)" style="fill: none; stroke: #d9dee7; stroke-opacity: 0.75; stroke-width: 0.7; stroke-linecap: square"/>
     </g>
     <g id="line2d_14">
      <g>
       <use xlink:href="#ma10ca517ef" x="40.362344" y="124.580039" style="fill: #324052; stroke: #324052; stroke-width: 0.8"/>
      </g>
     </g>
     <g id="text_7">
      <!-- 6 -->
      <g style="fill: #324052" transform="translate(28.272344 127.619102) scale(0.08 -0.08)">
       <defs>
        <path id="DejaVuSans-19" d="M 2113 2584 
Q 1688 2584 1439 2293 
Q 1191 2003 1191 1497 
Q 1191 994 1439 701 
Q 1688 409 2113 409 
Q 2538 409 2786 701 
Q 3034 994 3034 1497 
Q 3034 2003 2786 2293 
Q 2538 2584 2113 2584 
z
M 3366 4563 
L 3366 3988 
Q 3128 4100 2886 4159 
Q 2644 4219 2406 4219 
Q 1781 4219 1451 3797 
Q 1122 3375 1075 2522 
Q 1259 2794 1537 2939 
Q 1816 3084 2150 3084 
Q 2853 3084 3261 2657 
Q 3669 2231 3669 1497 
Q 3669 778 3244 343 
Q 2819 -91 2113 -91 
Q 1303 -91 875 529 
Q 447 1150 447 2328 
Q 447 3434 972 4092 
Q 1497 4750 2381 4750 
Q 2619 4750 2861 4703 
Q 3103 4656 3366 4563 
z
" transform="scale(0.015625)"/>
       </defs>
       <use xlink:href="#DejaVuSans-19"/>
      </g>
     </g>
    </g>
    <g id="ytick_5">
     <g id="line2d_15">
      <path d="M 40.362344 85.140726 
L 374.8 85.140726 
" clip-path="url(#p45c11ae244)" style="fill: none; stroke: #d9dee7; stroke-opacity: 0.75; stroke-width: 0.7; stroke-linecap: square"/>
     </g>
     <g id="line2d_16">
      <g>
       <use xlink:href="#ma10ca517ef" x="40.362344" y="85.140726" style="fill: #324052; stroke: #324052; stroke-width: 0.8"/>
      </g>
     </g>
     <g id="text_8">
      <!-- 7 -->
      <g style="fill: #324052" transform="translate(28.272344 88.179789) scale(0.08 -0.08)">
       <defs>
        <path id="DejaVuSans-1a" d="M 525 4666 
L 3525 4666 
L 3525 4397 
L 1831 0 
L 1172 0 
L 2766 4134 
L 525 4134 
L 525 4666 
z
" transform="scale(0.015625)"/>
       </defs>
       <use xlink:href="#DejaVuSans-1a"/>
      </g>
     </g>
    </g>
    <g id="ytick_6">
     <g id="line2d_17">
      <path d="M 40.362344 45.701413 
L 374.8 45.701413 
" clip-path="url(#p45c11ae244)" style="fill: none; stroke: #d9dee7; stroke-opacity: 0.75; stroke-width: 0.7; stroke-linecap: square"/>
     </g>
     <g id="line2d_18">
      <g>
       <use xlink:href="#ma10ca517ef" x="40.362344" y="45.701413" style="fill: #324052; stroke: #324052; stroke-width: 0.8"/>
      </g>
     </g>
     <g id="text_9">
      <!-- 8 -->
      <g style="fill: #324052" transform="translate(28.272344 48.740476) scale(0.08 -0.08)">
       <defs>
        <path id="DejaVuSans-1b" d="M 2034 2216 
Q 1584 2216 1326 1975 
Q 1069 1734 1069 1313 
Q 1069 891 1326 650 
Q 1584 409 2034 409 
Q 2484 409 2743 651 
Q 3003 894 3003 1313 
Q 3003 1734 2745 1975 
Q 2488 2216 2034 2216 
z
M 1403 2484 
Q 997 2584 770 2862 
Q 544 3141 544 3541 
Q 544 4100 942 4425 
Q 1341 4750 2034 4750 
Q 2731 4750 3128 4425 
Q 3525 4100 3525 3541 
Q 3525 3141 3298 2862 
Q 3072 2584 2669 2484 
Q 3125 2378 3379 2068 
Q 3634 1759 3634 1313 
Q 3634 634 3220 271 
Q 2806 -91 2034 -91 
Q 1263 -91 848 271 
Q 434 634 434 1313 
Q 434 1759 690 2068 
Q 947 2378 1403 2484 
z
M 1172 3481 
Q 1172 3119 1398 2916 
Q 1625 2713 2034 2713 
Q 2441 2713 2670 2916 
Q 2900 3119 2900 3481 
Q 2900 3844 2670 4047 
Q 2441 4250 2034 4250 
Q 1625 4250 1398 4047 
Q 1172 3844 1172 3481 
z
" transform="scale(0.015625)"/>
       </defs>
       <use xlink:href="#DejaVuSans-1b"/>
      </g>
     </g>
    </g>
    <g id="text_10">
     <!-- Value -->
     <g transform="translate(21.87 150.008242) rotate(-90) scale(0.1 -0.1)">
      <defs>
       <path id="DejaVuSans-39" d="M 1831 0 
L 50 4666 
L 709 4666 
L 2188 738 
L 3669 4666 
L 4325 4666 
L 2547 0 
L 1831 0 
z
" transform="scale(0.015625)"/>
       <path id="DejaVuSans-58" d="M 544 1381 
L 544 3500 
L 1119 3500 
L 1119 1403 
Q 1119 906 1312 657 
Q 1506 409 1894 409 
Q 2359 409 2629 706 
Q 2900 1003 2900 1516 
L 2900 3500 
L 3475 3500 
L 3475 0 
L 2900 0 
L 2900 538 
Q 2691 219 2414 64 
Q 2138 -91 1772 -91 
Q 1169 -91 856 284 
Q 544 659 544 1381 
z
M 1991 3584 
L 1991 3584 
z
" transform="scale(0.015625)"/>
      </defs>
      <use xlink:href="#DejaVuSans-39"/>
      <use xlink:href="#DejaVuSans-44" transform="translate(60.640625 0)"/>
      <use xlink:href="#DejaVuSans-4f" transform="translate(121.921875 0)"/>
      <use xlink:href="#DejaVuSans-58" transform="translate(149.703125 0)"/>
      <use xlink:href="#DejaVuSans-48" transform="translate(213.078125 0)"/>
     </g>
    </g>
   </g>
   <g id="PathCollection_1">
    <defs>
     <path id="ma23792ac97" d="M 0 2.12132 
C 0.562581 2.12132 1.102195 1.897805 1.5 1.5 
C 1.897805 1.102195 2.12132 0.562581 2.12132 0 
C 2.12132 -0.562581 1.897805 -1.102195 1.5 -1.5 
C 1.102195 -1.897805 0.562581 -2.12132 0 -2.12132 
C -0.562581 -2.12132 -1.102195 -1.897805 -1.5 -1.5 
C -1.897805 -1.102195 -2.12132 -0.562581 -2.12132 0 
C -2.12132 0.562581 -1.897805 1.102195 -1.5 1.5 
C -1.102195 1.897805 -0.562581 2.12132 0 2.12132 
z
" style="stroke: #2455a4; stroke-opacity: 0.65"/>
    </defs>
    <g clip-path="url(#p45c11ae244)">
     <use xlink:href="#ma23792ac97" x="96.022403" y="221.630208" style="fill: #2455a4; fill-opacity: 0.65; stroke: #2455a4; stroke-opacity: 0.65"/>
     <use xlink:href="#ma23792ac97" x="94.25763" y="157.611276" style="fill: #2455a4; fill-opacity: 0.65; stroke: #2455a4; stroke-opacity: 0.65"/>
     <use xlink:href="#ma23792ac97" x="96.034788" y="167.562368" style="fill: #2455a4; fill-opacity: 0.65; stroke: #2455a4; stroke-opacity: 0.65"/>
     <use xlink:href="#ma23792ac97" x="99.51651" y="201.229711" style="fill: #2455a4; fill-opacity: 0.65; stroke: #2455a4; stroke-opacity: 0.65"/>
     <use xlink:href="#ma23792ac97" x="104.218706" y="173.342579" style="fill: #2455a4; fill-opacity: 0.65; stroke: #2455a4; stroke-opacity: 0.65"/>
     <use xlink:href="#ma23792ac97" x="90.681851" y="143.132805" style="fill: #2455a4; fill-opacity: 0.65; stroke: #2455a4; stroke-opacity: 0.65"/>
     <use xlink:href="#ma23792ac97" x="102.310845" y="135.484285" style="fill: #2455a4; fill-opacity: 0.65; stroke: #2455a4; stroke-opacity: 0.65"/>
     <use xlink:href="#ma23792ac97" x="98.664789" y="140.302359" style="fill: #2455a4; fill-opacity: 0.65; stroke: #2455a4; stroke-opacity: 0.65"/>
     <use xlink:href="#ma23792ac97" x="92.210836" y="157.571892" style="fill: #2455a4; fill-opacity: 0.65; stroke: #2455a4; stroke-opacity: 0.65"/>
     <use xlink:href="#ma23792ac97" x="91.48808" y="118.294251" style="fill: #2455a4; fill-opacity: 0.65; stroke: #2455a4; stroke-opacity: 0.65"/>
     <use xlink:href="#ma23792ac97" x="101.754545" y="158.927731" style="fill: #2455a4; fill-opacity: 0.65; stroke: #2455a4; stroke-opacity: 0.65"/>
     <use xlink:href="#ma23792ac97" x="96.029211" y="125.722431" style="fill: #2455a4; fill-opacity: 0.65; stroke: #2455a4; stroke-opacity: 0.65"/>
     <use xlink:href="#ma23792ac97" x="93.385266" y="208.672103" style="fill: #2455a4; fill-opacity: 0.65; stroke: #2455a4; stroke-opacity: 0.65"/>
     <use xlink:href="#ma23792ac97" x="83.558568" y="163.462831" style="fill: #2455a4; fill-opacity: 0.65; stroke: #2455a4; stroke-opacity: 0.65"/>
     <use xlink:href="#ma23792ac97" x="98.593909" y="184.489631" style="fill: #2455a4; fill-opacity: 0.65; stroke: #2455a4; stroke-opacity: 0.65"/>
     <use xlink:href="#ma23792ac97" x="99.234555" y="123.065576" style="fill: #2455a4; fill-opacity: 0.65; stroke: #2455a4; stroke-opacity: 0.65"/>
     <use xlink:href="#ma23792ac97" x="91.694131" y="234.387184" style="fill: #2455a4; fill-opacity: 0.65; stroke: #2455a4; stroke-opacity: 0.65"/>
     <use xlink:href="#ma23792ac97" x="92.975724" y="151.181149" style="fill: #2455a4; fill-opacity: 0.65; stroke: #2455a4; stroke-opacity: 0.65"/>
     <use xlink:href="#ma23792ac97" x="94.6026" y="149.532597" style="fill: #2455a4; fill-opacity: 0.65; stroke: #2455a4; stroke-opacity: 0.65"/>
     <use xlink:href="#ma23792ac97" x="93.713991" y="122.213391" style="fill: #2455a4; fill-opacity: 0.65; stroke: #2455a4; stroke-opacity: 0.65"/>
     <use xlink:href="#ma23792ac97" x="89.147246" y="135.181109" style="fill: #2455a4; fill-opacity: 0.65; stroke: #2455a4; stroke-opacity: 0.65"/>
     <use xlink:href="#ma23792ac97" x="93.878335" y="165.095714" style="fill: #2455a4; fill-opacity: 0.65; stroke: #2455a4; stroke-opacity: 0.65"/>
     <use xlink:href="#ma23792ac97" x="99.071396" y="139.894403" style="fill: #2455a4; fill-opacity: 0.65; stroke: #2455a4; stroke-opacity: 0.65"/>
     <use xlink:href="#ma23792ac97" x="105.163481" y="207.324854" style="fill: #2455a4; fill-opacity: 0.65; stroke: #2455a4; stroke-opacity: 0.65"/>
     <use xlink:href="#ma23792ac97" x="93.840202" y="130.23382" style="fill: #2455a4; fill-opacity: 0.65; stroke: #2455a4; stroke-opacity: 0.65"/>
     <use xlink:href="#ma23792ac97" x="109.771738" y="195.314741" style="fill: #2455a4; fill-opacity: 0.65; stroke: #2455a4; stroke-opacity: 0.65"/>
     <use xlink:href="#ma23792ac97" x="99.533952" y="125.997798" style="fill: #2455a4; fill-opacity: 0.65; stroke: #2455a4; stroke-opacity: 0.65"/>
     <use xlink:href="#ma23792ac97" x="100.812891" y="157.480637" style="fill: #2455a4; fill-opacity: 0.65; stroke: #2455a4; stroke-opacity: 0.65"/>
     <use xlink:href="#ma23792ac97" x="90.567485" y="160.080466" style="fill: #2455a4; fill-opacity: 0.65; stroke: #2455a4; stroke-opacity: 0.65"/>
     <use xlink:href="#ma23792ac97" x="93.154263" y="152.014482" style="fill: #2455a4; fill-opacity: 0.65; stroke: #2455a4; stroke-opacity: 0.65"/>
     <use xlink:href="#ma23792ac97" x="92.753401" y="167.231006" style="fill: #2455a4; fill-opacity: 0.65; stroke: #2455a4; stroke-opacity: 0.65"/>
     <use xlink:href="#ma23792ac97" x="90.474447" y="177.543626" style="fill: #2455a4; fill-opacity: 0.65; stroke: #2455a4; stroke-opacity: 0.65"/>
     <use xlink:href="#ma23792ac97" x="90.500361" y="145.787222" style="fill: #2455a4; fill-opacity: 0.65; stroke: #2455a4; stroke-opacity: 0.65"/>
     <use xlink:href="#ma23792ac97" x="100.608715" y="110.546076" style="fill: #2455a4; fill-opacity: 0.65; stroke: #2455a4; stroke-opacity: 0.65"/>
     <use xlink:href="#ma23792ac97" x="100.01049" y="219.656302" style="fill: #2455a4; fill-opacity: 0.65; stroke: #2455a4; stroke-opacity: 0.65"/>
     <use xlink:href="#ma23792ac97" x="100.880365" y="211.766792" style="fill: #2455a4; fill-opacity: 0.65; stroke: #2455a4; stroke-opacity: 0.65"/>
     <use xlink:href="#ma23792ac97" x="85.221338" y="99.73303" style="fill: #2455a4; fill-opacity: 0.65; stroke: #2455a4; stroke-opacity: 0.65"/>
     <use xlink:href="#ma23792ac97" x="98.98408" y="196.026748" style="fill: #2455a4; fill-opacity: 0.65; stroke: #2455a4; stroke-opacity: 0.65"/>
     <use xlink:href="#ma23792ac97" x="92.160065" y="147.985229" style="fill: #2455a4; fill-opacity: 0.65; stroke: #2455a4; stroke-opacity: 0.65"/>
     <use xlink:href="#ma23792ac97" x="97.541215" y="154.193845" style="fill: #2455a4; fill-opacity: 0.65; stroke: #2455a4; stroke-opacity: 0.65"/>
     <use xlink:href="#ma23792ac97" x="98.848788" y="187.291135" style="fill: #2455a4; fill-opacity: 0.65; stroke: #2455a4; stroke-opacity: 0.65"/>
     <use xlink:href="#ma23792ac97" x="95.313132" y="105.925202" style="fill: #2455a4; fill-opacity: 0.65; stroke: #2455a4; stroke-opacity: 0.65"/>
     <use xlink:href="#ma23792ac97" x="99.013185" y="162.91763" style="fill: #2455a4; fill-opacity: 0.65; stroke: #2455a4; stroke-opacity: 0.65"/>
     <use xlink:href="#ma23792ac97" x="97.053049" y="163.754913" style="fill: #2455a4; fill-opacity: 0.65; stroke: #2455a4; stroke-opacity: 0.65"/>
     <use xlink:href="#ma23792ac97" x="87.634484" y="121.19268" style="fill: #2455a4; fill-opacity: 0.65; stroke: #2455a4; stroke-opacity: 0.65"/>
    </g>
   </g>
   <g id="PathCollection_2">
    <g clip-path="url(#p45c11ae244)">
     <use xlink:href="#ma23792ac97" x="209.992638" y="142.504784" style="fill: #2455a4; fill-opacity: 0.65; stroke: #2455a4; stroke-opacity: 0.65"/>
     <use xlink:href="#ma23792ac97" x="210.528089" y="107.405592" style="fill: #2455a4; fill-opacity: 0.65; stroke: #2455a4; stroke-opacity: 0.65"/>
     <use xlink:href="#ma23792ac97" x="209.441428" y="153.27768" style="fill: #2455a4; fill-opacity: 0.65; stroke: #2455a4; stroke-opacity: 0.65"/>
     <use xlink:href="#ma23792ac97" x="204.391424" y="108.764285" style="fill: #2455a4; fill-opacity: 0.65; stroke: #2455a4; stroke-opacity: 0.65"/>
     <use xlink:href="#ma23792ac97" x="210.51266" y="112.069153" style="fill: #2455a4; fill-opacity: 0.65; stroke: #2455a4; stroke-opacity: 0.65"/>
     <use xlink:href="#ma23792ac97" x="204.591213" y="112.826921" style="fill: #2455a4; fill-opacity: 0.65; stroke: #2455a4; stroke-opacity: 0.65"/>
     <use xlink:href="#ma23792ac97" x="200.882812" y="116.985448" style="fill: #2455a4; fill-opacity: 0.65; stroke: #2455a4; stroke-opacity: 0.65"/>
     <use xlink:href="#ma23792ac97" x="211.417108" y="123.431296" style="fill: #2455a4; fill-opacity: 0.65; stroke: #2455a4; stroke-opacity: 0.65"/>
     <use xlink:href="#ma23792ac97" x="213.090341" y="145.710427" style="fill: #2455a4; fill-opacity: 0.65; stroke: #2455a4; stroke-opacity: 0.65"/>
     <use xlink:href="#ma23792ac97" x="206.6336" y="119.261032" style="fill: #2455a4; fill-opacity: 0.65; stroke: #2455a4; stroke-opacity: 0.65"/>
     <use xlink:href="#ma23792ac97" x="214.24066" y="143.617422" style="fill: #2455a4; fill-opacity: 0.65; stroke: #2455a4; stroke-opacity: 0.65"/>
     <use xlink:href="#ma23792ac97" x="207.281052" y="55.846149" style="fill: #2455a4; fill-opacity: 0.65; stroke: #2455a4; stroke-opacity: 0.65"/>
     <use xlink:href="#ma23792ac97" x="207.075058" y="94.398476" style="fill: #2455a4; fill-opacity: 0.65; stroke: #2455a4; stroke-opacity: 0.65"/>
     <use xlink:href="#ma23792ac97" x="206.245604" y="144.46631" style="fill: #2455a4; fill-opacity: 0.65; stroke: #2455a4; stroke-opacity: 0.65"/>
     <use xlink:href="#ma23792ac97" x="212.410467" y="104.04082" style="fill: #2455a4; fill-opacity: 0.65; stroke: #2455a4; stroke-opacity: 0.65"/>
     <use xlink:href="#ma23792ac97" x="213.202918" y="147.481257" style="fill: #2455a4; fill-opacity: 0.65; stroke: #2455a4; stroke-opacity: 0.65"/>
     <use xlink:href="#ma23792ac97" x="209.630903" y="83.72523" style="fill: #2455a4; fill-opacity: 0.65; stroke: #2455a4; stroke-opacity: 0.65"/>
     <use xlink:href="#ma23792ac97" x="212.214758" y="123.285907" style="fill: #2455a4; fill-opacity: 0.65; stroke: #2455a4; stroke-opacity: 0.65"/>
     <use xlink:href="#ma23792ac97" x="204.307849" y="176.126125" style="fill: #2455a4; fill-opacity: 0.65; stroke: #2455a4; stroke-opacity: 0.65"/>
     <use xlink:href="#ma23792ac97" x="208.073446" y="115.584985" style="fill: #2455a4; fill-opacity: 0.65; stroke: #2455a4; stroke-opacity: 0.65"/>
     <use xlink:href="#ma23792ac97" x="202.488479" y="164.121893" style="fill: #2455a4; fill-opacity: 0.65; stroke: #2455a4; stroke-opacity: 0.65"/>
     <use xlink:href="#ma23792ac97" x="213.675195" y="136.299972" style="fill: #2455a4; fill-opacity: 0.65; stroke: #2455a4; stroke-opacity: 0.65"/>
     <use xlink:href="#ma23792ac97" x="198.62156" y="125.24297" style="fill: #2455a4; fill-opacity: 0.65; stroke: #2455a4; stroke-opacity: 0.65"/>
     <use xlink:href="#ma23792ac97" x="203.923919" y="131.761377" style="fill: #2455a4; fill-opacity: 0.65; stroke: #2455a4; stroke-opacity: 0.65"/>
     <use xlink:href="#ma23792ac97" x="203.528106" y="136.670861" style="fill: #2455a4; fill-opacity: 0.65; stroke: #2455a4; stroke-opacity: 0.65"/>
     <use xlink:href="#ma23792ac97" x="199.746026" y="169.178977" style="fill: #2455a4; fill-opacity: 0.65; stroke: #2455a4; stroke-opacity: 0.65"/>
     <use xlink:href="#ma23792ac97" x="215.127698" y="127.01365" style="fill: #2455a4; fill-opacity: 0.65; stroke: #2455a4; stroke-opacity: 0.65"/>
     <use xlink:href="#ma23792ac97" x="204.222273" y="89.292262" style="fill: #2455a4; fill-opacity: 0.65; stroke: #2455a4; stroke-opacity: 0.65"/>
     <use xlink:href="#ma23792ac97" x="211.867369" y="114.902682" style="fill: #2455a4; fill-opacity: 0.65; stroke: #2455a4; stroke-opacity: 0.65"/>
     <use xlink:href="#ma23792ac97" x="205.149968" y="111.884166" style="fill: #2455a4; fill-opacity: 0.65; stroke: #2455a4; stroke-opacity: 0.65"/>
     <use xlink:href="#ma23792ac97" x="208.862731" y="108.527317" style="fill: #2455a4; fill-opacity: 0.65; stroke: #2455a4; stroke-opacity: 0.65"/>
     <use xlink:href="#ma23792ac97" x="199.681441" y="157.005766" style="fill: #2455a4; fill-opacity: 0.65; stroke: #2455a4; stroke-opacity: 0.65"/>
     <use xlink:href="#ma23792ac97" x="210.339669" y="117.58155" style="fill: #2455a4; fill-opacity: 0.65; stroke: #2455a4; stroke-opacity: 0.65"/>
     <use xlink:href="#ma23792ac97" x="208.635723" y="152.245322" style="fill: #2455a4; fill-opacity: 0.65; stroke: #2455a4; stroke-opacity: 0.65"/>
     <use xlink:href="#ma23792ac97" x="205.240374" y="127.715871" style="fill: #2455a4; fill-opacity: 0.65; stroke: #2455a4; stroke-opacity: 0.65"/>
     <use xlink:href="#ma23792ac97" x="199.407565" y="113.935913" style="fill: #2455a4; fill-opacity: 0.65; stroke: #2455a4; stroke-opacity: 0.65"/>
     <use xlink:href="#ma23792ac97" x="205.881038" y="130.0114" style="fill: #2455a4; fill-opacity: 0.65; stroke: #2455a4; stroke-opacity: 0.65"/>
     <use xlink:href="#ma23792ac97" x="210.02123" y="101.978665" style="fill: #2455a4; fill-opacity: 0.65; stroke: #2455a4; stroke-opacity: 0.65"/>
     <use xlink:href="#ma23792ac97" x="201.785496" y="93.210229" style="fill: #2455a4; fill-opacity: 0.65; stroke: #2455a4; stroke-opacity: 0.65"/>
     <use xlink:href="#ma23792ac97" x="204.813423" y="93.780374" style="fill: #2455a4; fill-opacity: 0.65; stroke: #2455a4; stroke-opacity: 0.65"/>
     <use xlink:href="#ma23792ac97" x="208.018528" y="115.527013" style="fill: #2455a4; fill-opacity: 0.65; stroke: #2455a4; stroke-opacity: 0.65"/>
     <use xlink:href="#ma23792ac97" x="209.816412" y="127.110442" style="fill: #2455a4; fill-opacity: 0.65; stroke: #2455a4; stroke-opacity: 0.65"/>
     <use xlink:href="#ma23792ac97" x="207.621019" y="160.85728" style="fill: #2455a4; fill-opacity: 0.65; stroke: #2455a4; stroke-opacity: 0.65"/>
     <use xlink:href="#ma23792ac97" x="208.905569" y="170.163652" style="fill: #2455a4; fill-opacity: 0.65; stroke: #2455a4; stroke-opacity: 0.65"/>
     <use xlink:href="#ma23792ac97" x="194.443798" y="94.016637" style="fill: #2455a4; fill-opacity: 0.65; stroke: #2455a4; stroke-opacity: 0.65"/>
    </g>
   </g>
   <g id="PathCollection_3">
    <g clip-path="url(#p45c11ae244)">
     <use xlink:href="#ma23792ac97" x="312.52916" y="84.360292" style="fill: #2455a4; fill-opacity: 0.65; stroke: #2455a4; stroke-opacity: 0.65"/>
     <use xlink:href="#ma23792ac97" x="318.326381" y="111.62841" style="fill: #2455a4; fill-opacity: 0.65; stroke: #2455a4; stroke-opacity: 0.65"/>
     <use xlink:href="#ma23792ac97" x="315.469393" y="154.945252" style="fill: #2455a4; fill-opacity: 0.65; stroke: #2455a4; stroke-opacity: 0.65"/>
     <use xlink:href="#ma23792ac97" x="317.464797" y="98.532319" style="fill: #2455a4; fill-opacity: 0.65; stroke: #2455a4; stroke-opacity: 0.65"/>
     <use xlink:href="#ma23792ac97" x="325.160117" y="184.212779" style="fill: #2455a4; fill-opacity: 0.65; stroke: #2455a4; stroke-opacity: 0.65"/>
     <use xlink:href="#ma23792ac97" x="317.072553" y="59.770963" style="fill: #2455a4; fill-opacity: 0.65; stroke: #2455a4; stroke-opacity: 0.65"/>
     <use xlink:href="#ma23792ac97" x="324.246833" y="92.762324" style="fill: #2455a4; fill-opacity: 0.65; stroke: #2455a4; stroke-opacity: 0.65"/>
     <use xlink:href="#ma23792ac97" x="315.856967" y="82.31737" style="fill: #2455a4; fill-opacity: 0.65; stroke: #2455a4; stroke-opacity: 0.65"/>
     <use xlink:href="#ma23792ac97" x="303.68632" y="109.01123" style="fill: #2455a4; fill-opacity: 0.65; stroke: #2455a4; stroke-opacity: 0.65"/>
     <use xlink:href="#ma23792ac97" x="321.613519" y="73.296334" style="fill: #2455a4; fill-opacity: 0.65; stroke: #2455a4; stroke-opacity: 0.65"/>
     <use xlink:href="#ma23792ac97" x="313.46152" y="123.151035" style="fill: #2455a4; fill-opacity: 0.65; stroke: #2455a4; stroke-opacity: 0.65"/>
     <use xlink:href="#ma23792ac97" x="321.817225" y="174.373107" style="fill: #2455a4; fill-opacity: 0.65; stroke: #2455a4; stroke-opacity: 0.65"/>
     <use xlink:href="#ma23792ac97" x="312.289634" y="128.648563" style="fill: #2455a4; fill-opacity: 0.65; stroke: #2455a4; stroke-opacity: 0.65"/>
     <use xlink:href="#ma23792ac97" x="319.942213" y="167.818597" style="fill: #2455a4; fill-opacity: 0.65; stroke: #2455a4; stroke-opacity: 0.65"/>
     <use xlink:href="#ma23792ac97" x="316.248083" y="115.453199" style="fill: #2455a4; fill-opacity: 0.65; stroke: #2455a4; stroke-opacity: 0.65"/>
     <use xlink:href="#ma23792ac97" x="320.55893" y="134.45338" style="fill: #2455a4; fill-opacity: 0.65; stroke: #2455a4; stroke-opacity: 0.65"/>
     <use xlink:href="#ma23792ac97" x="318.845685" y="56.327225" style="fill: #2455a4; fill-opacity: 0.65; stroke: #2455a4; stroke-opacity: 0.65"/>
     <use xlink:href="#ma23792ac97" x="314.733859" y="145.187952" style="fill: #2455a4; fill-opacity: 0.65; stroke: #2455a4; stroke-opacity: 0.65"/>
     <use xlink:href="#ma23792ac97" x="321.184214" y="120.631112" style="fill: #2455a4; fill-opacity: 0.65; stroke: #2455a4; stroke-opacity: 0.65"/>
     <use xlink:href="#ma23792ac97" x="311.704757" y="153.323882" style="fill: #2455a4; fill-opacity: 0.65; stroke: #2455a4; stroke-opacity: 0.65"/>
     <use xlink:href="#ma23792ac97" x="316.698713" y="48.753221" style="fill: #2455a4; fill-opacity: 0.65; stroke: #2455a4; stroke-opacity: 0.65"/>
     <use xlink:href="#ma23792ac97" x="317.942381" y="133.546662" style="fill: #2455a4; fill-opacity: 0.65; stroke: #2455a4; stroke-opacity: 0.65"/>
     <use xlink:href="#ma23792ac97" x="324.330593" y="122.590669" style="fill: #2455a4; fill-opacity: 0.65; stroke: #2455a4; stroke-opacity: 0.65"/>
     <use xlink:href="#ma23792ac97" x="321.004054" y="133.53914" style="fill: #2455a4; fill-opacity: 0.65; stroke: #2455a4; stroke-opacity: 0.65"/>
     <use xlink:href="#ma23792ac97" x="328.399593" y="118.592811" style="fill: #2455a4; fill-opacity: 0.65; stroke: #2455a4; stroke-opacity: 0.65"/>
     <use xlink:href="#ma23792ac97" x="318.465739" y="95.374653" style="fill: #2455a4; fill-opacity: 0.65; stroke: #2455a4; stroke-opacity: 0.65"/>
     <use xlink:href="#ma23792ac97" x="311.522638" y="62.909589" style="fill: #2455a4; fill-opacity: 0.65; stroke: #2455a4; stroke-opacity: 0.65"/>
     <use xlink:href="#ma23792ac97" x="320.185787" y="87.673552" style="fill: #2455a4; fill-opacity: 0.65; stroke: #2455a4; stroke-opacity: 0.65"/>
     <use xlink:href="#ma23792ac97" x="321.370014" y="113.90485" style="fill: #2455a4; fill-opacity: 0.65; stroke: #2455a4; stroke-opacity: 0.65"/>
     <use xlink:href="#ma23792ac97" x="308.5848" y="92.478502" style="fill: #2455a4; fill-opacity: 0.65; stroke: #2455a4; stroke-opacity: 0.65"/>
     <use xlink:href="#ma23792ac97" x="321.35142" y="135.50765" style="fill: #2455a4; fill-opacity: 0.65; stroke: #2455a4; stroke-opacity: 0.65"/>
     <use xlink:href="#ma23792ac97" x="313.023099" y="38.168363" style="fill: #2455a4; fill-opacity: 0.65; stroke: #2455a4; stroke-opacity: 0.65"/>
     <use xlink:href="#ma23792ac97" x="327.507561" y="147.796574" style="fill: #2455a4; fill-opacity: 0.65; stroke: #2455a4; stroke-opacity: 0.65"/>
     <use xlink:href="#ma23792ac97" x="322.540504" y="83.745908" style="fill: #2455a4; fill-opacity: 0.65; stroke: #2455a4; stroke-opacity: 0.65"/>
     <use xlink:href="#ma23792ac97" x="318.842988" y="160.370852" style="fill: #2455a4; fill-opacity: 0.65; stroke: #2455a4; stroke-opacity: 0.65"/>
     <use xlink:href="#ma23792ac97" x="310.307247" y="135.684787" style="fill: #2455a4; fill-opacity: 0.65; stroke: #2455a4; stroke-opacity: 0.65"/>
     <use xlink:href="#ma23792ac97" x="318.041824" y="132.855887" style="fill: #2455a4; fill-opacity: 0.65; stroke: #2455a4; stroke-opacity: 0.65"/>
     <use xlink:href="#ma23792ac97" x="323.939297" y="104.722824" style="fill: #2455a4; fill-opacity: 0.65; stroke: #2455a4; stroke-opacity: 0.65"/>
     <use xlink:href="#ma23792ac97" x="328.349179" y="128.821739" style="fill: #2455a4; fill-opacity: 0.65; stroke: #2455a4; stroke-opacity: 0.65"/>
     <use xlink:href="#ma23792ac97" x="317.997798" y="51.814172" style="fill: #2455a4; fill-opacity: 0.65; stroke: #2455a4; stroke-opacity: 0.65"/>
     <use xlink:href="#ma23792ac97" x="327.155587" y="114.445443" style="fill: #2455a4; fill-opacity: 0.65; stroke: #2455a4; stroke-opacity: 0.65"/>
     <use xlink:href="#ma23792ac97" x="325.806979" y="134.394323" style="fill: #2455a4; fill-opacity: 0.65; stroke: #2455a4; stroke-opacity: 0.65"/>
     <use xlink:href="#ma23792ac97" x="314.885257" y="89.348608" style="fill: #2455a4; fill-opacity: 0.65; stroke: #2455a4; stroke-opacity: 0.65"/>
     <use xlink:href="#ma23792ac97" x="318.196913" y="96.120779" style="fill: #2455a4; fill-opacity: 0.65; stroke: #2455a4; stroke-opacity: 0.65"/>
     <use xlink:href="#ma23792ac97" x="318.409658" y="74.021041" style="fill: #2455a4; fill-opacity: 0.65; stroke: #2455a4; stroke-opacity: 0.65"/>
    </g>
   </g>
   <g id="patch_3">
    <path d="M 71.019129 177.543626 
L 121.184777 177.543626 
L 121.184777 135.484285 
L 71.019129 135.484285 
L 71.019129 177.543626 
z
" clip-path="url(#p45c11ae244)" style="fill: #dce9f6; stroke: #000000; stroke-linejoin: miter"/>
   </g>
   <g id="line2d_19">
    <path d="M 96.101953 177.543626 
L 96.101953 234.387184 
" clip-path="url(#p45c11ae244)" style="fill: none; stroke: #000000; stroke-linecap: square"/>
   </g>
   <g id="line2d_20">
    <path d="M 96.101953 135.484285 
L 96.101953 99.73303 
" clip-path="url(#p45c11ae244)" style="fill: none; stroke: #000000; stroke-linecap: square"/>
   </g>
   <g id="line2d_21">
    <path d="M 83.560541 234.387184 
L 108.643365 234.387184 
" clip-path="url(#p45c11ae244)" style="fill: none; stroke: #000000; stroke-linecap: square"/>
   </g>
   <g id="line2d_22">
    <path d="M 83.560541 99.73303 
L 108.643365 99.73303 
" clip-path="url(#p45c11ae244)" style="fill: none; stroke: #000000; stroke-linecap: square"/>
   </g>
   <g id="line2d_23"/>
   <g id="patch_4">
    <path d="M 182.498348 143.617422 
L 232.663996 143.617422 
L 232.663996 108.764285 
L 182.498348 108.764285 
L 182.498348 143.617422 
z
" clip-path="url(#p45c11ae244)" style="fill: #dce9f6; stroke: #000000; stroke-linejoin: miter"/>
   </g>
   <g id="line2d_24">
    <path d="M 207.581172 143.617422 
L 207.581172 176.126125 
" clip-path="url(#p45c11ae244)" style="fill: none; stroke: #000000; stroke-linecap: square"/>
   </g>
   <g id="line2d_25">
    <path d="M 207.581172 108.764285 
L 207.581172 83.72523 
" clip-path="url(#p45c11ae244)" style="fill: none; stroke: #000000; stroke-linecap: square"/>
   </g>
   <g id="line2d_26">
    <path d="M 195.03976 176.126125 
L 220.122584 176.126125 
" clip-path="url(#p45c11ae244)" style="fill: none; stroke: #000000; stroke-linecap: square"/>
   </g>
   <g id="line2d_27">
    <path d="M 195.03976 83.72523 
L 220.122584 83.72523 
" clip-path="url(#p45c11ae244)" style="fill: none; stroke: #000000; stroke-linecap: square"/>
   </g>
   <g id="line2d_28">
    <defs>
     <path id="mf4ba3e13bc" d="M 0 3 
C 0.795609 3 1.55874 2.683901 2.12132 2.12132 
C 2.683901 1.55874 3 0.795609 3 0 
C 3 -0.795609 2.683901 -1.55874 2.12132 -2.12132 
C 1.55874 -2.683901 0.795609 -3 0 -3 
C -0.795609 -3 -1.55874 -2.683901 -2.12132 -2.12132 
C -2.683901 -1.55874 -3 -0.795609 -3 0 
C -3 0.795609 -2.683901 1.55874 -2.12132 2.12132 
C -1.55874 2.683901 -0.795609 3 0 3 
z
" style="stroke: #000000"/>
    </defs>
    <g clip-path="url(#p45c11ae244)">
     <use xlink:href="#mf4ba3e13bc" x="207.581172" y="55.846149" style="fill-opacity: 0; stroke: #000000"/>
    </g>
   </g>
   <g id="patch_5">
    <path d="M 293.977566 134.394323 
L 344.143215 134.394323 
L 344.143215 87.673552 
L 293.977566 87.673552 
L 293.977566 134.394323 
z
" clip-path="url(#p45c11ae244)" style="fill: #dce9f6; stroke: #000000; stroke-linejoin: miter"/>
   </g>
   <g id="line2d_29">
    <path d="M 319.060391 134.394323 
L 319.060391 184.212779 
" clip-path="url(#p45c11ae244)" style="fill: none; stroke: #000000; stroke-linecap: square"/>
   </g>
   <g id="line2d_30">
    <path d="M 319.060391 87.673552 
L 319.060391 38.168363 
" clip-path="url(#p45c11ae244)" style="fill: none; stroke: #000000; stroke-linecap: square"/>
   </g>
   <g id="line2d_31">
    <path d="M 306.518979 184.212779 
L 331.601803 184.212779 
" clip-path="url(#p45c11ae244)" style="fill: none; stroke: #000000; stroke-linecap: square"/>
   </g>
   <g id="line2d_32">
    <path d="M 306.518979 38.168363 
L 331.601803 38.168363 
" clip-path="url(#p45c11ae244)" style="fill: none; stroke: #000000; stroke-linecap: square"/>
   </g>
   <g id="line2d_33"/>
   <g id="line2d_34">
    <path d="M 71.019129 157.571892 
L 121.184777 157.571892 
" clip-path="url(#p45c11ae244)" style="fill: none; stroke: #ff7f0e"/>
   </g>
   <g id="line2d_35">
    <path d="M 182.498348 123.285907 
L 232.663996 123.285907 
" clip-path="url(#p45c11ae244)" style="fill: none; stroke: #ff7f0e"/>
   </g>
   <g id="line2d_36">
    <path d="M 293.977566 114.445443 
L 344.143215 114.445443 
" clip-path="url(#p45c11ae244)" style="fill: none; stroke: #ff7f0e"/>
   </g>
   <g id="patch_6">
    <path d="M 40.362344 244.198125 
L 40.362344 28.357422 
" style="fill: none; stroke: #8090a0; stroke-width: 0.8; stroke-linejoin: miter; stroke-linecap: square"/>
   </g>
   <g id="patch_7">
    <path d="M 40.362344 244.198125 
L 374.8 244.198125 
" style="fill: none; stroke: #8090a0; stroke-width: 0.8; stroke-linejoin: miter; stroke-linecap: square"/>
   </g>
   <g id="text_11">
    <!-- Box plot with jitter -->
    <g transform="translate(40.362344 22.357422) scale(0.11 -0.11)">
     <defs>
      <path id="DejaVuSans-Bold-25" d="M 2456 2859 
Q 2741 2859 2887 2984 
Q 3034 3109 3034 3353 
Q 3034 3594 2887 3720 
Q 2741 3847 2456 3847 
L 1791 3847 
L 1791 2859 
L 2456 2859 
z
M 2497 819 
Q 2859 819 3042 972 
Q 3225 1125 3225 1434 
Q 3225 1738 3044 1889 
Q 2863 2041 2497 2041 
L 1791 2041 
L 1791 819 
L 2497 819 
z
M 3616 2497 
Q 4003 2384 4215 2081 
Q 4428 1778 4428 1338 
Q 4428 663 3972 331 
Q 3516 0 2584 0 
L 588 0 
L 588 4666 
L 2394 4666 
Q 3366 4666 3802 4372 
Q 4238 4078 4238 3431 
Q 4238 3091 4078 2852 
Q 3919 2613 3616 2497 
z
" transform="scale(0.015625)"/>
      <path id="DejaVuSans-Bold-52" d="M 2203 2784 
Q 1831 2784 1636 2517 
Q 1441 2250 1441 1747 
Q 1441 1244 1636 976 
Q 1831 709 2203 709 
Q 2569 709 2762 976 
Q 2956 1244 2956 1747 
Q 2956 2250 2762 2517 
Q 2569 2784 2203 2784 
z
M 2203 3584 
Q 3106 3584 3614 3096 
Q 4122 2609 4122 1747 
Q 4122 884 3614 396 
Q 3106 -91 2203 -91 
Q 1297 -91 786 396 
Q 275 884 275 1747 
Q 275 2609 786 3096 
Q 1297 3584 2203 3584 
z
" transform="scale(0.015625)"/>
      <path id="DejaVuSans-Bold-5b" d="M 1422 1791 
L 159 3500 
L 1344 3500 
L 2059 2463 
L 2784 3500 
L 3969 3500 
L 2706 1797 
L 4031 0 
L 2847 0 
L 2059 1106 
L 1281 0 
L 97 0 
L 1422 1791 
z
" transform="scale(0.015625)"/>
      <path id="DejaVuSans-Bold-3" transform="scale(0.015625)"/>
      <path id="DejaVuSans-Bold-53" d="M 1656 506 
L 1656 -1331 
L 538 -1331 
L 538 3500 
L 1656 3500 
L 1656 2988 
Q 1888 3294 2169 3439 
Q 2450 3584 2816 3584 
Q 3463 3584 3878 3070 
Q 4294 2556 4294 1747 
Q 4294 938 3878 423 
Q 3463 -91 2816 -91 
Q 2450 -91 2169 54 
Q 1888 200 1656 506 
z
M 2400 2772 
Q 2041 2772 1848 2508 
Q 1656 2244 1656 1747 
Q 1656 1250 1848 986 
Q 2041 722 2400 722 
Q 2759 722 2948 984 
Q 3138 1247 3138 1747 
Q 3138 2247 2948 2509 
Q 2759 2772 2400 2772 
z
" transform="scale(0.015625)"/>
      <path id="DejaVuSans-Bold-4f" d="M 538 4863 
L 1656 4863 
L 1656 0 
L 538 0 
L 538 4863 
z
" transform="scale(0.015625)"/>
      <path id="DejaVuSans-Bold-57" d="M 1759 4494 
L 1759 3500 
L 2913 3500 
L 2913 2700 
L 1759 2700 
L 1759 1216 
Q 1759 972 1856 886 
Q 1953 800 2241 800 
L 2816 800 
L 2816 0 
L 1856 0 
Q 1194 0 917 276 
Q 641 553 641 1216 
L 641 2700 
L 84 2700 
L 84 3500 
L 641 3500 
L 641 4494 
L 1759 4494 
z
" transform="scale(0.015625)"/>
      <path id="DejaVuSans-Bold-5a" d="M 225 3500 
L 1313 3500 
L 1900 1088 
L 2491 3500 
L 3425 3500 
L 4013 1113 
L 4603 3500 
L 5691 3500 
L 4769 0 
L 3547 0 
L 2956 2406 
L 2369 0 
L 1147 0 
L 225 3500 
z
" transform="scale(0.015625)"/>
      <path id="DejaVuSans-Bold-4c" d="M 538 3500 
L 1656 3500 
L 1656 0 
L 538 0 
L 538 3500 
z
M 538 4863 
L 1656 4863 
L 1656 3950 
L 538 3950 
L 538 4863 
z
" transform="scale(0.015625)"/>
      <path id="DejaVuSans-Bold-4b" d="M 4056 2131 
L 4056 0 
L 2931 0 
L 2931 347 
L 2931 1625 
Q 2931 2084 2911 2256 
Q 2891 2428 2841 2509 
Q 2775 2619 2662 2680 
Q 2550 2741 2406 2741 
Q 2056 2741 1856 2470 
Q 1656 2200 1656 1722 
L 1656 0 
L 538 0 
L 538 4863 
L 1656 4863 
L 1656 2988 
Q 1909 3294 2193 3439 
Q 2478 3584 2822 3584 
Q 3428 3584 3742 3212 
Q 4056 2841 4056 2131 
z
" transform="scale(0.015625)"/>
      <path id="DejaVuSans-Bold-4d" d="M 538 3500 
L 1656 3500 
L 1656 63 
Q 1656 -641 1318 -1011 
Q 981 -1381 341 -1381 
L -213 -1381 
L -213 -647 
L -19 -647 
Q 300 -647 419 -503 
Q 538 -359 538 63 
L 538 3500 
z
M 538 4863 
L 1656 4863 
L 1656 3950 
L 538 3950 
L 538 4863 
z
" transform="scale(0.015625)"/>
      <path id="DejaVuSans-Bold-48" d="M 4031 1759 
L 4031 1441 
L 1416 1441 
Q 1456 1047 1700 850 
Q 1944 653 2381 653 
Q 2734 653 3104 758 
Q 3475 863 3866 1075 
L 3866 213 
Q 3469 63 3072 -14 
Q 2675 -91 2278 -91 
Q 1328 -91 801 392 
Q 275 875 275 1747 
Q 275 2603 792 3093 
Q 1309 3584 2216 3584 
Q 3041 3584 3536 3087 
Q 4031 2591 4031 1759 
z
M 2881 2131 
Q 2881 2450 2695 2645 
Q 2509 2841 2209 2841 
Q 1884 2841 1681 2658 
Q 1478 2475 1428 2131 
L 2881 2131 
z
" transform="scale(0.015625)"/>
      <path id="DejaVuSans-Bold-55" d="M 3138 2547 
Q 2991 2616 2845 2648 
Q 2700 2681 2553 2681 
Q 2122 2681 1889 2404 
Q 1656 2128 1656 1613 
L 1656 0 
L 538 0 
L 538 3500 
L 1656 3500 
L 1656 2925 
Q 1872 3269 2151 3426 
Q 2431 3584 2822 3584 
Q 2878 3584 2943 3579 
Q 3009 3575 3134 3559 
L 3138 2547 
z
" transform="scale(0.015625)"/>
     </defs>
     <use xlink:href="#DejaVuSans-Bold-25"/>
     <use xlink:href="#DejaVuSans-Bold-52" transform="translate(76.21875 0)"/>
     <use xlink:href="#DejaVuSans-Bold-5b" transform="translate(144.921875 0)"/>
     <use xlink:href="#DejaVuSans-Bold-3" transform="translate(209.421875 0)"/>
     <use xlink:href="#DejaVuSans-Bold-53" transform="translate(244.234375 0)"/>
     <use xlink:href="#DejaVuSans-Bold-4f" transform="translate(315.8125 0)"/>
     <use xlink:href="#DejaVuSans-Bold-52" transform="translate(350.09375 0)"/>
     <use xlink:href="#DejaVuSans-Bold-57" transform="translate(418.796875 0)"/>
     <use xlink:href="#DejaVuSans-Bold-3" transform="translate(466.59375 0)"/>
     <use xlink:href="#DejaVuSans-Bold-5a" transform="translate(501.40625 0)"/>
     <use xlink:href="#DejaVuSans-Bold-4c" transform="translate(593.796875 0)"/>
     <use xlink:href="#DejaVuSans-Bold-57" transform="translate(628.078125 0)"/>
     <use xlink:href="#DejaVuSans-Bold-4b" transform="translate(675.875 0)"/>
     <use xlink:href="#DejaVuSans-Bold-3" transform="translate(747.0625 0)"/>
     <use xlink:href="#DejaVuSans-Bold-4d" transform="translate(781.875 0)"/>
     <use xlink:href="#DejaVuSans-Bold-4c" transform="translate(816.15625 0)"/>
     <use xlink:href="#DejaVuSans-Bold-57" transform="translate(850.4375 0)"/>
     <use xlink:href="#DejaVuSans-Bold-57" transform="translate(898.234375 0)"/>
     <use xlink:href="#DejaVuSans-Bold-48" transform="translate(946.03125 0)"/>
     <use xlink:href="#DejaVuSans-Bold-55" transform="translate(1013.859375 0)"/>
    </g>
   </g>
  </g>
 </g>
 <defs>
  <clipPath id="p45c11ae244">
   <rect x="40.362344" y="28.357422" width="334.437656" height="215.840703"/>
  </clipPath>
 </defs>
</svg>
