<?xml version="1.0" encoding="utf-8" standalone="no"?>
<!DOCTYPE svg PUBLIC "-//W3C//DTD SVG 1.1//EN"
  "http://www.w3.org/Graphics/SVG/1.1/DTD/svg11.dtd">
<svg xmlns:xlink="http://www.w3.org/1999/xlink" width="446.4pt" height="259.2pt" viewBox="0 0 446.4 259.2" xmlns="http://www.w3.org/2000/svg" version="1.1">
 <metadata>
  <rdf:RDF xmlns:dc="http://purl.org/dc/elements/1.1/" xmlns:cc="http://creativecommons.org/ns#" xmlns:rdf="http://www.w3.org/1999/02/22-rdf-syntax-ns#">
   <cc:Work>
    <dc:type rdf:resource="http://purl.org/dc/dcmitype/StillImage"/>
    <dc:date>2026-06-30T10:15:44.572381</dc:date>
    <dc:format>image/svg+xml</dc:format>
    <dc:creator>
     <cc:Agent>
      <dc:title>python-plotting-skill clean-room renderer</dc:title>
     </cc:Agent>
    </dc:creator>
   </cc:Work>
  </rdf:RDF>
 </metadata>
 <defs>
  <style type="text/css">*{stroke-linejoin: round; stroke-linecap: butt}</style>
 </defs>
 <g id="figure_1">
  <g id="patch_1">
   <path d="M 0 259.2 
L 446.4 259.2 
L 446.4 0 
L 0 0 
z
" style="fill: #ffffff"/>
  </g>
  <g id="axes_1">
   <g id="patch_2">
    <path d="M 47.96 215.877656 
L 432.4 215.877656 
L 432.4 28.357422 
L 47.96 28.357422 
z
" style="fill: #ffffff"/>
   </g>
   <g id="matplotlib.axis_1">
    <g id="xtick_1">
     <g id="line2d_1">
      <path d="M 65.434545 215.877656 
L 65.434545 28.357422 
" clip-path="url(#p2ef3ba8dcd)" style="fill: none; stroke: #d9dee7; stroke-opacity: 0.75; stroke-width: 0.7; stroke-linecap: square"/>
     </g>
     <g id="line2d_2">
      <defs>
       <path id="m45fcac9e46" d="M 0 0 
L 0 3.5 
" style="stroke: #324052; stroke-width: 0.8"/>
      </defs>
      <g>
       <use xlink:href="#m45fcac9e46" x="65.434545" y="215.877656" style="fill: #324052; stroke: #324052; stroke-width: 0.8"/>
      </g>
     </g>
     <g id="text_1">
      <!-- 0 -->
      <g style="fill: #324052" transform="translate(62.889545 228.955781) scale(0.08 -0.08)">
       <defs>
        <path id="DejaVuSans-13" d="M 2034 4250 
Q 1547 4250 1301 3770 
Q 1056 3291 1056 2328 
Q 1056 1369 1301 889 
Q 1547 409 2034 409 
Q 2525 409 2770 889 
Q 3016 1369 3016 2328 
Q 3016 3291 2770 3770 
Q 2525 4250 2034 4250 
z
M 2034 4750 
Q 2819 4750 3233 4129 
Q 3647 3509 3647 2328 
Q 3647 1150 3233 529 
Q 2819 -91 2034 -91 
Q 1250 -91 836 529 
Q 422 1150 422 2328 
Q 422 3509 836 4129 
Q 1250 4750 2034 4750 
z
" transform="scale(0.015625)"/>
       </defs>
       <use xlink:href="#DejaVuSans-13"/>
      </g>
     </g>
    </g>
    <g id="xtick_2">
     <g id="line2d_3">
      <path d="M 135.332727 215.877656 
L 135.332727 28.357422 
" clip-path="url(#p2ef3ba8dcd)" style="fill: none; stroke: #d9dee7; stroke-opacity: 0.75; stroke-width: 0.7; stroke-linecap: square"/>
     </g>
     <g id="line2d_4">
      <g>
       <use xlink:href="#m45fcac9e46" x="135.332727" y="215.877656" style="fill: #324052; stroke: #324052; stroke-width: 0.8"/>
      </g>
     </g>
     <g id="text_2">
      <!-- 2 -->
      <g style="fill: #324052" transform="translate(132.787727 228.955781) scale(0.08 -0.08)">
       <defs>
        <path id="DejaVuSans-15" d="M 1228 531 
L 3431 531 
L 3431 0 
L 469 0 
L 469 531 
Q 828 903 1448 1529 
Q 2069 2156 2228 2338 
Q 2531 2678 2651 2914 
Q 2772 3150 2772 3378 
Q 2772 3750 2511 3984 
Q 2250 4219 1831 4219 
Q 1534 4219 1204 4116 
Q 875 4013 500 3803 
L 500 4441 
Q 881 4594 1212 4672 
Q 1544 4750 1819 4750 
Q 2544 4750 2975 4387 
Q 3406 4025 3406 3419 
Q 3406 3131 3298 2873 
Q 3191 2616 2906 2266 
Q 2828 2175 2409 1742 
Q 1991 1309 1228 531 
z
" transform="scale(0.015625)"/>
       </defs>
       <use xlink:href="#DejaVuSans-15"/>
      </g>
     </g>
    </g>
    <g id="xtick_3">
     <g id="line2d_5">
      <path d="M 205.230909 215.877656 
L 205.230909 28.357422 
" clip-path="url(#p2ef3ba8dcd)" style="fill: none; stroke: #d9dee7; stroke-opacity: 0.75; stroke-width: 0.7; stroke-linecap: square"/>
     </g>
     <g id="line2d_6">
      <g>
       <use xlink:href="#m45fcac9e46" x="205.230909" y="215.877656" style="fill: #324052; stroke: #324052; stroke-width: 0.8"/>
      </g>
     </g>
     <g id="text_3">
      <!-- 4 -->
      <g style="fill: #324052" transform="translate(202.685909 228.955781) scale(0.08 -0.08)">
       <defs>
        <path id="DejaVuSans-17" d="M 2419 4116 
L 825 1625 
L 2419 1625 
L 2419 4116 
z
M 2253 4666 
L 3047 4666 
L 3047 1625 
L 3713 1625 
L 3713 1100 
L 3047 1100 
L 3047 0 
L 2419 0 
L 2419 1100 
L 313 1100 
L 313 1709 
L 2253 4666 
z
" transform="scale(0.015625)"/>
       </defs>
       <use xlink:href="#DejaVuSans-17"/>
      </g>
     </g>
    </g>
    <g id="xtick_4">
     <g id="line2d_7">
      <path d="M 275.129091 215.877656 
L 275.129091 28.357422 
" clip-path="url(#p2ef3ba8dcd)" style="fill: none; stroke: #d9dee7; stroke-opacity: 0.75; stroke-width: 0.7; stroke-linecap: square"/>
     </g>
     <g id="line2d_8">
      <g>
       <use xlink:href="#m45fcac9e46" x="275.129091" y="215.877656" style="fill: #324052; stroke: #324052; stroke-width: 0.8"/>
      </g>
     </g>
     <g id="text_4">
      <!-- 6 -->
      <g style="fill: #324052" transform="translate(272.584091 228.955781) scale(0.08 -0.08)">
       <defs>
        <path id="DejaVuSans-19" d="M 2113 2584 
Q 1688 2584 1439 2293 
Q 1191 2003 1191 1497 
Q 1191 994 1439 701 
Q 1688 409 2113 409 
Q 2538 409 2786 701 
Q 3034 994 3034 1497 
Q 3034 2003 2786 2293 
Q 2538 2584 2113 2584 
z
M 3366 4563 
L 3366 3988 
Q 3128 4100 2886 4159 
Q 2644 4219 2406 4219 
Q 1781 4219 1451 3797 
Q 1122 3375 1075 2522 
Q 1259 2794 1537 2939 
Q 1816 3084 2150 3084 
Q 2853 3084 3261 2657 
Q 3669 2231 3669 1497 
Q 3669 778 3244 343 
Q 2819 -91 2113 -91 
Q 1303 -91 875 529 
Q 447 1150 447 2328 
Q 447 3434 972 4092 
Q 1497 4750 2381 4750 
Q 2619 4750 2861 4703 
Q 3103 4656 3366 4563 
z
" transform="scale(0.015625)"/>
       </defs>
       <use xlink:href="#DejaVuSans-19"/>
      </g>
     </g>
    </g>
    <g id="xtick_5">
     <g id="line2d_9">
      <path d="M 345.027273 215.877656 
L 345.027273 28.357422 
" clip-path="url(#p2ef3ba8dcd)" style="fill: none; stroke: #d9dee7; stroke-opacity: 0.75; stroke-width: 0.7; stroke-linecap: square"/>
     </g>
     <g id="line2d_10">
      <g>
       <use xlink:href="#m45fcac9e46" x="345.027273" y="215.877656" style="fill: #324052; stroke: #324052; stroke-width: 0.8"/>
      </g>
     </g>
     <g id="text_5">
      <!-- 8 -->
      <g style="fill: #324052" transform="translate(342.482273 228.955781) scale(0.08 -0.08)">
       <defs>
        <path id="DejaVuSans-1b" d="M 2034 2216 
Q 1584 2216 1326 1975 
Q 1069 1734 1069 1313 
Q 1069 891 1326 650 
Q 1584 409 2034 409 
Q 2484 409 2743 651 
Q 3003 894 3003 1313 
Q 3003 1734 2745 1975 
Q 2488 2216 2034 2216 
z
M 1403 2484 
Q 997 2584 770 2862 
Q 544 3141 544 3541 
Q 544 4100 942 4425 
Q 1341 4750 2034 4750 
Q 2731 4750 3128 4425 
Q 3525 4100 3525 3541 
Q 3525 3141 3298 2862 
Q 3072 2584 2669 2484 
Q 3125 2378 3379 2068 
Q 3634 1759 3634 1313 
Q 3634 634 3220 271 
Q 2806 -91 2034 -91 
Q 1263 -91 848 271 
Q 434 634 434 1313 
Q 434 1759 690 2068 
Q 947 2378 1403 2484 
z
M 1172 3481 
Q 1172 3119 1398 2916 
Q 1625 2713 2034 2713 
Q 2441 2713 2670 2916 
Q 2900 3119 2900 3481 
Q 2900 3844 2670 4047 
Q 2441 4250 2034 4250 
Q 1625 4250 1398 4047 
Q 1172 3844 1172 3481 
z
" transform="scale(0.015625)"/>
       </defs>
       <use xlink:href="#DejaVuSans-1b"/>
      </g>
     </g>
    </g>
    <g id="xtick_6">
     <g id="line2d_11">
      <path d="M 414.925455 215.877656 
L 414.925455 28.357422 
" clip-path="url(#p2ef3ba8dcd)" style="fill: none; stroke: #d9dee7; stroke-opacity: 0.75; stroke-width: 0.7; stroke-linecap: square"/>
     </g>
     <g id="line2d_12">
      <g>
       <use xlink:href="#m45fcac9e46" x="414.925455" y="215.877656" style="fill: #324052; stroke: #324052; stroke-width: 0.8"/>
      </g>
     </g>
     <g id="text_6">
      <!-- 10 -->
      <g style="fill: #324052" transform="translate(409.835455 228.955781) scale(0.08 -0.08)">
       <defs>
        <path id="DejaVuSans-14" d="M 794 531 
L 1825 531 
L 1825 4091 
L 703 3866 
L 703 4441 
L 1819 4666 
L 2450 4666 
L 2450 531 
L 3481 531 
L 3481 0 
L 794 0 
L 794 531 
z
" transform="scale(0.015625)"/>
       </defs>
       <use xlink:href="#DejaVuSans-14"/>
       <use xlink:href="#DejaVuSans-13" transform="translate(63.625 0)"/>
      </g>
     </g>
    </g>
    <g id="text_7">
     <!-- Distance -->
     <g transform="translate(218.3175 242.476094) scale(0.1 -0.1)">
      <defs>
       <path id="DejaVuSans-27" d="M 1259 4147 
L 1259 519 
L 2022 519 
Q 2988 519 3436 956 
Q 3884 1394 3884 2338 
Q 3884 3275 3436 3711 
Q 2988 4147 2022 4147 
L 1259 4147 
z
M 628 4666 
L 1925 4666 
Q 3281 4666 3915 4102 
Q 4550 3538 4550 2338 
Q 4550 1131 3912 565 
Q 3275 0 1925 0 
L 628 0 
L 628 4666 
z
" transform="scale(0.015625)"/>
       <path id="DejaVuSans-4c" d="M 603 3500 
L 1178 3500 
L 1178 0 
L 603 0 
L 603 3500 
z
M 603 4863 
L 1178 4863 
L 1178 4134 
L 603 4134 
L 603 4863 
z
" transform="scale(0.015625)"/>
       <path id="DejaVuSans-56" d="M 2834 3397 
L 2834 2853 
Q 2591 2978 2328 3040 
Q 2066 3103 1784 3103 
Q 1356 3103 1142 2972 
Q 928 2841 928 2578 
Q 928 2378 1081 2264 
Q 1234 2150 1697 2047 
L 1894 2003 
Q 2506 1872 2764 1633 
Q 3022 1394 3022 966 
Q 3022 478 2636 193 
Q 2250 -91 1575 -91 
Q 1294 -91 989 -36 
Q 684 19 347 128 
L 347 722 
Q 666 556 975 473 
Q 1284 391 1588 391 
Q 1994 391 2212 530 
Q 2431 669 2431 922 
Q 2431 1156 2273 1281 
Q 2116 1406 1581 1522 
L 1381 1569 
Q 847 1681 609 1914 
Q 372 2147 372 2553 
Q 372 3047 722 3315 
Q 1072 3584 1716 3584 
Q 2034 3584 2315 3537 
Q 2597 3491 2834 3397 
z
" transform="scale(0.015625)"/>
       <path id="DejaVuSans-57" d="M 1172 4494 
L 1172 3500 
L 2356 3500 
L 2356 3053 
L 1172 3053 
L 1172 1153 
Q 1172 725 1289 603 
Q 1406 481 1766 481 
L 2356 481 
L 2356 0 
L 1766 0 
Q 1100 0 847 248 
Q 594 497 594 1153 
L 594 3053 
L 172 3053 
L 172 3500 
L 594 3500 
L 594 4494 
L 1172 4494 
z
" transform="scale(0.015625)"/>
       <path id="DejaVuSans-44" d="M 2194 1759 
Q 1497 1759 1228 1600 
Q 959 1441 959 1056 
Q 959 750 1161 570 
Q 1363 391 1709 391 
Q 2188 391 2477 730 
Q 2766 1069 2766 1631 
L 2766 1759 
L 2194 1759 
z
M 3341 1997 
L 3341 0 
L 2766 0 
L 2766 531 
Q 2569 213 2275 61 
Q 1981 -91 1556 -91 
Q 1019 -91 701 211 
Q 384 513 384 1019 
Q 384 1609 779 1909 
Q 1175 2209 1959 2209 
L 2766 2209 
L 2766 2266 
Q 2766 2663 2505 2880 
Q 2244 3097 1772 3097 
Q 1472 3097 1187 3025 
Q 903 2953 641 2809 
L 641 3341 
Q 956 3463 1253 3523 
Q 1550 3584 1831 3584 
Q 2591 3584 2966 3190 
Q 3341 2797 3341 1997 
z
" transform="scale(0.015625)"/>
       <path id="DejaVuSans-51" d="M 3513 2113 
L 3513 0 
L 2938 0 
L 2938 2094 
Q 2938 2591 2744 2837 
Q 2550 3084 2163 3084 
Q 1697 3084 1428 2787 
Q 1159 2491 1159 1978 
L 1159 0 
L 581 0 
L 581 3500 
L 1159 3500 
L 1159 2956 
Q 1366 3272 1645 3428 
Q 1925 3584 2291 3584 
Q 2894 3584 3203 3211 
Q 3513 2838 3513 2113 
z
" transform="scale(0.015625)"/>
       <path id="DejaVuSans-46" d="M 3122 3366 
L 3122 2828 
Q 2878 2963 2633 3030 
Q 2388 3097 2138 3097 
Q 1578 3097 1268 2742 
Q 959 2388 959 1747 
Q 959 1106 1268 751 
Q 1578 397 2138 397 
Q 2388 397 2633 464 
Q 2878 531 3122 666 
L 3122 134 
Q 2881 22 2623 -34 
Q 2366 -91 2075 -91 
Q 1284 -91 818 406 
Q 353 903 353 1747 
Q 353 2603 823 3093 
Q 1294 3584 2113 3584 
Q 2378 3584 2631 3529 
Q 2884 3475 3122 3366 
z
" transform="scale(0.015625)"/>
       <path id="DejaVuSans-48" d="M 3597 1894 
L 3597 1613 
L 953 1613 
Q 991 1019 1311 708 
Q 1631 397 2203 397 
Q 2534 397 2845 478 
Q 3156 559 3463 722 
L 3463 178 
Q 3153 47 2828 -22 
Q 2503 -91 2169 -91 
Q 1331 -91 842 396 
Q 353 884 353 1716 
Q 353 2575 817 3079 
Q 1281 3584 2069 3584 
Q 2775 3584 3186 3129 
Q 3597 2675 3597 1894 
z
M 3022 2063 
Q 3016 2534 2758 2815 
Q 2500 3097 2075 3097 
Q 1594 3097 1305 2825 
Q 1016 2553 972 2059 
L 3022 2063 
z
" transform="scale(0.015625)"/>
      </defs>
      <use xlink:href="#DejaVuSans-27"/>
      <use xlink:href="#DejaVuSans-4c" transform="translate(77 0)"/>
      <use xlink:href="#DejaVuSans-56" transform="translate(104.78125 0)"/>
      <use xlink:href="#DejaVuSans-57" transform="translate(156.875 0)"/>
      <use xlink:href="#DejaVuSans-44" transform="translate(196.078125 0)"/>
      <use xlink:href="#DejaVuSans-51" transform="translate(257.359375 0)"/>
      <use xlink:href="#DejaVuSans-46" transform="translate(320.734375 0)"/>
      <use xlink:href="#DejaVuSans-48" transform="translate(375.71875 0)"/>
     </g>
    </g>
   </g>
   <g id="matplotlib.axis_2">
    <g id="ytick_1">
     <g id="line2d_13">
      <path d="M 47.96 184.492545 
L 432.4 184.492545 
" clip-path="url(#p2ef3ba8dcd)" style="fill: none; stroke: #d9dee7; stroke-opacity: 0.75; stroke-width: 0.7; stroke-linecap: square"/>
     </g>
     <g id="line2d_14">
      <defs>
       <path id="mb4f42975c6" d="M 0 0 
L -3.5 0 
" style="stroke: #324052; stroke-width: 0.8"/>
      </defs>
      <g>
       <use xlink:href="#mb4f42975c6" x="47.96" y="184.492545" style="fill: #324052; stroke: #324052; stroke-width: 0.8"/>
      </g>
     </g>
     <g id="text_8">
      <!-- 0.0 -->
      <g style="fill: #324052" transform="translate(28.2375 187.531608) scale(0.08 -0.08)">
       <defs>
        <path id="DejaVuSans-11" d="M 684 794 
L 1344 794 
L 1344 0 
L 684 0 
L 684 794 
z
" transform="scale(0.015625)"/>
       </defs>
       <use xlink:href="#DejaVuSans-13"/>
       <use xlink:href="#DejaVuSans-11" transform="translate(63.625 0)"/>
       <use xlink:href="#DejaVuSans-13" transform="translate(95.40625 0)"/>
      </g>
     </g>
    </g>
    <g id="ytick_2">
     <g id="line2d_15">
      <path d="M 47.96 150.025934 
L 432.4 150.025934 
" clip-path="url(#p2ef3ba8dcd)" style="fill: none; stroke: #d9dee7; stroke-opacity: 0.75; stroke-width: 0.7; stroke-linecap: square"/>
     </g>
     <g id="line2d_16">
      <g>
       <use xlink:href="#mb4f42975c6" x="47.96" y="150.025934" style="fill: #324052; stroke: #324052; stroke-width: 0.8"/>
      </g>
     </g>
     <g id="text_9">
      <!-- 0.5 -->
      <g style="fill: #324052" transform="translate(28.2375 153.064997) scale(0.08 -0.08)">
       <defs>
        <path id="DejaVuSans-18" d="M 691 4666 
L 3169 4666 
L 3169 4134 
L 1269 4134 
L 1269 2991 
Q 1406 3038 1543 3061 
Q 1681 3084 1819 3084 
Q 2600 3084 3056 2656 
Q 3513 2228 3513 1497 
Q 3513 744 3044 326 
Q 2575 -91 1722 -91 
Q 1428 -91 1123 -41 
Q 819 9 494 109 
L 494 744 
Q 775 591 1075 516 
Q 1375 441 1709 441 
Q 2250 441 2565 725 
Q 2881 1009 2881 1497 
Q 2881 1984 2565 2268 
Q 2250 2553 1709 2553 
Q 1456 2553 1204 2497 
Q 953 2441 691 2322 
L 691 4666 
z
" transform="scale(0.015625)"/>
       </defs>
       <use xlink:href="#DejaVuSans-13"/>
       <use xlink:href="#DejaVuSans-11" transform="translate(63.625 0)"/>
       <use xlink:href="#DejaVuSans-18" transform="translate(95.40625 0)"/>
      </g>
     </g>
    </g>
    <g id="ytick_3">
     <g id="line2d_17">
      <path d="M 47.96 115.559323 
L 432.4 115.559323 
" clip-path="url(#p2ef3ba8dcd)" style="fill: none; stroke: #d9dee7; stroke-opacity: 0.75; stroke-width: 0.7; stroke-linecap: square"/>
     </g>
     <g id="line2d_18">
      <g>
       <use xlink:href="#mb4f42975c6" x="47.96" y="115.559323" style="fill: #324052; stroke: #324052; stroke-width: 0.8"/>
      </g>
     </g>
     <g id="text_10">
      <!-- 1.0 -->
      <g style="fill: #324052" transform="translate(28.2375 118.598386) scale(0.08 -0.08)">
       <use xlink:href="#DejaVuSans-14"/>
       <use xlink:href="#DejaVuSans-11" transform="translate(63.625 0)"/>
       <use xlink:href="#DejaVuSans-13" transform="translate(95.40625 0)"/>
      </g>
     </g>
    </g>
    <g id="ytick_4">
     <g id="line2d_19">
      <path d="M 47.96 81.092712 
L 432.4 81.092712 
" clip-path="url(#p2ef3ba8dcd)" style="fill: none; stroke: #d9dee7; stroke-opacity: 0.75; stroke-width: 0.7; stroke-linecap: square"/>
     </g>
     <g id="line2d_20">
      <g>
       <use xlink:href="#mb4f42975c6" x="47.96" y="81.092712" style="fill: #324052; stroke: #324052; stroke-width: 0.8"/>
      </g>
     </g>
     <g id="text_11">
      <!-- 1.5 -->
      <g style="fill: #324052" transform="translate(28.2375 84.131775) scale(0.08 -0.08)">
       <use xlink:href="#DejaVuSans-14"/>
       <use xlink:href="#DejaVuSans-11" transform="translate(63.625 0)"/>
       <use xlink:href="#DejaVuSans-18" transform="translate(95.40625 0)"/>
      </g>
     </g>
    </g>
    <g id="ytick_5">
     <g id="line2d_21">
      <path d="M 47.96 46.626101 
L 432.4 46.626101 
" clip-path="url(#p2ef3ba8dcd)" style="fill: none; stroke: #d9dee7; stroke-opacity: 0.75; stroke-width: 0.7; stroke-linecap: square"/>
     </g>
     <g id="line2d_22">
      <g>
       <use xlink:href="#mb4f42975c6" x="47.96" y="46.626101" style="fill: #324052; stroke: #324052; stroke-width: 0.8"/>
      </g>
     </g>
     <g id="text_12">
      <!-- 2.0 -->
      <g style="fill: #324052" transform="translate(28.2375 49.665164) scale(0.08 -0.08)">
       <use xlink:href="#DejaVuSans-15"/>
       <use xlink:href="#DejaVuSans-11" transform="translate(63.625 0)"/>
       <use xlink:href="#DejaVuSans-13" transform="translate(95.40625 0)"/>
      </g>
     </g>
    </g>
    <g id="text_13">
     <!-- Response -->
     <g transform="translate(21.835156 146.132383) rotate(-90) scale(0.1 -0.1)">
      <defs>
       <path id="DejaVuSans-35" d="M 2841 2188 
Q 3044 2119 3236 1894 
Q 3428 1669 3622 1275 
L 4263 0 
L 3584 0 
L 2988 1197 
Q 2756 1666 2539 1819 
Q 2322 1972 1947 1972 
L 1259 1972 
L 1259 0 
L 628 0 
L 628 4666 
L 2053 4666 
Q 2853 4666 3247 4331 
Q 3641 3997 3641 3322 
Q 3641 2881 3436 2590 
Q 3231 2300 2841 2188 
z
M 1259 4147 
L 1259 2491 
L 2053 2491 
Q 2509 2491 2742 2702 
Q 2975 2913 2975 3322 
Q 2975 3731 2742 3939 
Q 2509 4147 2053 4147 
L 1259 4147 
z
" transform="scale(0.015625)"/>
       <path id="DejaVuSans-53" d="M 1159 525 
L 1159 -1331 
L 581 -1331 
L 581 3500 
L 1159 3500 
L 1159 2969 
Q 1341 3281 1617 3432 
Q 1894 3584 2278 3584 
Q 2916 3584 3314 3078 
Q 3713 2572 3713 1747 
Q 3713 922 3314 415 
Q 2916 -91 2278 -91 
Q 1894 -91 1617 61 
Q 1341 213 1159 525 
z
M 3116 1747 
Q 3116 2381 2855 2742 
Q 2594 3103 2138 3103 
Q 1681 3103 1420 2742 
Q 1159 2381 1159 1747 
Q 1159 1113 1420 752 
Q 1681 391 2138 391 
Q 2594 391 2855 752 
Q 3116 1113 3116 1747 
z
" transform="scale(0.015625)"/>
       <path id="DejaVuSans-52" d="M 1959 3097 
Q 1497 3097 1228 2736 
Q 959 2375 959 1747 
Q 959 1119 1226 758 
Q 1494 397 1959 397 
Q 2419 397 2687 759 
Q 2956 1122 2956 1747 
Q 2956 2369 2687 2733 
Q 2419 3097 1959 3097 
z
M 1959 3584 
Q 2709 3584 3137 3096 
Q 3566 2609 3566 1747 
Q 3566 888 3137 398 
Q 2709 -91 1959 -91 
Q 1206 -91 779 398 
Q 353 888 353 1747 
Q 353 2609 779 3096 
Q 1206 3584 1959 3584 
z
" transform="scale(0.015625)"/>
      </defs>
      <use xlink:href="#DejaVuSans-35"/>
      <use xlink:href="#DejaVuSans-48" transform="translate(65 0)"/>
      <use xlink:href="#DejaVuSans-56" transform="translate(126.53125 0)"/>
      <use xlink:href="#DejaVuSans-53" transform="translate(178.625 0)"/>
      <use xlink:href="#DejaVuSans-52" transform="translate(242.109375 0)"/>
      <use xlink:href="#DejaVuSans-51" transform="translate(303.296875 0)"/>
      <use xlink:href="#DejaVuSans-56" transform="translate(366.671875 0)"/>
      <use xlink:href="#DejaVuSans-48" transform="translate(418.765625 0)"/>
     </g>
    </g>
   </g>
   <g id="line2d_23">
    <path d="M 65.434545 184.492545 
L 72.746071 164.07502 
L 77.132986 152.331115 
L 81.519901 141.275324 
L 84.444511 134.403191 
L 87.369121 128.004842 
L 90.293731 122.13887 
L 93.218342 116.858049 
L 96.142952 112.208758 
L 99.067562 108.230471 
L 100.529867 106.503294 
L 101.992172 104.955326 
L 103.454477 103.589381 
L 104.916782 102.407776 
L 106.379087 101.412321 
L 107.841392 100.604319 
L 109.303697 99.984559 
L 110.766002 99.553319 
L 112.228307 99.310355 
L 113.690612 99.254914 
L 115.152917 99.385728 
L 116.615223 99.701018 
L 118.077528 100.198502 
L 119.539833 100.875401 
L 121.002138 101.728443 
L 122.464443 102.753875 
L 123.926748 103.947474 
L 125.389053 105.304555 
L 128.313663 108.488206 
L 131.238273 112.258676 
L 134.162883 116.563396 
L 137.087493 121.343957 
L 140.012103 126.536748 
L 144.399019 134.948814 
L 148.785934 143.889318 
L 161.946679 171.275555 
L 166.333595 179.716676 
L 169.258205 184.934793 
L 172.182815 189.745126 
L 175.107425 194.08374 
L 178.032035 197.891856 
L 180.956645 201.116494 
L 182.41895 202.495182 
L 183.881255 203.711052 
L 185.34356 204.759359 
L 186.805865 205.635815 
L 188.26817 206.336603 
L 189.730475 206.858384 
L 191.192781 207.198306 
L 192.655086 207.354009 
L 194.117391 207.323625 
L 195.579696 207.105775 
L 197.042001 206.699551 
L 198.504306 206.104487 
L 199.966611 205.320505 
L 201.428916 204.347817 
L 202.891221 203.186775 
L 204.353526 201.837633 
L 205.815831 200.300192 
L 207.278136 198.573289 
L 208.740441 196.654093 
L 210.202746 194.537183 
L 211.665051 192.213399 
L 213.127356 189.668506 
L 214.589661 186.881773 
L 216.051967 183.82465 
L 217.514272 180.459824 
L 218.976577 176.741019 
L 220.438882 172.613978 
L 221.901187 168.019043 
L 223.363492 162.895687 
L 224.825797 157.18911 
L 226.288102 150.858726 
L 227.750407 143.887922 
L 230.675017 128.137215 
L 233.599627 110.619852 
L 236.524237 92.775636 
L 237.986542 84.336805 
L 239.448847 76.563455 
L 240.911153 69.687505 
L 242.373458 63.893573 
L 243.835763 59.300612 
L 245.298068 55.950094 
L 246.760373 53.802517 
L 248.222678 52.742771 
L 249.684983 52.593524 
L 251.147288 53.134646 
L 252.609593 54.125846 
L 255.534203 56.530354 
L 256.996508 57.551358 
L 258.458813 58.262102 
L 259.921118 58.58203 
L 261.383423 58.47777 
L 262.845728 57.956386 
L 264.308033 57.056151 
L 265.770339 55.836449 
L 267.232644 54.368186 
L 270.157254 50.980272 
L 274.544169 45.726171 
L 277.468779 42.641824 
L 278.931084 41.309379 
L 280.393389 40.138263 
L 281.855694 39.138733 
L 283.317999 38.317683 
L 284.780304 37.679508 
L 286.242609 37.226751 
L 287.704914 36.960573 
L 289.167219 36.881069 
L 290.629525 36.987489 
L 292.09183 37.278374 
L 293.554135 37.751644 
L 295.01644 38.404658 
L 296.478745 39.234248 
L 297.94105 40.236744 
L 299.403355 41.407993 
L 300.86566 42.743377 
L 303.79027 45.885835 
L 306.71488 49.618421 
L 309.63949 53.888981 
L 312.5641 58.639482 
L 315.488711 63.80664 
L 319.875626 72.189156 
L 324.262541 81.111417 
L 338.885591 111.405694 
L 343.272507 119.651257 
L 346.197117 124.701056 
L 349.121727 129.314814 
L 352.046337 133.430745 
L 354.970947 136.992503 
L 357.895557 139.949802 
L 359.357862 141.187858 
L 360.820167 142.258963 
L 362.282472 143.158767 
L 363.744777 143.883391 
L 365.207083 144.429433 
L 366.669388 144.79398 
L 368.131693 144.974614 
L 369.593998 144.969423 
L 371.056303 144.777 
L 372.518608 144.396452 
L 373.980913 143.8274 
L 375.443218 143.06998 
L 376.905523 142.124844 
L 378.367828 140.993157 
L 379.830133 139.676594 
L 381.292438 138.177335 
L 382.754743 136.498062 
L 385.679353 132.612645 
L 388.603963 128.051466 
L 391.528574 122.853036 
L 394.453184 117.062832 
L 397.377794 110.7328 
L 400.302404 103.920788 
L 404.689319 92.938395 
L 409.076234 81.246187 
L 414.925455 64.984528 
L 414.925455 64.984528 
" clip-path="url(#p2ef3ba8dcd)" style="fill: none; stroke: #2455a4; stroke-width: 1.9; stroke-linecap: square"/>
   </g>
   <g id="patch_3">
    <path d="M 47.96 215.877656 
L 47.96 28.357422 
" style="fill: none; stroke: #8090a0; stroke-width: 0.8; stroke-linejoin: miter; stroke-linecap: square"/>
   </g>
   <g id="patch_4">
    <path d="M 47.96 215.877656 
L 432.4 215.877656 
" style="fill: none; stroke: #8090a0; stroke-width: 0.8; stroke-linejoin: miter; stroke-linecap: square"/>
   </g>
   <g id="text_14">
    <!-- Main plot with inset -->
    <g transform="translate(47.96 22.357422) scale(0.11 -0.11)">
     <defs>
      <path id="DejaVuSans-Bold-30" d="M 588 4666 
L 2119 4666 
L 3181 2169 
L 4250 4666 
L 5778 4666 
L 5778 0 
L 4641 0 
L 4641 3413 
L 3566 897 
L 2803 897 
L 1728 3413 
L 1728 0 
L 588 0 
L 588 4666 
z
" transform="scale(0.015625)"/>
      <path id="DejaVuSans-Bold-44" d="M 2106 1575 
Q 1756 1575 1579 1456 
Q 1403 1338 1403 1106 
Q 1403 894 1545 773 
Q 1688 653 1941 653 
Q 2256 653 2472 879 
Q 2688 1106 2688 1447 
L 2688 1575 
L 2106 1575 
z
M 3816 1997 
L 3816 0 
L 2688 0 
L 2688 519 
Q 2463 200 2181 54 
Q 1900 -91 1497 -91 
Q 953 -91 614 226 
Q 275 544 275 1050 
Q 275 1666 698 1953 
Q 1122 2241 2028 2241 
L 2688 2241 
L 2688 2328 
Q 2688 2594 2478 2717 
Q 2269 2841 1825 2841 
Q 1466 2841 1156 2769 
Q 847 2697 581 2553 
L 581 3406 
Q 941 3494 1303 3539 
Q 1666 3584 2028 3584 
Q 2975 3584 3395 3211 
Q 3816 2838 3816 1997 
z
" transform="scale(0.015625)"/>
      <path id="DejaVuSans-Bold-4c" d="M 538 3500 
L 1656 3500 
L 1656 0 
L 538 0 
L 538 3500 
z
M 538 4863 
L 1656 4863 
L 1656 3950 
L 538 3950 
L 538 4863 
z
" transform="scale(0.015625)"/>
      <path id="DejaVuSans-Bold-51" d="M 4056 2131 
L 4056 0 
L 2931 0 
L 2931 347 
L 2931 1631 
Q 2931 2084 2911 2256 
Q 2891 2428 2841 2509 
Q 2775 2619 2662 2680 
Q 2550 2741 2406 2741 
Q 2056 2741 1856 2470 
Q 1656 2200 1656 1722 
L 1656 0 
L 538 0 
L 538 3500 
L 1656 3500 
L 1656 2988 
Q 1909 3294 2193 3439 
Q 2478 3584 2822 3584 
Q 3428 3584 3742 3212 
Q 4056 2841 4056 2131 
z
" transform="scale(0.015625)"/>
      <path id="DejaVuSans-Bold-3" transform="scale(0.015625)"/>
      <path id="DejaVuSans-Bold-53" d="M 1656 506 
L 1656 -1331 
L 538 -1331 
L 538 3500 
L 1656 3500 
L 1656 2988 
Q 1888 3294 2169 3439 
Q 2450 3584 2816 3584 
Q 3463 3584 3878 3070 
Q 4294 2556 4294 1747 
Q 4294 938 3878 423 
Q 3463 -91 2816 -91 
Q 2450 -91 2169 54 
Q 1888 200 1656 506 
z
M 2400 2772 
Q 2041 2772 1848 2508 
Q 1656 2244 1656 1747 
Q 1656 1250 1848 986 
Q 2041 722 2400 722 
Q 2759 722 2948 984 
Q 3138 1247 3138 1747 
Q 3138 2247 2948 2509 
Q 2759 2772 2400 2772 
z
" transform="scale(0.015625)"/>
      <path id="DejaVuSans-Bold-4f" d="M 538 4863 
L 1656 4863 
L 1656 0 
L 538 0 
L 538 4863 
z
" transform="scale(0.015625)"/>
      <path id="DejaVuSans-Bold-52" d="M 2203 2784 
Q 1831 2784 1636 2517 
Q 1441 2250 1441 1747 
Q 1441 1244 1636 976 
Q 1831 709 2203 709 
Q 2569 709 2762 976 
Q 2956 1244 2956 1747 
Q 2956 2250 2762 2517 
Q 2569 2784 2203 2784 
z
M 2203 3584 
Q 3106 3584 3614 3096 
Q 4122 2609 4122 1747 
Q 4122 884 3614 396 
Q 3106 -91 2203 -91 
Q 1297 -91 786 396 
Q 275 884 275 1747 
Q 275 2609 786 3096 
Q 1297 3584 2203 3584 
z
" transform="scale(0.015625)"/>
      <path id="DejaVuSans-Bold-57" d="M 1759 4494 
L 1759 3500 
L 2913 3500 
L 2913 2700 
L 1759 2700 
L 1759 1216 
Q 1759 972 1856 886 
Q 1953 800 2241 800 
L 2816 800 
L 2816 0 
L 1856 0 
Q 1194 0 917 276 
Q 641 553 641 1216 
L 641 2700 
L 84 2700 
L 84 3500 
L 641 3500 
L 641 4494 
L 1759 4494 
z
" transform="scale(0.015625)"/>
      <path id="DejaVuSans-Bold-5a" d="M 225 3500 
L 1313 3500 
L 1900 1088 
L 2491 3500 
L 3425 3500 
L 4013 1113 
L 4603 3500 
L 5691 3500 
L 4769 0 
L 3547 0 
L 2956 2406 
L 2369 0 
L 1147 0 
L 225 3500 
z
" transform="scale(0.015625)"/>
      <path id="DejaVuSans-Bold-4b" d="M 4056 2131 
L 4056 0 
L 2931 0 
L 2931 347 
L 2931 1625 
Q 2931 2084 2911 2256 
Q 2891 2428 2841 2509 
Q 2775 2619 2662 2680 
Q 2550 2741 2406 2741 
Q 2056 2741 1856 2470 
Q 1656 2200 1656 1722 
L 1656 0 
L 538 0 
L 538 4863 
L 1656 4863 
L 1656 2988 
Q 1909 3294 2193 3439 
Q 2478 3584 2822 3584 
Q 3428 3584 3742 3212 
Q 4056 2841 4056 2131 
z
" transform="scale(0.015625)"/>
      <path id="DejaVuSans-Bold-56" d="M 3272 3391 
L 3272 2541 
Q 2913 2691 2578 2766 
Q 2244 2841 1947 2841 
Q 1628 2841 1473 2761 
Q 1319 2681 1319 2516 
Q 1319 2381 1436 2309 
Q 1553 2238 1856 2203 
L 2053 2175 
Q 2913 2066 3209 1816 
Q 3506 1566 3506 1031 
Q 3506 472 3093 190 
Q 2681 -91 1863 -91 
Q 1516 -91 1145 -36 
Q 775 19 384 128 
L 384 978 
Q 719 816 1070 734 
Q 1422 653 1784 653 
Q 2113 653 2278 743 
Q 2444 834 2444 1013 
Q 2444 1163 2330 1236 
Q 2216 1309 1875 1350 
L 1678 1375 
Q 931 1469 631 1722 
Q 331 1975 331 2491 
Q 331 3047 712 3315 
Q 1094 3584 1881 3584 
Q 2191 3584 2531 3537 
Q 2872 3491 3272 3391 
z
" transform="scale(0.015625)"/>
      <path id="DejaVuSans-Bold-48" d="M 4031 1759 
L 4031 1441 
L 1416 1441 
Q 1456 1047 1700 850 
Q 1944 653 2381 653 
Q 2734 653 3104 758 
Q 3475 863 3866 1075 
L 3866 213 
Q 3469 63 3072 -14 
Q 2675 -91 2278 -91 
Q 1328 -91 801 392 
Q 275 875 275 1747 
Q 275 2603 792 3093 
Q 1309 3584 2216 3584 
Q 3041 3584 3536 3087 
Q 4031 2591 4031 1759 
z
M 2881 2131 
Q 2881 2450 2695 2645 
Q 2509 2841 2209 2841 
Q 1884 2841 1681 2658 
Q 1478 2475 1428 2131 
L 2881 2131 
z
" transform="scale(0.015625)"/>
     </defs>
     <use xlink:href="#DejaVuSans-Bold-30"/>
     <use xlink:href="#DejaVuSans-Bold-44" transform="translate(99.515625 0)"/>
     <use xlink:href="#DejaVuSans-Bold-4c" transform="translate(167 0)"/>
     <use xlink:href="#DejaVuSans-Bold-51" transform="translate(201.28125 0)"/>
     <use xlink:href="#DejaVuSans-Bold-3" transform="translate(272.46875 0)"/>
     <use xlink:href="#DejaVuSans-Bold-53" transform="translate(307.28125 0)"/>
     <use xlink:href="#DejaVuSans-Bold-4f" transform="translate(378.859375 0)"/>
     <use xlink:href="#DejaVuSans-Bold-52" transform="translate(413.140625 0)"/>
     <use xlink:href="#DejaVuSans-Bold-57" transform="translate(481.84375 0)"/>
     <use xlink:href="#DejaVuSans-Bold-3" transform="translate(529.640625 0)"/>
     <use xlink:href="#DejaVuSans-Bold-5a" transform="translate(564.453125 0)"/>
     <use xlink:href="#DejaVuSans-Bold-4c" transform="translate(656.84375 0)"/>
     <use xlink:href="#DejaVuSans-Bold-57" transform="translate(691.125 0)"/>
     <use xlink:href="#DejaVuSans-Bold-4b" transform="translate(738.921875 0)"/>
     <use xlink:href="#DejaVuSans-Bold-3" transform="translate(810.109375 0)"/>
     <use xlink:href="#DejaVuSans-Bold-4c" transform="translate(844.921875 0)"/>
     <use xlink:href="#DejaVuSans-Bold-51" transform="translate(879.203125 0)"/>
     <use xlink:href="#DejaVuSans-Bold-56" transform="translate(950.390625 0)"/>
     <use xlink:href="#DejaVuSans-Bold-48" transform="translate(1009.90625 0)"/>
     <use xlink:href="#DejaVuSans-Bold-57" transform="translate(1077.734375 0)"/>
    </g>
   </g>
   <g id="patch_5">
    <path d="M 222.705455 125.899306 
L 264.644364 125.899306 
L 264.644364 22.499473 
L 222.705455 22.499473 
L 222.705455 125.899306 
z
M 263.2464 122.117539 
Q 242.975927 72.308506 222.705455 22.499473 
M 401.6448 189.624823 
Q 333.144582 157.762065 264.644364 125.899306 
" style="fill: none; opacity: 0.5; stroke: #8b1e3f; stroke-width: 0.8; stroke-linejoin: miter"/>
   </g>
   <g id="axes_2">
    <g id="patch_6">
     <path d="M 263.2464 189.624823 
L 401.6448 189.624823 
L 401.6448 122.117539 
L 263.2464 122.117539 
z
" style="fill: #ffffff"/>
    </g>
    <g id="matplotlib.axis_3">
     <g id="xtick_7">
      <g id="line2d_24">
       <path d="M 263.2464 189.624823 
L 263.2464 122.117539 
" clip-path="url(#pb69dad1c46)" style="fill: none; stroke: #d9dee7; stroke-opacity: 0.75; stroke-width: 0.6; stroke-linecap: square"/>
      </g>
      <g id="line2d_25">
       <g>
        <use xlink:href="#m45fcac9e46" x="263.2464" y="189.624823" style="fill: #324052; stroke: #324052; stroke-width: 0.8"/>
       </g>
      </g>
      <g id="text_15">
       <!-- 4.5 -->
       <g style="fill: #324052" transform="translate(257.680306 201.943183) scale(0.07 -0.07)">
        <use xlink:href="#DejaVuSans-17"/>
        <use xlink:href="#DejaVuSans-11" transform="translate(63.625 0)"/>
        <use xlink:href="#DejaVuSans-18" transform="translate(95.40625 0)"/>
       </g>
      </g>
     </g>
     <g id="xtick_8">
      <g id="line2d_26">
       <path d="M 332.4456 189.624823 
L 332.4456 122.117539 
" clip-path="url(#pb69dad1c46)" style="fill: none; stroke: #d9dee7; stroke-opacity: 0.75; stroke-width: 0.6; stroke-linecap: square"/>
      </g>
      <g id="line2d_27">
       <g>
        <use xlink:href="#m45fcac9e46" x="332.4456" y="189.624823" style="fill: #324052; stroke: #324052; stroke-width: 0.8"/>
       </g>
      </g>
      <g id="text_16">
       <!-- 5.1 -->
       <g style="fill: #324052" transform="translate(326.879506 201.943183) scale(0.07 -0.07)">
        <use xlink:href="#DejaVuSans-18"/>
        <use xlink:href="#DejaVuSans-11" transform="translate(63.625 0)"/>
        <use xlink:href="#DejaVuSans-14" transform="translate(95.40625 0)"/>
       </g>
      </g>
     </g>
     <g id="xtick_9">
      <g id="line2d_28">
       <path d="M 401.6448 189.624823 
L 401.6448 122.117539 
" clip-path="url(#pb69dad1c46)" style="fill: none; stroke: #d9dee7; stroke-opacity: 0.75; stroke-width: 0.6; stroke-linecap: square"/>
      </g>
      <g id="line2d_29">
       <g>
        <use xlink:href="#m45fcac9e46" x="401.6448" y="189.624823" style="fill: #324052; stroke: #324052; stroke-width: 0.8"/>
       </g>
      </g>
      <g id="text_17">
       <!-- 5.7 -->
       <g style="fill: #324052" transform="translate(396.078706 201.943183) scale(0.07 -0.07)">
        <defs>
         <path id="DejaVuSans-1a" d="M 525 4666 
L 3525 4666 
L 3525 4397 
L 1831 0 
L 1172 0 
L 2766 4134 
L 525 4134 
L 525 4666 
z
" transform="scale(0.015625)"/>
        </defs>
        <use xlink:href="#DejaVuSans-18"/>
        <use xlink:href="#DejaVuSans-11" transform="translate(63.625 0)"/>
        <use xlink:href="#DejaVuSans-1a" transform="translate(95.40625 0)"/>
       </g>
      </g>
     </g>
    </g>
    <g id="matplotlib.axis_4">
     <g id="ytick_6">
      <g id="line2d_30">
       <path d="M 263.2464 182.874095 
L 401.6448 182.874095 
" clip-path="url(#pb69dad1c46)" style="fill: none; stroke: #d9dee7; stroke-opacity: 0.75; stroke-width: 0.6; stroke-linecap: square"/>
      </g>
      <g id="line2d_31">
       <g>
        <use xlink:href="#mb4f42975c6" x="263.2464" y="182.874095" style="fill: #324052; stroke: #324052; stroke-width: 0.8"/>
       </g>
      </g>
      <g id="text_18">
       <!-- 1.0 -->
       <g style="fill: #324052" transform="translate(245.114213 185.533275) scale(0.07 -0.07)">
        <use xlink:href="#DejaVuSans-14"/>
        <use xlink:href="#DejaVuSans-11" transform="translate(63.625 0)"/>
        <use xlink:href="#DejaVuSans-13" transform="translate(95.40625 0)"/>
       </g>
      </g>
     </g>
     <g id="ytick_7">
      <g id="line2d_32">
       <path d="M 263.2464 155.871181 
L 401.6448 155.871181 
" clip-path="url(#pb69dad1c46)" style="fill: none; stroke: #d9dee7; stroke-opacity: 0.75; stroke-width: 0.6; stroke-linecap: square"/>
      </g>
      <g id="line2d_33">
       <g>
        <use xlink:href="#mb4f42975c6" x="263.2464" y="155.871181" style="fill: #324052; stroke: #324052; stroke-width: 0.8"/>
       </g>
      </g>
      <g id="text_19">
       <!-- 1.6 -->
       <g style="fill: #324052" transform="translate(245.114213 158.530361) scale(0.07 -0.07)">
        <use xlink:href="#DejaVuSans-14"/>
        <use xlink:href="#DejaVuSans-11" transform="translate(63.625 0)"/>
        <use xlink:href="#DejaVuSans-19" transform="translate(95.40625 0)"/>
       </g>
      </g>
     </g>
     <g id="ytick_8">
      <g id="line2d_34">
       <path d="M 263.2464 128.868268 
L 401.6448 128.868268 
" clip-path="url(#pb69dad1c46)" style="fill: none; stroke: #d9dee7; stroke-opacity: 0.75; stroke-width: 0.6; stroke-linecap: square"/>
      </g>
      <g id="line2d_35">
       <g>
        <use xlink:href="#mb4f42975c6" x="263.2464" y="128.868268" style="fill: #324052; stroke: #324052; stroke-width: 0.8"/>
       </g>
      </g>
      <g id="text_20">
       <!-- 2.2 -->
       <g style="fill: #324052" transform="translate(245.114213 131.527447) scale(0.07 -0.07)">
        <use xlink:href="#DejaVuSans-15"/>
        <use xlink:href="#DejaVuSans-11" transform="translate(63.625 0)"/>
        <use xlink:href="#DejaVuSans-15" transform="translate(95.40625 0)"/>
       </g>
      </g>
     </g>
    </g>
    <g id="line2d_36">
     <path d="M -1 193.272501 
L 4.835162 195.533031 
L 19.311982 201.370073 
L 62.742442 219.249894 
L 72.393655 222.971525 
L 82.044869 226.494843 
L 91.696082 229.773922 
L 101.347295 232.765504 
L 110.998509 235.429477 
L 120.649722 237.729307 
L 130.300936 239.632443 
L 139.952149 241.110671 
L 144.777756 241.682888 
L 149.603362 242.140416 
L 154.428969 242.481074 
L 159.254576 242.703001 
L 164.080182 242.804656 
L 168.905789 242.784819 
L 173.731396 242.64259 
L 178.557003 242.377376 
L 183.382609 241.988873 
L 188.208216 241.477029 
L 193.033823 240.841984 
L 197.859429 240.083968 
L 202.685036 239.203146 
L 207.510643 238.199387 
L 212.336249 237.071933 
L 217.161856 235.818936 
L 221.987463 234.436856 
L 226.813069 232.919713 
L 231.638676 231.258213 
L 236.464283 229.438821 
L 241.28989 227.442899 
L 246.115496 225.246084 
L 250.941103 222.818165 
L 255.76671 220.123718 
L 260.592316 217.123795 
L 265.417923 213.778878 
L 270.24353 210.05319 
L 275.069136 205.920233 
L 279.894743 201.369162 
L 284.72035 196.411305 
L 289.545956 191.0859 
L 294.371563 185.463963 
L 308.848383 167.999169 
L 313.67399 162.489658 
L 318.499597 157.414623 
L 323.325203 152.925479 
L 328.15081 149.142759 
L 332.976417 146.144125 
L 337.802023 143.956651 
L 342.62763 142.55455 
L 347.453237 141.862667 
L 352.278844 141.765227 
L 357.10445 142.118513 
L 361.930057 142.765643 
L 371.58127 144.335489 
L 376.406877 145.002079 
L 381.232484 145.466106 
L 386.05809 145.67498 
L 390.883697 145.606911 
L 395.709304 145.266511 
L 400.53491 144.678769 
L 405.360517 143.882455 
L 410.186124 142.923861 
L 419.837337 140.711973 
L 434.314157 137.281696 
L 443.965371 135.267999 
L 447.4 134.648832 
L 447.4 134.648832 
" clip-path="url(#pb69dad1c46)" style="fill: none; stroke: #2455a4; stroke-width: 1.4; stroke-linecap: square"/>
    </g>
    <g id="patch_7">
     <path d="M 263.2464 189.624823 
L 263.2464 122.117539 
" style="fill: none; stroke: #000000; stroke-width: 0.8; stroke-linejoin: miter; stroke-linecap: square"/>
    </g>
    <g id="patch_8">
     <path d="M 401.6448 189.624823 
L 401.6448 122.117539 
" style="fill: none; stroke: #000000; stroke-width: 0.8; stroke-linejoin: miter; stroke-linecap: square"/>
    </g>
    <g id="patch_9">
     <path d="M 263.2464 189.624823 
L 401.6448 189.624823 
" style="fill: none; stroke: #000000; stroke-width: 0.8; stroke-linejoin: miter; stroke-linecap: square"/>
    </g>
    <g id="patch_10">
     <path d="M 263.2464 122.117539 
L 401.6448 122.117539 
" style="fill: none; stroke: #000000; stroke-width: 0.8; stroke-linejoin: miter; stroke-linecap: square"/>
    </g>
    <g id="text_21">
     <!-- local detail -->
     <g transform="translate(310.611225 116.117539) scale(0.08 -0.08)">
      <defs>
       <path id="DejaVuSans-4f" d="M 603 4863 
L 1178 4863 
L 1178 0 
L 603 0 
L 603 4863 
z
" transform="scale(0.015625)"/>
       <path id="DejaVuSans-3" transform="scale(0.015625)"/>
       <path id="DejaVuSans-47" d="M 2906 2969 
L 2906 4863 
L 3481 4863 
L 3481 0 
L 2906 0 
L 2906 525 
Q 2725 213 2448 61 
Q 2172 -91 1784 -91 
Q 1150 -91 751 415 
Q 353 922 353 1747 
Q 353 2572 751 3078 
Q 1150 3584 1784 3584 
Q 2172 3584 2448 3432 
Q 2725 3281 2906 2969 
z
M 947 1747 
Q 947 1113 1208 752 
Q 1469 391 1925 391 
Q 2381 391 2643 752 
Q 2906 1113 2906 1747 
Q 2906 2381 2643 2742 
Q 2381 3103 1925 3103 
Q 1469 3103 1208 2742 
Q 947 2381 947 1747 
z
" transform="scale(0.015625)"/>
      </defs>
      <use xlink:href="#DejaVuSans-4f"/>
      <use xlink:href="#DejaVuSans-52" transform="translate(27.78125 0)"/>
      <use xlink:href="#DejaVuSans-46" transform="translate(88.96875 0)"/>
      <use xlink:href="#DejaVuSans-44" transform="translate(143.953125 0)"/>
      <use xlink:href="#DejaVuSans-4f" transform="translate(205.234375 0)"/>
      <use xlink:href="#DejaVuSans-3" transform="translate(233.015625 0)"/>
      <use xlink:href="#DejaVuSans-47" transform="translate(264.796875 0)"/>
      <use xlink:href="#DejaVuSans-48" transform="translate(328.28125 0)"/>
      <use xlink:href="#DejaVuSans-57" transform="translate(389.8125 0)"/>
      <use xlink:href="#DejaVuSans-44" transform="translate(429.015625 0)"/>
      <use xlink:href="#DejaVuSans-4c" transform="translate(490.296875 0)"/>
      <use xlink:href="#DejaVuSans-4f" transform="translate(518.078125 0)"/>
     </g>
    </g>
   </g>
  </g>
 </g>
 <defs>
  <clipPath id="p2ef3ba8dcd">
   <rect x="47.96" y="28.357422" width="384.44" height="187.520234"/>
  </clipPath>
  <clipPath id="pb69dad1c46">
   <rect x="263.2464" y="122.117539" width="138.3984" height="67.507284"/>
  </clipPath>
 </defs>
</svg>
