<?xml version="1.0" encoding="utf-8" standalone="no"?>
<!DOCTYPE svg PUBLIC "-//W3C//DTD SVG 1.1//EN"
  "http://www.w3.org/Graphics/SVG/1.1/DTD/svg11.dtd">
<svg xmlns:xlink="http://www.w3.org/1999/xlink" width="403.2pt" height="273.6pt" viewBox="0 0 403.2 273.6" xmlns="http://www.w3.org/2000/svg" version="1.1">
 <metadata>
  <rdf:RDF xmlns:dc="http://purl.org/dc/elements/1.1/" xmlns:cc="http://creativecommons.org/ns#" xmlns:rdf="http://www.w3.org/1999/02/22-rdf-syntax-ns#">
   <cc:Work>
    <dc:type rdf:resource="http://purl.org/dc/dcmitype/StillImage"/>
    <dc:date>2026-06-21T21:15:41.294424</dc:date>
    <dc:format>image/svg+xml</dc:format>
    <dc:creator>
     <cc:Agent>
      <dc:title>python-plotting-skill clean-room renderer</dc:title>
     </cc:Agent>
    </dc:creator>
   </cc:Work>
  </rdf:RDF>
 </metadata>
 <defs>
  <style type="text/css">*{stroke-linejoin: round; stroke-linecap: butt}</style>
 </defs>
 <g id="figure_1">
  <g id="patch_1">
   <path d="M 0 273.6 
L 403.2 273.6 
L 403.2 0 
L 0 0 
z
" style="fill: #ffffff"/>
  </g>
  <g id="axes_1">
   <g id="patch_2">
    <path d="M 40.04 230.6 
L 389.2 230.6 
L 389.2 28.357422 
L 40.04 28.357422 
z
" style="fill: #ffffff"/>
   </g>
   <g id="matplotlib.axis_1">
    <g id="xtick_1">
     <g id="line2d_1">
      <path d="M 55.910909 230.6 
L 55.910909 28.357422 
" clip-path="url(#p890e2c63e6)" style="fill: none; stroke: #d9dee7; stroke-opacity: 0.75; stroke-width: 0.7; stroke-linecap: square"/>
     </g>
     <g id="line2d_2">
      <defs>
       <path id="m61fc6f364c" d="M 0 0 
L 0 3.5 
" style="stroke: #324052; stroke-width: 0.8"/>
      </defs>
      <g>
       <use xlink:href="#m61fc6f364c" x="55.910909" y="230.6" style="fill: #324052; stroke: #324052; stroke-width: 0.8"/>
      </g>
     </g>
     <g id="text_1">
      <!-- 0 -->
      <g style="fill: #324052" transform="translate(53.365909 243.678125) scale(0.08 -0.08)">
       <defs>
        <path id="DejaVuSans-13" d="M 2034 4250 
Q 1547 4250 1301 3770 
Q 1056 3291 1056 2328 
Q 1056 1369 1301 889 
Q 1547 409 2034 409 
Q 2525 409 2770 889 
Q 3016 1369 3016 2328 
Q 3016 3291 2770 3770 
Q 2525 4250 2034 4250 
z
M 2034 4750 
Q 2819 4750 3233 4129 
Q 3647 3509 3647 2328 
Q 3647 1150 3233 529 
Q 2819 -91 2034 -91 
Q 1250 -91 836 529 
Q 422 1150 422 2328 
Q 422 3509 836 4129 
Q 1250 4750 2034 4750 
z
" transform="scale(0.015625)"/>
       </defs>
       <use xlink:href="#DejaVuSans-13"/>
      </g>
     </g>
    </g>
    <g id="xtick_2">
     <g id="line2d_3">
      <path d="M 95.588182 230.6 
L 95.588182 28.357422 
" clip-path="url(#p890e2c63e6)" style="fill: none; stroke: #d9dee7; stroke-opacity: 0.75; stroke-width: 0.7; stroke-linecap: square"/>
     </g>
     <g id="line2d_4">
      <g>
       <use xlink:href="#m61fc6f364c" x="95.588182" y="230.6" style="fill: #324052; stroke: #324052; stroke-width: 0.8"/>
      </g>
     </g>
     <g id="text_2">
      <!-- 1 -->
      <g style="fill: #324052" transform="translate(93.043182 243.678125) scale(0.08 -0.08)">
       <defs>
        <path id="DejaVuSans-14" d="M 794 531 
L 1825 531 
L 1825 4091 
L 703 3866 
L 703 4441 
L 1819 4666 
L 2450 4666 
L 2450 531 
L 3481 531 
L 3481 0 
L 794 0 
L 794 531 
z
" transform="scale(0.015625)"/>
       </defs>
       <use xlink:href="#DejaVuSans-14"/>
      </g>
     </g>
    </g>
    <g id="xtick_3">
     <g id="line2d_5">
      <path d="M 135.265455 230.6 
L 135.265455 28.357422 
" clip-path="url(#p890e2c63e6)" style="fill: none; stroke: #d9dee7; stroke-opacity: 0.75; stroke-width: 0.7; stroke-linecap: square"/>
     </g>
     <g id="line2d_6">
      <g>
       <use xlink:href="#m61fc6f364c" x="135.265455" y="230.6" style="fill: #324052; stroke: #324052; stroke-width: 0.8"/>
      </g>
     </g>
     <g id="text_3">
      <!-- 2 -->
      <g style="fill: #324052" transform="translate(132.720455 243.678125) scale(0.08 -0.08)">
       <defs>
        <path id="DejaVuSans-15" d="M 1228 531 
L 3431 531 
L 3431 0 
L 469 0 
L 469 531 
Q 828 903 1448 1529 
Q 2069 2156 2228 2338 
Q 2531 2678 2651 2914 
Q 2772 3150 2772 3378 
Q 2772 3750 2511 3984 
Q 2250 4219 1831 4219 
Q 1534 4219 1204 4116 
Q 875 4013 500 3803 
L 500 4441 
Q 881 4594 1212 4672 
Q 1544 4750 1819 4750 
Q 2544 4750 2975 4387 
Q 3406 4025 3406 3419 
Q 3406 3131 3298 2873 
Q 3191 2616 2906 2266 
Q 2828 2175 2409 1742 
Q 1991 1309 1228 531 
z
" transform="scale(0.015625)"/>
       </defs>
       <use xlink:href="#DejaVuSans-15"/>
      </g>
     </g>
    </g>
    <g id="xtick_4">
     <g id="line2d_7">
      <path d="M 174.942727 230.6 
L 174.942727 28.357422 
" clip-path="url(#p890e2c63e6)" style="fill: none; stroke: #d9dee7; stroke-opacity: 0.75; stroke-width: 0.7; stroke-linecap: square"/>
     </g>
     <g id="line2d_8">
      <g>
       <use xlink:href="#m61fc6f364c" x="174.942727" y="230.6" style="fill: #324052; stroke: #324052; stroke-width: 0.8"/>
      </g>
     </g>
     <g id="text_4">
      <!-- 3 -->
      <g style="fill: #324052" transform="translate(172.397727 243.678125) scale(0.08 -0.08)">
       <defs>
        <path id="DejaVuSans-16" d="M 2597 2516 
Q 3050 2419 3304 2112 
Q 3559 1806 3559 1356 
Q 3559 666 3084 287 
Q 2609 -91 1734 -91 
Q 1441 -91 1130 -33 
Q 819 25 488 141 
L 488 750 
Q 750 597 1062 519 
Q 1375 441 1716 441 
Q 2309 441 2620 675 
Q 2931 909 2931 1356 
Q 2931 1769 2642 2001 
Q 2353 2234 1838 2234 
L 1294 2234 
L 1294 2753 
L 1863 2753 
Q 2328 2753 2575 2939 
Q 2822 3125 2822 3475 
Q 2822 3834 2567 4026 
Q 2313 4219 1838 4219 
Q 1578 4219 1281 4162 
Q 984 4106 628 3988 
L 628 4550 
Q 988 4650 1302 4700 
Q 1616 4750 1894 4750 
Q 2613 4750 3031 4423 
Q 3450 4097 3450 3541 
Q 3450 3153 3228 2886 
Q 3006 2619 2597 2516 
z
" transform="scale(0.015625)"/>
       </defs>
       <use xlink:href="#DejaVuSans-16"/>
      </g>
     </g>
    </g>
    <g id="xtick_5">
     <g id="line2d_9">
      <path d="M 214.62 230.6 
L 214.62 28.357422 
" clip-path="url(#p890e2c63e6)" style="fill: none; stroke: #d9dee7; stroke-opacity: 0.75; stroke-width: 0.7; stroke-linecap: square"/>
     </g>
     <g id="line2d_10">
      <g>
       <use xlink:href="#m61fc6f364c" x="214.62" y="230.6" style="fill: #324052; stroke: #324052; stroke-width: 0.8"/>
      </g>
     </g>
     <g id="text_5">
      <!-- 4 -->
      <g style="fill: #324052" transform="translate(212.075 243.678125) scale(0.08 -0.08)">
       <defs>
        <path id="DejaVuSans-17" d="M 2419 4116 
L 825 1625 
L 2419 1625 
L 2419 4116 
z
M 2253 4666 
L 3047 4666 
L 3047 1625 
L 3713 1625 
L 3713 1100 
L 3047 1100 
L 3047 0 
L 2419 0 
L 2419 1100 
L 313 1100 
L 313 1709 
L 2253 4666 
z
" transform="scale(0.015625)"/>
       </defs>
       <use xlink:href="#DejaVuSans-17"/>
      </g>
     </g>
    </g>
    <g id="xtick_6">
     <g id="line2d_11">
      <path d="M 254.297273 230.6 
L 254.297273 28.357422 
" clip-path="url(#p890e2c63e6)" style="fill: none; stroke: #d9dee7; stroke-opacity: 0.75; stroke-width: 0.7; stroke-linecap: square"/>
     </g>
     <g id="line2d_12">
      <g>
       <use xlink:href="#m61fc6f364c" x="254.297273" y="230.6" style="fill: #324052; stroke: #324052; stroke-width: 0.8"/>
      </g>
     </g>
     <g id="text_6">
      <!-- 5 -->
      <g style="fill: #324052" transform="translate(251.752273 243.678125) scale(0.08 -0.08)">
       <defs>
        <path id="DejaVuSans-18" d="M 691 4666 
L 3169 4666 
L 3169 4134 
L 1269 4134 
L 1269 2991 
Q 1406 3038 1543 3061 
Q 1681 3084 1819 3084 
Q 2600 3084 3056 2656 
Q 3513 2228 3513 1497 
Q 3513 744 3044 326 
Q 2575 -91 1722 -91 
Q 1428 -91 1123 -41 
Q 819 9 494 109 
L 494 744 
Q 775 591 1075 516 
Q 1375 441 1709 441 
Q 2250 441 2565 725 
Q 2881 1009 2881 1497 
Q 2881 1984 2565 2268 
Q 2250 2553 1709 2553 
Q 1456 2553 1204 2497 
Q 953 2441 691 2322 
L 691 4666 
z
" transform="scale(0.015625)"/>
       </defs>
       <use xlink:href="#DejaVuSans-18"/>
      </g>
     </g>
    </g>
    <g id="xtick_7">
     <g id="line2d_13">
      <path d="M 293.974545 230.6 
L 293.974545 28.357422 
" clip-path="url(#p890e2c63e6)" style="fill: none; stroke: #d9dee7; stroke-opacity: 0.75; stroke-width: 0.7; stroke-linecap: square"/>
     </g>
     <g id="line2d_14">
      <g>
       <use xlink:href="#m61fc6f364c" x="293.974545" y="230.6" style="fill: #324052; stroke: #324052; stroke-width: 0.8"/>
      </g>
     </g>
     <g id="text_7">
      <!-- 6 -->
      <g style="fill: #324052" transform="translate(291.429545 243.678125) scale(0.08 -0.08)">
       <defs>
        <path id="DejaVuSans-19" d="M 2113 2584 
Q 1688 2584 1439 2293 
Q 1191 2003 1191 1497 
Q 1191 994 1439 701 
Q 1688 409 2113 409 
Q 2538 409 2786 701 
Q 3034 994 3034 1497 
Q 3034 2003 2786 2293 
Q 2538 2584 2113 2584 
z
M 3366 4563 
L 3366 3988 
Q 3128 4100 2886 4159 
Q 2644 4219 2406 4219 
Q 1781 4219 1451 3797 
Q 1122 3375 1075 2522 
Q 1259 2794 1537 2939 
Q 1816 3084 2150 3084 
Q 2853 3084 3261 2657 
Q 3669 2231 3669 1497 
Q 3669 778 3244 343 
Q 2819 -91 2113 -91 
Q 1303 -91 875 529 
Q 447 1150 447 2328 
Q 447 3434 972 4092 
Q 1497 4750 2381 4750 
Q 2619 4750 2861 4703 
Q 3103 4656 3366 4563 
z
" transform="scale(0.015625)"/>
       </defs>
       <use xlink:href="#DejaVuSans-19"/>
      </g>
     </g>
    </g>
    <g id="xtick_8">
     <g id="line2d_15">
      <path d="M 333.651818 230.6 
L 333.651818 28.357422 
" clip-path="url(#p890e2c63e6)" style="fill: none; stroke: #d9dee7; stroke-opacity: 0.75; stroke-width: 0.7; stroke-linecap: square"/>
     </g>
     <g id="line2d_16">
      <g>
       <use xlink:href="#m61fc6f364c" x="333.651818" y="230.6" style="fill: #324052; stroke: #324052; stroke-width: 0.8"/>
      </g>
     </g>
     <g id="text_8">
      <!-- 7 -->
      <g style="fill: #324052" transform="translate(331.106818 243.678125) scale(0.08 -0.08)">
       <defs>
        <path id="DejaVuSans-1a" d="M 525 4666 
L 3525 4666 
L 3525 4397 
L 1831 0 
L 1172 0 
L 2766 4134 
L 525 4134 
L 525 4666 
z
" transform="scale(0.015625)"/>
       </defs>
       <use xlink:href="#DejaVuSans-1a"/>
      </g>
     </g>
    </g>
    <g id="xtick_9">
     <g id="line2d_17">
      <path d="M 373.329091 230.6 
L 373.329091 28.357422 
" clip-path="url(#p890e2c63e6)" style="fill: none; stroke: #d9dee7; stroke-opacity: 0.75; stroke-width: 0.7; stroke-linecap: square"/>
     </g>
     <g id="line2d_18">
      <g>
       <use xlink:href="#m61fc6f364c" x="373.329091" y="230.6" style="fill: #324052; stroke: #324052; stroke-width: 0.8"/>
      </g>
     </g>
     <g id="text_9">
      <!-- 8 -->
      <g style="fill: #324052" transform="translate(370.784091 243.678125) scale(0.08 -0.08)">
       <defs>
        <path id="DejaVuSans-1b" d="M 2034 2216 
Q 1584 2216 1326 1975 
Q 1069 1734 1069 1313 
Q 1069 891 1326 650 
Q 1584 409 2034 409 
Q 2484 409 2743 651 
Q 3003 894 3003 1313 
Q 3003 1734 2745 1975 
Q 2488 2216 2034 2216 
z
M 1403 2484 
Q 997 2584 770 2862 
Q 544 3141 544 3541 
Q 544 4100 942 4425 
Q 1341 4750 2034 4750 
Q 2731 4750 3128 4425 
Q 3525 4100 3525 3541 
Q 3525 3141 3298 2862 
Q 3072 2584 2669 2484 
Q 3125 2378 3379 2068 
Q 3634 1759 3634 1313 
Q 3634 634 3220 271 
Q 2806 -91 2034 -91 
Q 1263 -91 848 271 
Q 434 634 434 1313 
Q 434 1759 690 2068 
Q 947 2378 1403 2484 
z
M 1172 3481 
Q 1172 3119 1398 2916 
Q 1625 2713 2034 2713 
Q 2441 2713 2670 2916 
Q 2900 3119 2900 3481 
Q 2900 3844 2670 4047 
Q 2441 4250 2034 4250 
Q 1625 4250 1398 4047 
Q 1172 3844 1172 3481 
z
" transform="scale(0.015625)"/>
       </defs>
       <use xlink:href="#DejaVuSans-1b"/>
      </g>
     </g>
    </g>
    <g id="text_10">
     <!-- Input -->
     <g transform="translate(201.673125 257.197656) scale(0.1 -0.1)">
      <defs>
       <path id="DejaVuSans-2c" d="M 628 4666 
L 1259 4666 
L 1259 0 
L 628 0 
L 628 4666 
z
" transform="scale(0.015625)"/>
       <path id="DejaVuSans-51" d="M 3513 2113 
L 3513 0 
L 2938 0 
L 2938 2094 
Q 2938 2591 2744 2837 
Q 2550 3084 2163 3084 
Q 1697 3084 1428 2787 
Q 1159 2491 1159 1978 
L 1159 0 
L 581 0 
L 581 3500 
L 1159 3500 
L 1159 2956 
Q 1366 3272 1645 3428 
Q 1925 3584 2291 3584 
Q 2894 3584 3203 3211 
Q 3513 2838 3513 2113 
z
" transform="scale(0.015625)"/>
       <path id="DejaVuSans-53" d="M 1159 525 
L 1159 -1331 
L 581 -1331 
L 581 3500 
L 1159 3500 
L 1159 2969 
Q 1341 3281 1617 3432 
Q 1894 3584 2278 3584 
Q 2916 3584 3314 3078 
Q 3713 2572 3713 1747 
Q 3713 922 3314 415 
Q 2916 -91 2278 -91 
Q 1894 -91 1617 61 
Q 1341 213 1159 525 
z
M 3116 1747 
Q 3116 2381 2855 2742 
Q 2594 3103 2138 3103 
Q 1681 3103 1420 2742 
Q 1159 2381 1159 1747 
Q 1159 1113 1420 752 
Q 1681 391 2138 391 
Q 2594 391 2855 752 
Q 3116 1113 3116 1747 
z
" transform="scale(0.015625)"/>
       <path id="DejaVuSans-58" d="M 544 1381 
L 544 3500 
L 1119 3500 
L 1119 1403 
Q 1119 906 1312 657 
Q 1506 409 1894 409 
Q 2359 409 2629 706 
Q 2900 1003 2900 1516 
L 2900 3500 
L 3475 3500 
L 3475 0 
L 2900 0 
L 2900 538 
Q 2691 219 2414 64 
Q 2138 -91 1772 -91 
Q 1169 -91 856 284 
Q 544 659 544 1381 
z
M 1991 3584 
L 1991 3584 
z
" transform="scale(0.015625)"/>
       <path id="DejaVuSans-57" d="M 1172 4494 
L 1172 3500 
L 2356 3500 
L 2356 3053 
L 1172 3053 
L 1172 1153 
Q 1172 725 1289 603 
Q 1406 481 1766 481 
L 2356 481 
L 2356 0 
L 1766 0 
Q 1100 0 847 248 
Q 594 497 594 1153 
L 594 3053 
L 172 3053 
L 172 3500 
L 594 3500 
L 594 4494 
L 1172 4494 
z
" transform="scale(0.015625)"/>
      </defs>
      <use xlink:href="#DejaVuSans-2c"/>
      <use xlink:href="#DejaVuSans-51" transform="translate(29.5 0)"/>
      <use xlink:href="#DejaVuSans-53" transform="translate(92.875 0)"/>
      <use xlink:href="#DejaVuSans-58" transform="translate(156.359375 0)"/>
      <use xlink:href="#DejaVuSans-57" transform="translate(219.734375 0)"/>
     </g>
    </g>
   </g>
   <g id="matplotlib.axis_2">
    <g id="ytick_1">
     <g id="line2d_19">
      <path d="M 40.04 200.55997 
L 389.2 200.55997 
" clip-path="url(#p890e2c63e6)" style="fill: none; stroke: #d9dee7; stroke-opacity: 0.75; stroke-width: 0.7; stroke-linecap: square"/>
     </g>
     <g id="line2d_20">
      <defs>
       <path id="mc47b744af7" d="M 0 0 
L -3.5 0 
" style="stroke: #324052; stroke-width: 0.8"/>
      </defs>
      <g>
       <use xlink:href="#mc47b744af7" x="40.04" y="200.55997" style="fill: #324052; stroke: #324052; stroke-width: 0.8"/>
      </g>
     </g>
     <g id="text_11">
      <!-- 1 -->
      <g style="fill: #324052" transform="translate(27.95 203.599032) scale(0.08 -0.08)">
       <use xlink:href="#DejaVuSans-14"/>
      </g>
     </g>
    </g>
    <g id="ytick_2">
     <g id="line2d_21">
      <path d="M 40.04 167.847672 
L 389.2 167.847672 
" clip-path="url(#p890e2c63e6)" style="fill: none; stroke: #d9dee7; stroke-opacity: 0.75; stroke-width: 0.7; stroke-linecap: square"/>
     </g>
     <g id="line2d_22">
      <g>
       <use xlink:href="#mc47b744af7" x="40.04" y="167.847672" style="fill: #324052; stroke: #324052; stroke-width: 0.8"/>
      </g>
     </g>
     <g id="text_12">
      <!-- 2 -->
      <g style="fill: #324052" transform="translate(27.95 170.886734) scale(0.08 -0.08)">
       <use xlink:href="#DejaVuSans-15"/>
      </g>
     </g>
    </g>
    <g id="ytick_3">
     <g id="line2d_23">
      <path d="M 40.04 135.135374 
L 389.2 135.135374 
" clip-path="url(#p890e2c63e6)" style="fill: none; stroke: #d9dee7; stroke-opacity: 0.75; stroke-width: 0.7; stroke-linecap: square"/>
     </g>
     <g id="line2d_24">
      <g>
       <use xlink:href="#mc47b744af7" x="40.04" y="135.135374" style="fill: #324052; stroke: #324052; stroke-width: 0.8"/>
      </g>
     </g>
     <g id="text_13">
      <!-- 3 -->
      <g style="fill: #324052" transform="translate(27.95 138.174436) scale(0.08 -0.08)">
       <use xlink:href="#DejaVuSans-16"/>
      </g>
     </g>
    </g>
    <g id="ytick_4">
     <g id="line2d_25">
      <path d="M 40.04 102.423076 
L 389.2 102.423076 
" clip-path="url(#p890e2c63e6)" style="fill: none; stroke: #d9dee7; stroke-opacity: 0.75; stroke-width: 0.7; stroke-linecap: square"/>
     </g>
     <g id="line2d_26">
      <g>
       <use xlink:href="#mc47b744af7" x="40.04" y="102.423076" style="fill: #324052; stroke: #324052; stroke-width: 0.8"/>
      </g>
     </g>
     <g id="text_14">
      <!-- 4 -->
      <g style="fill: #324052" transform="translate(27.95 105.462139) scale(0.08 -0.08)">
       <use xlink:href="#DejaVuSans-17"/>
      </g>
     </g>
    </g>
    <g id="ytick_5">
     <g id="line2d_27">
      <path d="M 40.04 69.710778 
L 389.2 69.710778 
" clip-path="url(#p890e2c63e6)" style="fill: none; stroke: #d9dee7; stroke-opacity: 0.75; stroke-width: 0.7; stroke-linecap: square"/>
     </g>
     <g id="line2d_28">
      <g>
       <use xlink:href="#mc47b744af7" x="40.04" y="69.710778" style="fill: #324052; stroke: #324052; stroke-width: 0.8"/>
      </g>
     </g>
     <g id="text_15">
      <!-- 5 -->
      <g style="fill: #324052" transform="translate(27.95 72.749841) scale(0.08 -0.08)">
       <use xlink:href="#DejaVuSans-18"/>
      </g>
     </g>
    </g>
    <g id="ytick_6">
     <g id="line2d_29">
      <path d="M 40.04 36.99848 
L 389.2 36.99848 
" clip-path="url(#p890e2c63e6)" style="fill: none; stroke: #d9dee7; stroke-opacity: 0.75; stroke-width: 0.7; stroke-linecap: square"/>
     </g>
     <g id="line2d_30">
      <g>
       <use xlink:href="#mc47b744af7" x="40.04" y="36.99848" style="fill: #324052; stroke: #324052; stroke-width: 0.8"/>
      </g>
     </g>
     <g id="text_16">
      <!-- 6 -->
      <g style="fill: #324052" transform="translate(27.95 40.037543) scale(0.08 -0.08)">
       <use xlink:href="#DejaVuSans-19"/>
      </g>
     </g>
    </g>
    <g id="text_17">
     <!-- Output -->
     <g transform="translate(21.547656 146.84668) rotate(-90) scale(0.1 -0.1)">
      <defs>
       <path id="DejaVuSans-32" d="M 2522 4238 
Q 1834 4238 1429 3725 
Q 1025 3213 1025 2328 
Q 1025 1447 1429 934 
Q 1834 422 2522 422 
Q 3209 422 3611 934 
Q 4013 1447 4013 2328 
Q 4013 3213 3611 3725 
Q 3209 4238 2522 4238 
z
M 2522 4750 
Q 3503 4750 4090 4092 
Q 4678 3434 4678 2328 
Q 4678 1225 4090 567 
Q 3503 -91 2522 -91 
Q 1538 -91 948 565 
Q 359 1222 359 2328 
Q 359 3434 948 4092 
Q 1538 4750 2522 4750 
z
" transform="scale(0.015625)"/>
      </defs>
      <use xlink:href="#DejaVuSans-32"/>
      <use xlink:href="#DejaVuSans-58" transform="translate(78.71875 0)"/>
      <use xlink:href="#DejaVuSans-57" transform="translate(142.09375 0)"/>
      <use xlink:href="#DejaVuSans-53" transform="translate(181.296875 0)"/>
      <use xlink:href="#DejaVuSans-58" transform="translate(244.78125 0)"/>
      <use xlink:href="#DejaVuSans-57" transform="translate(308.15625 0)"/>
     </g>
    </g>
   </g>
   <g id="PathCollection_1">
    <defs>
     <path id="mdc323b3505" d="M 0 2.345208 
C 0.621956 2.345208 1.218523 2.098102 1.658312 1.658312 
C 2.098102 1.218523 2.345208 0.621956 2.345208 0 
C 2.345208 -0.621956 2.098102 -1.218523 1.658312 -1.658312 
C 1.218523 -2.098102 0.621956 -2.345208 0 -2.345208 
C -0.621956 -2.345208 -1.218523 -2.098102 -1.658312 -1.658312 
C -2.098102 -1.218523 -2.345208 -0.621956 -2.345208 0 
C -2.345208 0.621956 -2.098102 1.218523 -1.658312 1.658312 
C -1.218523 2.098102 -0.621956 2.345208 0 2.345208 
z
" style="stroke: #6777a8; stroke-opacity: 0.68"/>
    </defs>
    <g clip-path="url(#p890e2c63e6)">
     <use xlink:href="#mdc323b3505" x="55.910909" y="208.432051" style="fill: #6777a8; fill-opacity: 0.68; stroke: #6777a8; stroke-opacity: 0.68"/>
     <use xlink:href="#mdc323b3505" x="58.578289" y="206.320571" style="fill: #6777a8; fill-opacity: 0.68; stroke: #6777a8; stroke-opacity: 0.68"/>
     <use xlink:href="#mdc323b3505" x="61.245668" y="221.407156" style="fill: #6777a8; fill-opacity: 0.68; stroke: #6777a8; stroke-opacity: 0.68"/>
     <use xlink:href="#mdc323b3505" x="63.913048" y="175.734556" style="fill: #6777a8; fill-opacity: 0.68; stroke: #6777a8; stroke-opacity: 0.68"/>
     <use xlink:href="#mdc323b3505" x="66.580428" y="178.736738" style="fill: #6777a8; fill-opacity: 0.68; stroke: #6777a8; stroke-opacity: 0.68"/>
     <use xlink:href="#mdc323b3505" x="69.247807" y="184.924317" style="fill: #6777a8; fill-opacity: 0.68; stroke: #6777a8; stroke-opacity: 0.68"/>
     <use xlink:href="#mdc323b3505" x="71.915187" y="180.831143" style="fill: #6777a8; fill-opacity: 0.68; stroke: #6777a8; stroke-opacity: 0.68"/>
     <use xlink:href="#mdc323b3505" x="74.582567" y="144.69268" style="fill: #6777a8; fill-opacity: 0.68; stroke: #6777a8; stroke-opacity: 0.68"/>
     <use xlink:href="#mdc323b3505" x="77.249947" y="208.613882" style="fill: #6777a8; fill-opacity: 0.68; stroke: #6777a8; stroke-opacity: 0.68"/>
     <use xlink:href="#mdc323b3505" x="79.917326" y="177.078408" style="fill: #6777a8; fill-opacity: 0.68; stroke: #6777a8; stroke-opacity: 0.68"/>
     <use xlink:href="#mdc323b3505" x="82.584706" y="181.011701" style="fill: #6777a8; fill-opacity: 0.68; stroke: #6777a8; stroke-opacity: 0.68"/>
     <use xlink:href="#mdc323b3505" x="85.252086" y="177.645879" style="fill: #6777a8; fill-opacity: 0.68; stroke: #6777a8; stroke-opacity: 0.68"/>
     <use xlink:href="#mdc323b3505" x="87.919465" y="207.684347" style="fill: #6777a8; fill-opacity: 0.68; stroke: #6777a8; stroke-opacity: 0.68"/>
     <use xlink:href="#mdc323b3505" x="90.586845" y="152.536587" style="fill: #6777a8; fill-opacity: 0.68; stroke: #6777a8; stroke-opacity: 0.68"/>
     <use xlink:href="#mdc323b3505" x="93.254225" y="201.004173" style="fill: #6777a8; fill-opacity: 0.68; stroke: #6777a8; stroke-opacity: 0.68"/>
     <use xlink:href="#mdc323b3505" x="95.921604" y="200.213719" style="fill: #6777a8; fill-opacity: 0.68; stroke: #6777a8; stroke-opacity: 0.68"/>
     <use xlink:href="#mdc323b3505" x="98.588984" y="167.196164" style="fill: #6777a8; fill-opacity: 0.68; stroke: #6777a8; stroke-opacity: 0.68"/>
     <use xlink:href="#mdc323b3505" x="101.256364" y="178.879122" style="fill: #6777a8; fill-opacity: 0.68; stroke: #6777a8; stroke-opacity: 0.68"/>
     <use xlink:href="#mdc323b3505" x="103.923743" y="166.59869" style="fill: #6777a8; fill-opacity: 0.68; stroke: #6777a8; stroke-opacity: 0.68"/>
     <use xlink:href="#mdc323b3505" x="106.591123" y="192.354187" style="fill: #6777a8; fill-opacity: 0.68; stroke: #6777a8; stroke-opacity: 0.68"/>
     <use xlink:href="#mdc323b3505" x="109.258503" y="196.843704" style="fill: #6777a8; fill-opacity: 0.68; stroke: #6777a8; stroke-opacity: 0.68"/>
     <use xlink:href="#mdc323b3505" x="111.925882" y="156.896452" style="fill: #6777a8; fill-opacity: 0.68; stroke: #6777a8; stroke-opacity: 0.68"/>
     <use xlink:href="#mdc323b3505" x="114.593262" y="177.735603" style="fill: #6777a8; fill-opacity: 0.68; stroke: #6777a8; stroke-opacity: 0.68"/>
     <use xlink:href="#mdc323b3505" x="117.260642" y="165.535739" style="fill: #6777a8; fill-opacity: 0.68; stroke: #6777a8; stroke-opacity: 0.68"/>
     <use xlink:href="#mdc323b3505" x="119.928021" y="160.765564" style="fill: #6777a8; fill-opacity: 0.68; stroke: #6777a8; stroke-opacity: 0.68"/>
     <use xlink:href="#mdc323b3505" x="122.595401" y="207.730429" style="fill: #6777a8; fill-opacity: 0.68; stroke: #6777a8; stroke-opacity: 0.68"/>
     <use xlink:href="#mdc323b3505" x="125.262781" y="148.132861" style="fill: #6777a8; fill-opacity: 0.68; stroke: #6777a8; stroke-opacity: 0.68"/>
     <use xlink:href="#mdc323b3505" x="127.93016" y="149.242568" style="fill: #6777a8; fill-opacity: 0.68; stroke: #6777a8; stroke-opacity: 0.68"/>
     <use xlink:href="#mdc323b3505" x="130.59754" y="148.500131" style="fill: #6777a8; fill-opacity: 0.68; stroke: #6777a8; stroke-opacity: 0.68"/>
     <use xlink:href="#mdc323b3505" x="133.26492" y="163.037498" style="fill: #6777a8; fill-opacity: 0.68; stroke: #6777a8; stroke-opacity: 0.68"/>
     <use xlink:href="#mdc323b3505" x="135.932299" y="162.161539" style="fill: #6777a8; fill-opacity: 0.68; stroke: #6777a8; stroke-opacity: 0.68"/>
     <use xlink:href="#mdc323b3505" x="138.599679" y="158.112969" style="fill: #6777a8; fill-opacity: 0.68; stroke: #6777a8; stroke-opacity: 0.68"/>
     <use xlink:href="#mdc323b3505" x="141.267059" y="164.327289" style="fill: #6777a8; fill-opacity: 0.68; stroke: #6777a8; stroke-opacity: 0.68"/>
     <use xlink:href="#mdc323b3505" x="143.934439" y="127.006955" style="fill: #6777a8; fill-opacity: 0.68; stroke: #6777a8; stroke-opacity: 0.68"/>
     <use xlink:href="#mdc323b3505" x="146.601818" y="164.933983" style="fill: #6777a8; fill-opacity: 0.68; stroke: #6777a8; stroke-opacity: 0.68"/>
     <use xlink:href="#mdc323b3505" x="149.269198" y="153.397618" style="fill: #6777a8; fill-opacity: 0.68; stroke: #6777a8; stroke-opacity: 0.68"/>
     <use xlink:href="#mdc323b3505" x="151.936578" y="136.607526" style="fill: #6777a8; fill-opacity: 0.68; stroke: #6777a8; stroke-opacity: 0.68"/>
     <use xlink:href="#mdc323b3505" x="154.603957" y="179.598911" style="fill: #6777a8; fill-opacity: 0.68; stroke: #6777a8; stroke-opacity: 0.68"/>
     <use xlink:href="#mdc323b3505" x="157.271337" y="127.225584" style="fill: #6777a8; fill-opacity: 0.68; stroke: #6777a8; stroke-opacity: 0.68"/>
     <use xlink:href="#mdc323b3505" x="159.938717" y="140.331359" style="fill: #6777a8; fill-opacity: 0.68; stroke: #6777a8; stroke-opacity: 0.68"/>
     <use xlink:href="#mdc323b3505" x="162.606096" y="132.438469" style="fill: #6777a8; fill-opacity: 0.68; stroke: #6777a8; stroke-opacity: 0.68"/>
     <use xlink:href="#mdc323b3505" x="165.273476" y="167.715414" style="fill: #6777a8; fill-opacity: 0.68; stroke: #6777a8; stroke-opacity: 0.68"/>
     <use xlink:href="#mdc323b3505" x="167.940856" y="144.569073" style="fill: #6777a8; fill-opacity: 0.68; stroke: #6777a8; stroke-opacity: 0.68"/>
     <use xlink:href="#mdc323b3505" x="170.608235" y="159.250713" style="fill: #6777a8; fill-opacity: 0.68; stroke: #6777a8; stroke-opacity: 0.68"/>
     <use xlink:href="#mdc323b3505" x="173.275615" y="153.875259" style="fill: #6777a8; fill-opacity: 0.68; stroke: #6777a8; stroke-opacity: 0.68"/>
     <use xlink:href="#mdc323b3505" x="175.942995" y="139.227475" style="fill: #6777a8; fill-opacity: 0.68; stroke: #6777a8; stroke-opacity: 0.68"/>
     <use xlink:href="#mdc323b3505" x="178.610374" y="135.184538" style="fill: #6777a8; fill-opacity: 0.68; stroke: #6777a8; stroke-opacity: 0.68"/>
     <use xlink:href="#mdc323b3505" x="181.277754" y="149.135824" style="fill: #6777a8; fill-opacity: 0.68; stroke: #6777a8; stroke-opacity: 0.68"/>
     <use xlink:href="#mdc323b3505" x="183.945134" y="136.79376" style="fill: #6777a8; fill-opacity: 0.68; stroke: #6777a8; stroke-opacity: 0.68"/>
     <use xlink:href="#mdc323b3505" x="186.612513" y="157.18052" style="fill: #6777a8; fill-opacity: 0.68; stroke: #6777a8; stroke-opacity: 0.68"/>
     <use xlink:href="#mdc323b3505" x="189.279893" y="149.158839" style="fill: #6777a8; fill-opacity: 0.68; stroke: #6777a8; stroke-opacity: 0.68"/>
     <use xlink:href="#mdc323b3505" x="191.947273" y="121.167099" style="fill: #6777a8; fill-opacity: 0.68; stroke: #6777a8; stroke-opacity: 0.68"/>
     <use xlink:href="#mdc323b3505" x="194.614652" y="150.437721" style="fill: #6777a8; fill-opacity: 0.68; stroke: #6777a8; stroke-opacity: 0.68"/>
     <use xlink:href="#mdc323b3505" x="197.282032" y="139.117168" style="fill: #6777a8; fill-opacity: 0.68; stroke: #6777a8; stroke-opacity: 0.68"/>
     <use xlink:href="#mdc323b3505" x="199.949412" y="146.141222" style="fill: #6777a8; fill-opacity: 0.68; stroke: #6777a8; stroke-opacity: 0.68"/>
     <use xlink:href="#mdc323b3505" x="202.616791" y="153.391665" style="fill: #6777a8; fill-opacity: 0.68; stroke: #6777a8; stroke-opacity: 0.68"/>
     <use xlink:href="#mdc323b3505" x="205.284171" y="137.770902" style="fill: #6777a8; fill-opacity: 0.68; stroke: #6777a8; stroke-opacity: 0.68"/>
     <use xlink:href="#mdc323b3505" x="207.951551" y="130.172787" style="fill: #6777a8; fill-opacity: 0.68; stroke: #6777a8; stroke-opacity: 0.68"/>
     <use xlink:href="#mdc323b3505" x="210.61893" y="129.799068" style="fill: #6777a8; fill-opacity: 0.68; stroke: #6777a8; stroke-opacity: 0.68"/>
     <use xlink:href="#mdc323b3505" x="213.28631" y="109.166161" style="fill: #6777a8; fill-opacity: 0.68; stroke: #6777a8; stroke-opacity: 0.68"/>
     <use xlink:href="#mdc323b3505" x="215.95369" y="118.078638" style="fill: #6777a8; fill-opacity: 0.68; stroke: #6777a8; stroke-opacity: 0.68"/>
     <use xlink:href="#mdc323b3505" x="218.62107" y="112.831074" style="fill: #6777a8; fill-opacity: 0.68; stroke: #6777a8; stroke-opacity: 0.68"/>
     <use xlink:href="#mdc323b3505" x="221.288449" y="159.710886" style="fill: #6777a8; fill-opacity: 0.68; stroke: #6777a8; stroke-opacity: 0.68"/>
     <use xlink:href="#mdc323b3505" x="223.955829" y="145.649084" style="fill: #6777a8; fill-opacity: 0.68; stroke: #6777a8; stroke-opacity: 0.68"/>
     <use xlink:href="#mdc323b3505" x="226.623209" y="153.064872" style="fill: #6777a8; fill-opacity: 0.68; stroke: #6777a8; stroke-opacity: 0.68"/>
     <use xlink:href="#mdc323b3505" x="229.290588" y="126.340202" style="fill: #6777a8; fill-opacity: 0.68; stroke: #6777a8; stroke-opacity: 0.68"/>
     <use xlink:href="#mdc323b3505" x="231.957968" y="110.623702" style="fill: #6777a8; fill-opacity: 0.68; stroke: #6777a8; stroke-opacity: 0.68"/>
     <use xlink:href="#mdc323b3505" x="234.625348" y="131.98595" style="fill: #6777a8; fill-opacity: 0.68; stroke: #6777a8; stroke-opacity: 0.68"/>
     <use xlink:href="#mdc323b3505" x="237.292727" y="112.171209" style="fill: #6777a8; fill-opacity: 0.68; stroke: #6777a8; stroke-opacity: 0.68"/>
     <use xlink:href="#mdc323b3505" x="239.960107" y="119.540469" style="fill: #6777a8; fill-opacity: 0.68; stroke: #6777a8; stroke-opacity: 0.68"/>
     <use xlink:href="#mdc323b3505" x="242.627487" y="97.391417" style="fill: #6777a8; fill-opacity: 0.68; stroke: #6777a8; stroke-opacity: 0.68"/>
     <use xlink:href="#mdc323b3505" x="245.294866" y="101.949099" style="fill: #6777a8; fill-opacity: 0.68; stroke: #6777a8; stroke-opacity: 0.68"/>
     <use xlink:href="#mdc323b3505" x="247.962246" y="100.908092" style="fill: #6777a8; fill-opacity: 0.68; stroke: #6777a8; stroke-opacity: 0.68"/>
     <use xlink:href="#mdc323b3505" x="250.629626" y="106.537572" style="fill: #6777a8; fill-opacity: 0.68; stroke: #6777a8; stroke-opacity: 0.68"/>
     <use xlink:href="#mdc323b3505" x="253.297005" y="111.450596" style="fill: #6777a8; fill-opacity: 0.68; stroke: #6777a8; stroke-opacity: 0.68"/>
     <use xlink:href="#mdc323b3505" x="255.964385" y="119.120632" style="fill: #6777a8; fill-opacity: 0.68; stroke: #6777a8; stroke-opacity: 0.68"/>
     <use xlink:href="#mdc323b3505" x="258.631765" y="130.848868" style="fill: #6777a8; fill-opacity: 0.68; stroke: #6777a8; stroke-opacity: 0.68"/>
     <use xlink:href="#mdc323b3505" x="261.299144" y="125.216469" style="fill: #6777a8; fill-opacity: 0.68; stroke: #6777a8; stroke-opacity: 0.68"/>
     <use xlink:href="#mdc323b3505" x="263.966524" y="118.756133" style="fill: #6777a8; fill-opacity: 0.68; stroke: #6777a8; stroke-opacity: 0.68"/>
     <use xlink:href="#mdc323b3505" x="266.633904" y="107.319238" style="fill: #6777a8; fill-opacity: 0.68; stroke: #6777a8; stroke-opacity: 0.68"/>
     <use xlink:href="#mdc323b3505" x="269.301283" y="122.228538" style="fill: #6777a8; fill-opacity: 0.68; stroke: #6777a8; stroke-opacity: 0.68"/>
     <use xlink:href="#mdc323b3505" x="271.968663" y="89.725391" style="fill: #6777a8; fill-opacity: 0.68; stroke: #6777a8; stroke-opacity: 0.68"/>
     <use xlink:href="#mdc323b3505" x="274.636043" y="109.2429" style="fill: #6777a8; fill-opacity: 0.68; stroke: #6777a8; stroke-opacity: 0.68"/>
     <use xlink:href="#mdc323b3505" x="277.303422" y="95.291437" style="fill: #6777a8; fill-opacity: 0.68; stroke: #6777a8; stroke-opacity: 0.68"/>
     <use xlink:href="#mdc323b3505" x="279.970802" y="90.07864" style="fill: #6777a8; fill-opacity: 0.68; stroke: #6777a8; stroke-opacity: 0.68"/>
     <use xlink:href="#mdc323b3505" x="282.638182" y="131.151778" style="fill: #6777a8; fill-opacity: 0.68; stroke: #6777a8; stroke-opacity: 0.68"/>
     <use xlink:href="#mdc323b3505" x="285.305561" y="103.254485" style="fill: #6777a8; fill-opacity: 0.68; stroke: #6777a8; stroke-opacity: 0.68"/>
     <use xlink:href="#mdc323b3505" x="287.972941" y="76.733283" style="fill: #6777a8; fill-opacity: 0.68; stroke: #6777a8; stroke-opacity: 0.68"/>
     <use xlink:href="#mdc323b3505" x="290.640321" y="84.23457" style="fill: #6777a8; fill-opacity: 0.68; stroke: #6777a8; stroke-opacity: 0.68"/>
     <use xlink:href="#mdc323b3505" x="293.307701" y="103.939398" style="fill: #6777a8; fill-opacity: 0.68; stroke: #6777a8; stroke-opacity: 0.68"/>
     <use xlink:href="#mdc323b3505" x="295.97508" y="119.737314" style="fill: #6777a8; fill-opacity: 0.68; stroke: #6777a8; stroke-opacity: 0.68"/>
     <use xlink:href="#mdc323b3505" x="298.64246" y="126.935825" style="fill: #6777a8; fill-opacity: 0.68; stroke: #6777a8; stroke-opacity: 0.68"/>
     <use xlink:href="#mdc323b3505" x="301.30984" y="69.102816" style="fill: #6777a8; fill-opacity: 0.68; stroke: #6777a8; stroke-opacity: 0.68"/>
     <use xlink:href="#mdc323b3505" x="303.977219" y="111.056754" style="fill: #6777a8; fill-opacity: 0.68; stroke: #6777a8; stroke-opacity: 0.68"/>
     <use xlink:href="#mdc323b3505" x="306.644599" y="72.769851" style="fill: #6777a8; fill-opacity: 0.68; stroke: #6777a8; stroke-opacity: 0.68"/>
     <use xlink:href="#mdc323b3505" x="309.311979" y="90.631242" style="fill: #6777a8; fill-opacity: 0.68; stroke: #6777a8; stroke-opacity: 0.68"/>
     <use xlink:href="#mdc323b3505" x="311.979358" y="135.695279" style="fill: #6777a8; fill-opacity: 0.68; stroke: #6777a8; stroke-opacity: 0.68"/>
     <use xlink:href="#mdc323b3505" x="314.646738" y="92.607915" style="fill: #6777a8; fill-opacity: 0.68; stroke: #6777a8; stroke-opacity: 0.68"/>
     <use xlink:href="#mdc323b3505" x="317.314118" y="90.692407" style="fill: #6777a8; fill-opacity: 0.68; stroke: #6777a8; stroke-opacity: 0.68"/>
     <use xlink:href="#mdc323b3505" x="319.981497" y="83.797082" style="fill: #6777a8; fill-opacity: 0.68; stroke: #6777a8; stroke-opacity: 0.68"/>
     <use xlink:href="#mdc323b3505" x="322.648877" y="83.564654" style="fill: #6777a8; fill-opacity: 0.68; stroke: #6777a8; stroke-opacity: 0.68"/>
     <use xlink:href="#mdc323b3505" x="325.316257" y="124.204472" style="fill: #6777a8; fill-opacity: 0.68; stroke: #6777a8; stroke-opacity: 0.68"/>
     <use xlink:href="#mdc323b3505" x="327.983636" y="110.982354" style="fill: #6777a8; fill-opacity: 0.68; stroke: #6777a8; stroke-opacity: 0.68"/>
     <use xlink:href="#mdc323b3505" x="330.651016" y="64.866085" style="fill: #6777a8; fill-opacity: 0.68; stroke: #6777a8; stroke-opacity: 0.68"/>
     <use xlink:href="#mdc323b3505" x="333.318396" y="82.903365" style="fill: #6777a8; fill-opacity: 0.68; stroke: #6777a8; stroke-opacity: 0.68"/>
     <use xlink:href="#mdc323b3505" x="335.985775" y="96.457766" style="fill: #6777a8; fill-opacity: 0.68; stroke: #6777a8; stroke-opacity: 0.68"/>
     <use xlink:href="#mdc323b3505" x="338.653155" y="82.245163" style="fill: #6777a8; fill-opacity: 0.68; stroke: #6777a8; stroke-opacity: 0.68"/>
     <use xlink:href="#mdc323b3505" x="341.320535" y="93.344203" style="fill: #6777a8; fill-opacity: 0.68; stroke: #6777a8; stroke-opacity: 0.68"/>
     <use xlink:href="#mdc323b3505" x="343.987914" y="73.164038" style="fill: #6777a8; fill-opacity: 0.68; stroke: #6777a8; stroke-opacity: 0.68"/>
     <use xlink:href="#mdc323b3505" x="346.655294" y="84.472563" style="fill: #6777a8; fill-opacity: 0.68; stroke: #6777a8; stroke-opacity: 0.68"/>
     <use xlink:href="#mdc323b3505" x="349.322674" y="118.54286" style="fill: #6777a8; fill-opacity: 0.68; stroke: #6777a8; stroke-opacity: 0.68"/>
     <use xlink:href="#mdc323b3505" x="351.990053" y="59.013116" style="fill: #6777a8; fill-opacity: 0.68; stroke: #6777a8; stroke-opacity: 0.68"/>
     <use xlink:href="#mdc323b3505" x="354.657433" y="67.336239" style="fill: #6777a8; fill-opacity: 0.68; stroke: #6777a8; stroke-opacity: 0.68"/>
     <use xlink:href="#mdc323b3505" x="357.324813" y="62.946862" style="fill: #6777a8; fill-opacity: 0.68; stroke: #6777a8; stroke-opacity: 0.68"/>
     <use xlink:href="#mdc323b3505" x="359.992193" y="85.518507" style="fill: #6777a8; fill-opacity: 0.68; stroke: #6777a8; stroke-opacity: 0.68"/>
     <use xlink:href="#mdc323b3505" x="362.659572" y="37.550266" style="fill: #6777a8; fill-opacity: 0.68; stroke: #6777a8; stroke-opacity: 0.68"/>
     <use xlink:href="#mdc323b3505" x="365.326952" y="95.280004" style="fill: #6777a8; fill-opacity: 0.68; stroke: #6777a8; stroke-opacity: 0.68"/>
     <use xlink:href="#mdc323b3505" x="367.994332" y="68.487266" style="fill: #6777a8; fill-opacity: 0.68; stroke: #6777a8; stroke-opacity: 0.68"/>
     <use xlink:href="#mdc323b3505" x="370.661711" y="63.335461" style="fill: #6777a8; fill-opacity: 0.68; stroke: #6777a8; stroke-opacity: 0.68"/>
     <use xlink:href="#mdc323b3505" x="373.329091" y="70.707904" style="fill: #6777a8; fill-opacity: 0.68; stroke: #6777a8; stroke-opacity: 0.68"/>
    </g>
   </g>
   <g id="line2d_31">
    <path d="M 55.910909 193.182755 
L 58.578289 192.145375 
L 61.245668 191.107995 
L 63.913048 190.070616 
L 66.580428 189.033236 
L 69.247807 187.995856 
L 71.915187 186.958476 
L 74.582567 185.921096 
L 77.249947 184.883716 
L 79.917326 183.846336 
L 82.584706 182.808956 
L 85.252086 181.771577 
L 87.919465 180.734197 
L 90.586845 179.696817 
L 93.254225 178.659437 
L 95.921604 177.622057 
L 98.588984 176.584677 
L 101.256364 175.547297 
L 103.923743 174.509917 
L 106.591123 173.472538 
L 109.258503 172.435158 
L 111.925882 171.397778 
L 114.593262 170.360398 
L 117.260642 169.323018 
L 119.928021 168.285638 
L 122.595401 167.248258 
L 125.262781 166.210878 
L 127.93016 165.173498 
L 130.59754 164.136119 
L 133.26492 163.098739 
L 135.932299 162.061359 
L 138.599679 161.023979 
L 141.267059 159.986599 
L 143.934439 158.949219 
L 146.601818 157.911839 
L 149.269198 156.874459 
L 151.936578 155.83708 
L 154.603957 154.7997 
L 157.271337 153.76232 
L 159.938717 152.72494 
L 162.606096 151.68756 
L 165.273476 150.65018 
L 167.940856 149.6128 
L 170.608235 148.57542 
L 173.275615 147.538041 
L 175.942995 146.500661 
L 178.610374 145.463281 
L 181.277754 144.425901 
L 183.945134 143.388521 
L 186.612513 142.351141 
L 189.279893 141.313761 
L 191.947273 140.276381 
L 194.614652 139.239001 
L 197.282032 138.201622 
L 199.949412 137.164242 
L 202.616791 136.126862 
L 205.284171 135.089482 
L 207.951551 134.052102 
L 210.61893 133.014722 
L 213.28631 131.977342 
L 215.95369 130.939962 
L 218.62107 129.902583 
L 221.288449 128.865203 
L 223.955829 127.827823 
L 226.623209 126.790443 
L 229.290588 125.753063 
L 231.957968 124.715683 
L 234.625348 123.678303 
L 237.292727 122.640923 
L 239.960107 121.603544 
L 242.627487 120.566164 
L 245.294866 119.528784 
L 247.962246 118.491404 
L 250.629626 117.454024 
L 253.297005 116.416644 
L 255.964385 115.379264 
L 258.631765 114.341884 
L 261.299144 113.304504 
L 263.966524 112.267125 
L 266.633904 111.229745 
L 269.301283 110.192365 
L 271.968663 109.154985 
L 274.636043 108.117605 
L 277.303422 107.080225 
L 279.970802 106.042845 
L 282.638182 105.005465 
L 285.305561 103.968086 
L 287.972941 102.930706 
L 290.640321 101.893326 
L 293.307701 100.855946 
L 295.97508 99.818566 
L 298.64246 98.781186 
L 301.30984 97.743806 
L 303.977219 96.706426 
L 306.644599 95.669047 
L 309.311979 94.631667 
L 311.979358 93.594287 
L 314.646738 92.556907 
L 317.314118 91.519527 
L 319.981497 90.482147 
L 322.648877 89.444767 
L 325.316257 88.407387 
L 327.983636 87.370008 
L 330.651016 86.332628 
L 333.318396 85.295248 
L 335.985775 84.257868 
L 338.653155 83.220488 
L 341.320535 82.183108 
L 343.987914 81.145728 
L 346.655294 80.108348 
L 349.322674 79.070968 
L 351.990053 78.033589 
L 354.657433 76.996209 
L 357.324813 75.958829 
L 359.992193 74.921449 
L 362.659572 73.884069 
L 365.326952 72.846689 
L 367.994332 71.809309 
L 370.661711 70.771929 
L 373.329091 69.73455 
" clip-path="url(#p890e2c63e6)" style="fill: none; stroke: #bb3e03; stroke-width: 2; stroke-linecap: square"/>
   </g>
   <g id="patch_3">
    <path d="M 40.04 230.6 
L 40.04 28.357422 
" style="fill: none; stroke: #8090a0; stroke-width: 0.8; stroke-linejoin: miter; stroke-linecap: square"/>
   </g>
   <g id="patch_4">
    <path d="M 40.04 230.6 
L 389.2 230.6 
" style="fill: none; stroke: #8090a0; stroke-width: 0.8; stroke-linejoin: miter; stroke-linecap: square"/>
   </g>
   <g id="text_18">
    <!-- Regression scatter -->
    <g transform="translate(40.04 22.357422) scale(0.11 -0.11)">
     <defs>
      <path id="DejaVuSans-Bold-35" d="M 2297 2597 
Q 2675 2597 2839 2737 
Q 3003 2878 3003 3200 
Q 3003 3519 2839 3656 
Q 2675 3794 2297 3794 
L 1791 3794 
L 1791 2597 
L 2297 2597 
z
M 1791 1766 
L 1791 0 
L 588 0 
L 588 4666 
L 2425 4666 
Q 3347 4666 3776 4356 
Q 4206 4047 4206 3378 
Q 4206 2916 3982 2619 
Q 3759 2322 3309 2181 
Q 3556 2125 3751 1926 
Q 3947 1728 4147 1325 
L 4800 0 
L 3519 0 
L 2950 1159 
Q 2778 1509 2601 1637 
Q 2425 1766 2131 1766 
L 1791 1766 
z
" transform="scale(0.015625)"/>
      <path id="DejaVuSans-Bold-48" d="M 4031 1759 
L 4031 1441 
L 1416 1441 
Q 1456 1047 1700 850 
Q 1944 653 2381 653 
Q 2734 653 3104 758 
Q 3475 863 3866 1075 
L 3866 213 
Q 3469 63 3072 -14 
Q 2675 -91 2278 -91 
Q 1328 -91 801 392 
Q 275 875 275 1747 
Q 275 2603 792 3093 
Q 1309 3584 2216 3584 
Q 3041 3584 3536 3087 
Q 4031 2591 4031 1759 
z
M 2881 2131 
Q 2881 2450 2695 2645 
Q 2509 2841 2209 2841 
Q 1884 2841 1681 2658 
Q 1478 2475 1428 2131 
L 2881 2131 
z
" transform="scale(0.015625)"/>
      <path id="DejaVuSans-Bold-4a" d="M 2919 594 
Q 2688 288 2409 144 
Q 2131 0 1766 0 
Q 1125 0 706 504 
Q 288 1009 288 1791 
Q 288 2575 706 3076 
Q 1125 3578 1766 3578 
Q 2131 3578 2409 3434 
Q 2688 3291 2919 2981 
L 2919 3500 
L 4044 3500 
L 4044 353 
Q 4044 -491 3511 -936 
Q 2978 -1381 1966 -1381 
Q 1638 -1381 1331 -1331 
Q 1025 -1281 716 -1178 
L 716 -306 
Q 1009 -475 1290 -558 
Q 1572 -641 1856 -641 
Q 2406 -641 2662 -400 
Q 2919 -159 2919 353 
L 2919 594 
z
M 2181 2772 
Q 1834 2772 1640 2515 
Q 1447 2259 1447 1791 
Q 1447 1309 1634 1061 
Q 1822 813 2181 813 
Q 2531 813 2725 1069 
Q 2919 1325 2919 1791 
Q 2919 2259 2725 2515 
Q 2531 2772 2181 2772 
z
" transform="scale(0.015625)"/>
      <path id="DejaVuSans-Bold-55" d="M 3138 2547 
Q 2991 2616 2845 2648 
Q 2700 2681 2553 2681 
Q 2122 2681 1889 2404 
Q 1656 2128 1656 1613 
L 1656 0 
L 538 0 
L 538 3500 
L 1656 3500 
L 1656 2925 
Q 1872 3269 2151 3426 
Q 2431 3584 2822 3584 
Q 2878 3584 2943 3579 
Q 3009 3575 3134 3559 
L 3138 2547 
z
" transform="scale(0.015625)"/>
      <path id="DejaVuSans-Bold-56" d="M 3272 3391 
L 3272 2541 
Q 2913 2691 2578 2766 
Q 2244 2841 1947 2841 
Q 1628 2841 1473 2761 
Q 1319 2681 1319 2516 
Q 1319 2381 1436 2309 
Q 1553 2238 1856 2203 
L 2053 2175 
Q 2913 2066 3209 1816 
Q 3506 1566 3506 1031 
Q 3506 472 3093 190 
Q 2681 -91 1863 -91 
Q 1516 -91 1145 -36 
Q 775 19 384 128 
L 384 978 
Q 719 816 1070 734 
Q 1422 653 1784 653 
Q 2113 653 2278 743 
Q 2444 834 2444 1013 
Q 2444 1163 2330 1236 
Q 2216 1309 1875 1350 
L 1678 1375 
Q 931 1469 631 1722 
Q 331 1975 331 2491 
Q 331 3047 712 3315 
Q 1094 3584 1881 3584 
Q 2191 3584 2531 3537 
Q 2872 3491 3272 3391 
z
" transform="scale(0.015625)"/>
      <path id="DejaVuSans-Bold-4c" d="M 538 3500 
L 1656 3500 
L 1656 0 
L 538 0 
L 538 3500 
z
M 538 4863 
L 1656 4863 
L 1656 3950 
L 538 3950 
L 538 4863 
z
" transform="scale(0.015625)"/>
      <path id="DejaVuSans-Bold-52" d="M 2203 2784 
Q 1831 2784 1636 2517 
Q 1441 2250 1441 1747 
Q 1441 1244 1636 976 
Q 1831 709 2203 709 
Q 2569 709 2762 976 
Q 2956 1244 2956 1747 
Q 2956 2250 2762 2517 
Q 2569 2784 2203 2784 
z
M 2203 3584 
Q 3106 3584 3614 3096 
Q 4122 2609 4122 1747 
Q 4122 884 3614 396 
Q 3106 -91 2203 -91 
Q 1297 -91 786 396 
Q 275 884 275 1747 
Q 275 2609 786 3096 
Q 1297 3584 2203 3584 
z
" transform="scale(0.015625)"/>
      <path id="DejaVuSans-Bold-51" d="M 4056 2131 
L 4056 0 
L 2931 0 
L 2931 347 
L 2931 1631 
Q 2931 2084 2911 2256 
Q 2891 2428 2841 2509 
Q 2775 2619 2662 2680 
Q 2550 2741 2406 2741 
Q 2056 2741 1856 2470 
Q 1656 2200 1656 1722 
L 1656 0 
L 538 0 
L 538 3500 
L 1656 3500 
L 1656 2988 
Q 1909 3294 2193 3439 
Q 2478 3584 2822 3584 
Q 3428 3584 3742 3212 
Q 4056 2841 4056 2131 
z
" transform="scale(0.015625)"/>
      <path id="DejaVuSans-Bold-3" transform="scale(0.015625)"/>
      <path id="DejaVuSans-Bold-46" d="M 3366 3391 
L 3366 2478 
Q 3138 2634 2908 2709 
Q 2678 2784 2431 2784 
Q 1963 2784 1702 2511 
Q 1441 2238 1441 1747 
Q 1441 1256 1702 982 
Q 1963 709 2431 709 
Q 2694 709 2930 787 
Q 3166 866 3366 1019 
L 3366 103 
Q 3103 6 2833 -42 
Q 2563 -91 2291 -91 
Q 1344 -91 809 395 
Q 275 881 275 1747 
Q 275 2613 809 3098 
Q 1344 3584 2291 3584 
Q 2566 3584 2833 3536 
Q 3100 3488 3366 3391 
z
" transform="scale(0.015625)"/>
      <path id="DejaVuSans-Bold-44" d="M 2106 1575 
Q 1756 1575 1579 1456 
Q 1403 1338 1403 1106 
Q 1403 894 1545 773 
Q 1688 653 1941 653 
Q 2256 653 2472 879 
Q 2688 1106 2688 1447 
L 2688 1575 
L 2106 1575 
z
M 3816 1997 
L 3816 0 
L 2688 0 
L 2688 519 
Q 2463 200 2181 54 
Q 1900 -91 1497 -91 
Q 953 -91 614 226 
Q 275 544 275 1050 
Q 275 1666 698 1953 
Q 1122 2241 2028 2241 
L 2688 2241 
L 2688 2328 
Q 2688 2594 2478 2717 
Q 2269 2841 1825 2841 
Q 1466 2841 1156 2769 
Q 847 2697 581 2553 
L 581 3406 
Q 941 3494 1303 3539 
Q 1666 3584 2028 3584 
Q 2975 3584 3395 3211 
Q 3816 2838 3816 1997 
z
" transform="scale(0.015625)"/>
      <path id="DejaVuSans-Bold-57" d="M 1759 4494 
L 1759 3500 
L 2913 3500 
L 2913 2700 
L 1759 2700 
L 1759 1216 
Q 1759 972 1856 886 
Q 1953 800 2241 800 
L 2816 800 
L 2816 0 
L 1856 0 
Q 1194 0 917 276 
Q 641 553 641 1216 
L 641 2700 
L 84 2700 
L 84 3500 
L 641 3500 
L 641 4494 
L 1759 4494 
z
" transform="scale(0.015625)"/>
     </defs>
     <use xlink:href="#DejaVuSans-Bold-35"/>
     <use xlink:href="#DejaVuSans-Bold-48" transform="translate(77 0)"/>
     <use xlink:href="#DejaVuSans-Bold-4a" transform="translate(144.828125 0)"/>
     <use xlink:href="#DejaVuSans-Bold-55" transform="translate(216.40625 0)"/>
     <use xlink:href="#DejaVuSans-Bold-48" transform="translate(265.71875 0)"/>
     <use xlink:href="#DejaVuSans-Bold-56" transform="translate(333.546875 0)"/>
     <use xlink:href="#DejaVuSans-Bold-56" transform="translate(393.0625 0)"/>
     <use xlink:href="#DejaVuSans-Bold-4c" transform="translate(452.578125 0)"/>
     <use xlink:href="#DejaVuSans-Bold-52" transform="translate(486.859375 0)"/>
     <use xlink:href="#DejaVuSans-Bold-51" transform="translate(555.5625 0)"/>
     <use xlink:href="#DejaVuSans-Bold-3" transform="translate(626.75 0)"/>
     <use xlink:href="#DejaVuSans-Bold-56" transform="translate(661.5625 0)"/>
     <use xlink:href="#DejaVuSans-Bold-46" transform="translate(721.078125 0)"/>
     <use xlink:href="#DejaVuSans-Bold-44" transform="translate(780.359375 0)"/>
     <use xlink:href="#DejaVuSans-Bold-57" transform="translate(847.84375 0)"/>
     <use xlink:href="#DejaVuSans-Bold-57" transform="translate(895.640625 0)"/>
     <use xlink:href="#DejaVuSans-Bold-48" transform="translate(943.4375 0)"/>
     <use xlink:href="#DejaVuSans-Bold-55" transform="translate(1011.265625 0)"/>
    </g>
   </g>
   <g id="legend_1">
    <g id="line2d_32">
     <path d="M 47.24 38.836172 
L 55.24 38.836172 
L 63.24 38.836172 
" style="fill: none; stroke: #bb3e03; stroke-width: 2; stroke-linecap: square"/>
    </g>
    <g id="text_19">
     <!-- linear fit -->
     <g transform="translate(69.64 41.636172) scale(0.08 -0.08)">
      <defs>
       <path id="DejaVuSans-4f" d="M 603 4863 
L 1178 4863 
L 1178 0 
L 603 0 
L 603 4863 
z
" transform="scale(0.015625)"/>
       <path id="DejaVuSans-4c" d="M 603 3500 
L 1178 3500 
L 1178 0 
L 603 0 
L 603 3500 
z
M 603 4863 
L 1178 4863 
L 1178 4134 
L 603 4134 
L 603 4863 
z
" transform="scale(0.015625)"/>
       <path id="DejaVuSans-48" d="M 3597 1894 
L 3597 1613 
L 953 1613 
Q 991 1019 1311 708 
Q 1631 397 2203 397 
Q 2534 397 2845 478 
Q 3156 559 3463 722 
L 3463 178 
Q 3153 47 2828 -22 
Q 2503 -91 2169 -91 
Q 1331 -91 842 396 
Q 353 884 353 1716 
Q 353 2575 817 3079 
Q 1281 3584 2069 3584 
Q 2775 3584 3186 3129 
Q 3597 2675 3597 1894 
z
M 3022 2063 
Q 3016 2534 2758 2815 
Q 2500 3097 2075 3097 
Q 1594 3097 1305 2825 
Q 1016 2553 972 2059 
L 3022 2063 
z
" transform="scale(0.015625)"/>
       <path id="DejaVuSans-44" d="M 2194 1759 
Q 1497 1759 1228 1600 
Q 959 1441 959 1056 
Q 959 750 1161 570 
Q 1363 391 1709 391 
Q 2188 391 2477 730 
Q 2766 1069 2766 1631 
L 2766 1759 
L 2194 1759 
z
M 3341 1997 
L 3341 0 
L 2766 0 
L 2766 531 
Q 2569 213 2275 61 
Q 1981 -91 1556 -91 
Q 1019 -91 701 211 
Q 384 513 384 1019 
Q 384 1609 779 1909 
Q 1175 2209 1959 2209 
L 2766 2209 
L 2766 2266 
Q 2766 2663 2505 2880 
Q 2244 3097 1772 3097 
Q 1472 3097 1187 3025 
Q 903 2953 641 2809 
L 641 3341 
Q 956 3463 1253 3523 
Q 1550 3584 1831 3584 
Q 2591 3584 2966 3190 
Q 3341 2797 3341 1997 
z
" transform="scale(0.015625)"/>
       <path id="DejaVuSans-55" d="M 2631 2963 
Q 2534 3019 2420 3045 
Q 2306 3072 2169 3072 
Q 1681 3072 1420 2755 
Q 1159 2438 1159 1844 
L 1159 0 
L 581 0 
L 581 3500 
L 1159 3500 
L 1159 2956 
Q 1341 3275 1631 3429 
Q 1922 3584 2338 3584 
Q 2397 3584 2469 3576 
Q 2541 3569 2628 3553 
L 2631 2963 
z
" transform="scale(0.015625)"/>
       <path id="DejaVuSans-3" transform="scale(0.015625)"/>
       <path id="DejaVuSans-13af" d="M 3431 3500 
L 3431 0 
L 2853 0 
L 2853 3053 
L 1275 3053 
L 1275 0 
L 697 0 
L 697 3053 
L 147 3053 
L 147 3500 
L 697 3500 
L 697 3744 
Q 697 4316 967 4589 
Q 1238 4863 1797 4863 
L 2375 4863 
L 2375 4384 
L 1825 4384 
Q 1516 4384 1395 4259 
Q 1275 4134 1275 3809 
L 1275 3500 
L 3431 3500 
z
M 2853 4856 
L 3431 4856 
L 3431 4128 
L 2853 4128 
L 2853 4856 
z
" transform="scale(0.015625)"/>
      </defs>
      <use xlink:href="#DejaVuSans-4f"/>
      <use xlink:href="#DejaVuSans-4c" transform="translate(27.78125 0)"/>
      <use xlink:href="#DejaVuSans-51" transform="translate(55.5625 0)"/>
      <use xlink:href="#DejaVuSans-48" transform="translate(118.9375 0)"/>
      <use xlink:href="#DejaVuSans-44" transform="translate(180.46875 0)"/>
      <use xlink:href="#DejaVuSans-55" transform="translate(241.75 0)"/>
      <use xlink:href="#DejaVuSans-3" transform="translate(282.859375 0)"/>
      <use xlink:href="#DejaVuSans-13af" transform="translate(314.640625 0)"/>
      <use xlink:href="#DejaVuSans-57" transform="translate(377.625 0)"/>
     </g>
    </g>
   </g>
  </g>
 </g>
 <defs>
  <clipPath id="p890e2c63e6">
   <rect x="40.04" y="28.357422" width="349.16" height="202.242578"/>
  </clipPath>
 </defs>
</svg>
