<?xml version="1.0" encoding="utf-8" standalone="no"?>
<!DOCTYPE svg PUBLIC "-//W3C//DTD SVG 1.1//EN"
  "http://www.w3.org/Graphics/SVG/1.1/DTD/svg11.dtd">
<svg xmlns:xlink="http://www.w3.org/1999/xlink" width="446.4pt" height="259.2pt" viewBox="0 0 446.4 259.2" xmlns="http://www.w3.org/2000/svg" version="1.1">
 <metadata>
  <rdf:RDF xmlns:dc="http://purl.org/dc/elements/1.1/" xmlns:cc="http://creativecommons.org/ns#" xmlns:rdf="http://www.w3.org/1999/02/22-rdf-syntax-ns#">
   <cc:Work>
    <dc:type rdf:resource="http://purl.org/dc/dcmitype/StillImage"/>
    <dc:date>2026-06-30T09:18:14.540152</dc:date>
    <dc:format>image/svg+xml</dc:format>
    <dc:creator>
     <cc:Agent>
      <dc:title>python-plotting-skill clean-room renderer</dc:title>
     </cc:Agent>
    </dc:creator>
   </cc:Work>
  </rdf:RDF>
 </metadata>
 <defs>
  <style type="text/css">*{stroke-linejoin: round; stroke-linecap: butt}</style>
 </defs>
 <g id="figure_1">
  <g id="patch_1">
   <path d="M 0 259.2 
L 446.4 259.2 
L 446.4 0 
L 0 0 
z
" style="fill: #ffffff"/>
  </g>
  <g id="axes_1">
   <g id="patch_2">
    <path d="M 51.882344 215.877656 
L 427.36 215.877656 
L 427.36 28.357422 
L 51.882344 28.357422 
z
" style="fill: #ffffff"/>
   </g>
   <g id="matplotlib.axis_1">
    <g id="xtick_1">
     <g id="line2d_1">
      <path d="M 51.882344 215.877656 
L 51.882344 28.357422 
" clip-path="url(#p3fddecc6ae)" style="fill: none; stroke: #d9dee7; stroke-opacity: 0.75; stroke-width: 0.7; stroke-linecap: square"/>
     </g>
     <g id="line2d_2">
      <defs>
       <path id="m959e9f4884" d="M 0 0 
L 0 3.5 
" style="stroke: #324052; stroke-width: 0.8"/>
      </defs>
      <g>
       <use xlink:href="#m959e9f4884" x="51.882344" y="215.877656" style="fill: #324052; stroke: #324052; stroke-width: 0.8"/>
      </g>
     </g>
     <g id="text_1">
      <!-- 0 -->
      <g style="fill: #324052" transform="translate(49.337344 228.955781) scale(0.08 -0.08)">
       <defs>
        <path id="DejaVuSans-13" d="M 2034 4250 
Q 1547 4250 1301 3770 
Q 1056 3291 1056 2328 
Q 1056 1369 1301 889 
Q 1547 409 2034 409 
Q 2525 409 2770 889 
Q 3016 1369 3016 2328 
Q 3016 3291 2770 3770 
Q 2525 4250 2034 4250 
z
M 2034 4750 
Q 2819 4750 3233 4129 
Q 3647 3509 3647 2328 
Q 3647 1150 3233 529 
Q 2819 -91 2034 -91 
Q 1250 -91 836 529 
Q 422 1150 422 2328 
Q 422 3509 836 4129 
Q 1250 4750 2034 4750 
z
" transform="scale(0.015625)"/>
       </defs>
       <use xlink:href="#DejaVuSans-13"/>
      </g>
     </g>
    </g>
    <g id="xtick_2">
     <g id="line2d_3">
      <path d="M 98.817051 215.877656 
L 98.817051 28.357422 
" clip-path="url(#p3fddecc6ae)" style="fill: none; stroke: #d9dee7; stroke-opacity: 0.75; stroke-width: 0.7; stroke-linecap: square"/>
     </g>
     <g id="line2d_4">
      <g>
       <use xlink:href="#m959e9f4884" x="98.817051" y="215.877656" style="fill: #324052; stroke: #324052; stroke-width: 0.8"/>
      </g>
     </g>
     <g id="text_2">
      <!-- 10 -->
      <g style="fill: #324052" transform="translate(93.727051 228.955781) scale(0.08 -0.08)">
       <defs>
        <path id="DejaVuSans-14" d="M 794 531 
L 1825 531 
L 1825 4091 
L 703 3866 
L 703 4441 
L 1819 4666 
L 2450 4666 
L 2450 531 
L 3481 531 
L 3481 0 
L 794 0 
L 794 531 
z
" transform="scale(0.015625)"/>
       </defs>
       <use xlink:href="#DejaVuSans-14"/>
       <use xlink:href="#DejaVuSans-13" transform="translate(63.625 0)"/>
      </g>
     </g>
    </g>
    <g id="xtick_3">
     <g id="line2d_5">
      <path d="M 145.751758 215.877656 
L 145.751758 28.357422 
" clip-path="url(#p3fddecc6ae)" style="fill: none; stroke: #d9dee7; stroke-opacity: 0.75; stroke-width: 0.7; stroke-linecap: square"/>
     </g>
     <g id="line2d_6">
      <g>
       <use xlink:href="#m959e9f4884" x="145.751758" y="215.877656" style="fill: #324052; stroke: #324052; stroke-width: 0.8"/>
      </g>
     </g>
     <g id="text_3">
      <!-- 20 -->
      <g style="fill: #324052" transform="translate(140.661758 228.955781) scale(0.08 -0.08)">
       <defs>
        <path id="DejaVuSans-15" d="M 1228 531 
L 3431 531 
L 3431 0 
L 469 0 
L 469 531 
Q 828 903 1448 1529 
Q 2069 2156 2228 2338 
Q 2531 2678 2651 2914 
Q 2772 3150 2772 3378 
Q 2772 3750 2511 3984 
Q 2250 4219 1831 4219 
Q 1534 4219 1204 4116 
Q 875 4013 500 3803 
L 500 4441 
Q 881 4594 1212 4672 
Q 1544 4750 1819 4750 
Q 2544 4750 2975 4387 
Q 3406 4025 3406 3419 
Q 3406 3131 3298 2873 
Q 3191 2616 2906 2266 
Q 2828 2175 2409 1742 
Q 1991 1309 1228 531 
z
" transform="scale(0.015625)"/>
       </defs>
       <use xlink:href="#DejaVuSans-15"/>
       <use xlink:href="#DejaVuSans-13" transform="translate(63.625 0)"/>
      </g>
     </g>
    </g>
    <g id="xtick_4">
     <g id="line2d_7">
      <path d="M 192.686465 215.877656 
L 192.686465 28.357422 
" clip-path="url(#p3fddecc6ae)" style="fill: none; stroke: #d9dee7; stroke-opacity: 0.75; stroke-width: 0.7; stroke-linecap: square"/>
     </g>
     <g id="line2d_8">
      <g>
       <use xlink:href="#m959e9f4884" x="192.686465" y="215.877656" style="fill: #324052; stroke: #324052; stroke-width: 0.8"/>
      </g>
     </g>
     <g id="text_4">
      <!-- 30 -->
      <g style="fill: #324052" transform="translate(187.596465 228.955781) scale(0.08 -0.08)">
       <defs>
        <path id="DejaVuSans-16" d="M 2597 2516 
Q 3050 2419 3304 2112 
Q 3559 1806 3559 1356 
Q 3559 666 3084 287 
Q 2609 -91 1734 -91 
Q 1441 -91 1130 -33 
Q 819 25 488 141 
L 488 750 
Q 750 597 1062 519 
Q 1375 441 1716 441 
Q 2309 441 2620 675 
Q 2931 909 2931 1356 
Q 2931 1769 2642 2001 
Q 2353 2234 1838 2234 
L 1294 2234 
L 1294 2753 
L 1863 2753 
Q 2328 2753 2575 2939 
Q 2822 3125 2822 3475 
Q 2822 3834 2567 4026 
Q 2313 4219 1838 4219 
Q 1578 4219 1281 4162 
Q 984 4106 628 3988 
L 628 4550 
Q 988 4650 1302 4700 
Q 1616 4750 1894 4750 
Q 2613 4750 3031 4423 
Q 3450 4097 3450 3541 
Q 3450 3153 3228 2886 
Q 3006 2619 2597 2516 
z
" transform="scale(0.015625)"/>
       </defs>
       <use xlink:href="#DejaVuSans-16"/>
       <use xlink:href="#DejaVuSans-13" transform="translate(63.625 0)"/>
      </g>
     </g>
    </g>
    <g id="xtick_5">
     <g id="line2d_9">
      <path d="M 239.621172 215.877656 
L 239.621172 28.357422 
" clip-path="url(#p3fddecc6ae)" style="fill: none; stroke: #d9dee7; stroke-opacity: 0.75; stroke-width: 0.7; stroke-linecap: square"/>
     </g>
     <g id="line2d_10">
      <g>
       <use xlink:href="#m959e9f4884" x="239.621172" y="215.877656" style="fill: #324052; stroke: #324052; stroke-width: 0.8"/>
      </g>
     </g>
     <g id="text_5">
      <!-- 40 -->
      <g style="fill: #324052" transform="translate(234.531172 228.955781) scale(0.08 -0.08)">
       <defs>
        <path id="DejaVuSans-17" d="M 2419 4116 
L 825 1625 
L 2419 1625 
L 2419 4116 
z
M 2253 4666 
L 3047 4666 
L 3047 1625 
L 3713 1625 
L 3713 1100 
L 3047 1100 
L 3047 0 
L 2419 0 
L 2419 1100 
L 313 1100 
L 313 1709 
L 2253 4666 
z
" transform="scale(0.015625)"/>
       </defs>
       <use xlink:href="#DejaVuSans-17"/>
       <use xlink:href="#DejaVuSans-13" transform="translate(63.625 0)"/>
      </g>
     </g>
    </g>
    <g id="xtick_6">
     <g id="line2d_11">
      <path d="M 286.555879 215.877656 
L 286.555879 28.357422 
" clip-path="url(#p3fddecc6ae)" style="fill: none; stroke: #d9dee7; stroke-opacity: 0.75; stroke-width: 0.7; stroke-linecap: square"/>
     </g>
     <g id="line2d_12">
      <g>
       <use xlink:href="#m959e9f4884" x="286.555879" y="215.877656" style="fill: #324052; stroke: #324052; stroke-width: 0.8"/>
      </g>
     </g>
     <g id="text_6">
      <!-- 50 -->
      <g style="fill: #324052" transform="translate(281.465879 228.955781) scale(0.08 -0.08)">
       <defs>
        <path id="DejaVuSans-18" d="M 691 4666 
L 3169 4666 
L 3169 4134 
L 1269 4134 
L 1269 2991 
Q 1406 3038 1543 3061 
Q 1681 3084 1819 3084 
Q 2600 3084 3056 2656 
Q 3513 2228 3513 1497 
Q 3513 744 3044 326 
Q 2575 -91 1722 -91 
Q 1428 -91 1123 -41 
Q 819 9 494 109 
L 494 744 
Q 775 591 1075 516 
Q 1375 441 1709 441 
Q 2250 441 2565 725 
Q 2881 1009 2881 1497 
Q 2881 1984 2565 2268 
Q 2250 2553 1709 2553 
Q 1456 2553 1204 2497 
Q 953 2441 691 2322 
L 691 4666 
z
" transform="scale(0.015625)"/>
       </defs>
       <use xlink:href="#DejaVuSans-18"/>
       <use xlink:href="#DejaVuSans-13" transform="translate(63.625 0)"/>
      </g>
     </g>
    </g>
    <g id="xtick_7">
     <g id="line2d_13">
      <path d="M 333.490586 215.877656 
L 333.490586 28.357422 
" clip-path="url(#p3fddecc6ae)" style="fill: none; stroke: #d9dee7; stroke-opacity: 0.75; stroke-width: 0.7; stroke-linecap: square"/>
     </g>
     <g id="line2d_14">
      <g>
       <use xlink:href="#m959e9f4884" x="333.490586" y="215.877656" style="fill: #324052; stroke: #324052; stroke-width: 0.8"/>
      </g>
     </g>
     <g id="text_7">
      <!-- 60 -->
      <g style="fill: #324052" transform="translate(328.400586 228.955781) scale(0.08 -0.08)">
       <defs>
        <path id="DejaVuSans-19" d="M 2113 2584 
Q 1688 2584 1439 2293 
Q 1191 2003 1191 1497 
Q 1191 994 1439 701 
Q 1688 409 2113 409 
Q 2538 409 2786 701 
Q 3034 994 3034 1497 
Q 3034 2003 2786 2293 
Q 2538 2584 2113 2584 
z
M 3366 4563 
L 3366 3988 
Q 3128 4100 2886 4159 
Q 2644 4219 2406 4219 
Q 1781 4219 1451 3797 
Q 1122 3375 1075 2522 
Q 1259 2794 1537 2939 
Q 1816 3084 2150 3084 
Q 2853 3084 3261 2657 
Q 3669 2231 3669 1497 
Q 3669 778 3244 343 
Q 2819 -91 2113 -91 
Q 1303 -91 875 529 
Q 447 1150 447 2328 
Q 447 3434 972 4092 
Q 1497 4750 2381 4750 
Q 2619 4750 2861 4703 
Q 3103 4656 3366 4563 
z
" transform="scale(0.015625)"/>
       </defs>
       <use xlink:href="#DejaVuSans-19"/>
       <use xlink:href="#DejaVuSans-13" transform="translate(63.625 0)"/>
      </g>
     </g>
    </g>
    <g id="xtick_8">
     <g id="line2d_15">
      <path d="M 380.425293 215.877656 
L 380.425293 28.357422 
" clip-path="url(#p3fddecc6ae)" style="fill: none; stroke: #d9dee7; stroke-opacity: 0.75; stroke-width: 0.7; stroke-linecap: square"/>
     </g>
     <g id="line2d_16">
      <g>
       <use xlink:href="#m959e9f4884" x="380.425293" y="215.877656" style="fill: #324052; stroke: #324052; stroke-width: 0.8"/>
      </g>
     </g>
     <g id="text_8">
      <!-- 70 -->
      <g style="fill: #324052" transform="translate(375.335293 228.955781) scale(0.08 -0.08)">
       <defs>
        <path id="DejaVuSans-1a" d="M 525 4666 
L 3525 4666 
L 3525 4397 
L 1831 0 
L 1172 0 
L 2766 4134 
L 525 4134 
L 525 4666 
z
" transform="scale(0.015625)"/>
       </defs>
       <use xlink:href="#DejaVuSans-1a"/>
       <use xlink:href="#DejaVuSans-13" transform="translate(63.625 0)"/>
      </g>
     </g>
    </g>
    <g id="xtick_9">
     <g id="line2d_17">
      <path d="M 427.36 215.877656 
L 427.36 28.357422 
" clip-path="url(#p3fddecc6ae)" style="fill: none; stroke: #d9dee7; stroke-opacity: 0.75; stroke-width: 0.7; stroke-linecap: square"/>
     </g>
     <g id="line2d_18">
      <g>
       <use xlink:href="#m959e9f4884" x="427.36" y="215.877656" style="fill: #324052; stroke: #324052; stroke-width: 0.8"/>
      </g>
     </g>
     <g id="text_9">
      <!-- 80 -->
      <g style="fill: #324052" transform="translate(422.27 228.955781) scale(0.08 -0.08)">
       <defs>
        <path id="DejaVuSans-1b" d="M 2034 2216 
Q 1584 2216 1326 1975 
Q 1069 1734 1069 1313 
Q 1069 891 1326 650 
Q 1584 409 2034 409 
Q 2484 409 2743 651 
Q 3003 894 3003 1313 
Q 3003 1734 2745 1975 
Q 2488 2216 2034 2216 
z
M 1403 2484 
Q 997 2584 770 2862 
Q 544 3141 544 3541 
Q 544 4100 942 4425 
Q 1341 4750 2034 4750 
Q 2731 4750 3128 4425 
Q 3525 4100 3525 3541 
Q 3525 3141 3298 2862 
Q 3072 2584 2669 2484 
Q 3125 2378 3379 2068 
Q 3634 1759 3634 1313 
Q 3634 634 3220 271 
Q 2806 -91 2034 -91 
Q 1263 -91 848 271 
Q 434 634 434 1313 
Q 434 1759 690 2068 
Q 947 2378 1403 2484 
z
M 1172 3481 
Q 1172 3119 1398 2916 
Q 1625 2713 2034 2713 
Q 2441 2713 2670 2916 
Q 2900 3119 2900 3481 
Q 2900 3844 2670 4047 
Q 2441 4250 2034 4250 
Q 1625 4250 1398 4047 
Q 1172 3844 1172 3481 
z
" transform="scale(0.015625)"/>
       </defs>
       <use xlink:href="#DejaVuSans-1b"/>
       <use xlink:href="#DejaVuSans-13" transform="translate(63.625 0)"/>
      </g>
     </g>
    </g>
    <g id="text_10">
     <!-- Frequency (Hz) -->
     <g transform="translate(201.915703 242.475313) scale(0.1 -0.1)">
      <defs>
       <path id="DejaVuSans-29" d="M 628 4666 
L 3309 4666 
L 3309 4134 
L 1259 4134 
L 1259 2759 
L 3109 2759 
L 3109 2228 
L 1259 2228 
L 1259 0 
L 628 0 
L 628 4666 
z
" transform="scale(0.015625)"/>
       <path id="DejaVuSans-55" d="M 2631 2963 
Q 2534 3019 2420 3045 
Q 2306 3072 2169 3072 
Q 1681 3072 1420 2755 
Q 1159 2438 1159 1844 
L 1159 0 
L 581 0 
L 581 3500 
L 1159 3500 
L 1159 2956 
Q 1341 3275 1631 3429 
Q 1922 3584 2338 3584 
Q 2397 3584 2469 3576 
Q 2541 3569 2628 3553 
L 2631 2963 
z
" transform="scale(0.015625)"/>
       <path id="DejaVuSans-48" d="M 3597 1894 
L 3597 1613 
L 953 1613 
Q 991 1019 1311 708 
Q 1631 397 2203 397 
Q 2534 397 2845 478 
Q 3156 559 3463 722 
L 3463 178 
Q 3153 47 2828 -22 
Q 2503 -91 2169 -91 
Q 1331 -91 842 396 
Q 353 884 353 1716 
Q 353 2575 817 3079 
Q 1281 3584 2069 3584 
Q 2775 3584 3186 3129 
Q 3597 2675 3597 1894 
z
M 3022 2063 
Q 3016 2534 2758 2815 
Q 2500 3097 2075 3097 
Q 1594 3097 1305 2825 
Q 1016 2553 972 2059 
L 3022 2063 
z
" transform="scale(0.015625)"/>
       <path id="DejaVuSans-54" d="M 947 1747 
Q 947 1113 1208 752 
Q 1469 391 1925 391 
Q 2381 391 2643 752 
Q 2906 1113 2906 1747 
Q 2906 2381 2643 2742 
Q 2381 3103 1925 3103 
Q 1469 3103 1208 2742 
Q 947 2381 947 1747 
z
M 2906 525 
Q 2725 213 2448 61 
Q 2172 -91 1784 -91 
Q 1150 -91 751 415 
Q 353 922 353 1747 
Q 353 2572 751 3078 
Q 1150 3584 1784 3584 
Q 2172 3584 2448 3432 
Q 2725 3281 2906 2969 
L 2906 3500 
L 3481 3500 
L 3481 -1331 
L 2906 -1331 
L 2906 525 
z
" transform="scale(0.015625)"/>
       <path id="DejaVuSans-58" d="M 544 1381 
L 544 3500 
L 1119 3500 
L 1119 1403 
Q 1119 906 1312 657 
Q 1506 409 1894 409 
Q 2359 409 2629 706 
Q 2900 1003 2900 1516 
L 2900 3500 
L 3475 3500 
L 3475 0 
L 2900 0 
L 2900 538 
Q 2691 219 2414 64 
Q 2138 -91 1772 -91 
Q 1169 -91 856 284 
Q 544 659 544 1381 
z
M 1991 3584 
L 1991 3584 
z
" transform="scale(0.015625)"/>
       <path id="DejaVuSans-51" d="M 3513 2113 
L 3513 0 
L 2938 0 
L 2938 2094 
Q 2938 2591 2744 2837 
Q 2550 3084 2163 3084 
Q 1697 3084 1428 2787 
Q 1159 2491 1159 1978 
L 1159 0 
L 581 0 
L 581 3500 
L 1159 3500 
L 1159 2956 
Q 1366 3272 1645 3428 
Q 1925 3584 2291 3584 
Q 2894 3584 3203 3211 
Q 3513 2838 3513 2113 
z
" transform="scale(0.015625)"/>
       <path id="DejaVuSans-46" d="M 3122 3366 
L 3122 2828 
Q 2878 2963 2633 3030 
Q 2388 3097 2138 3097 
Q 1578 3097 1268 2742 
Q 959 2388 959 1747 
Q 959 1106 1268 751 
Q 1578 397 2138 397 
Q 2388 397 2633 464 
Q 2878 531 3122 666 
L 3122 134 
Q 2881 22 2623 -34 
Q 2366 -91 2075 -91 
Q 1284 -91 818 406 
Q 353 903 353 1747 
Q 353 2603 823 3093 
Q 1294 3584 2113 3584 
Q 2378 3584 2631 3529 
Q 2884 3475 3122 3366 
z
" transform="scale(0.015625)"/>
       <path id="DejaVuSans-5c" d="M 2059 -325 
Q 1816 -950 1584 -1140 
Q 1353 -1331 966 -1331 
L 506 -1331 
L 506 -850 
L 844 -850 
Q 1081 -850 1212 -737 
Q 1344 -625 1503 -206 
L 1606 56 
L 191 3500 
L 800 3500 
L 1894 763 
L 2988 3500 
L 3597 3500 
L 2059 -325 
z
" transform="scale(0.015625)"/>
       <path id="DejaVuSans-3" transform="scale(0.015625)"/>
       <path id="DejaVuSans-b" d="M 1984 4856 
Q 1566 4138 1362 3434 
Q 1159 2731 1159 2009 
Q 1159 1288 1364 580 
Q 1569 -128 1984 -844 
L 1484 -844 
Q 1016 -109 783 600 
Q 550 1309 550 2009 
Q 550 2706 781 3412 
Q 1013 4119 1484 4856 
L 1984 4856 
z
" transform="scale(0.015625)"/>
       <path id="DejaVuSans-2b" d="M 628 4666 
L 1259 4666 
L 1259 2753 
L 3553 2753 
L 3553 4666 
L 4184 4666 
L 4184 0 
L 3553 0 
L 3553 2222 
L 1259 2222 
L 1259 0 
L 628 0 
L 628 4666 
z
" transform="scale(0.015625)"/>
       <path id="DejaVuSans-5d" d="M 353 3500 
L 3084 3500 
L 3084 2975 
L 922 459 
L 3084 459 
L 3084 0 
L 275 0 
L 275 525 
L 2438 3041 
L 353 3041 
L 353 3500 
z
" transform="scale(0.015625)"/>
       <path id="DejaVuSans-c" d="M 513 4856 
L 1013 4856 
Q 1481 4119 1714 3412 
Q 1947 2706 1947 2009 
Q 1947 1309 1714 600 
Q 1481 -109 1013 -844 
L 513 -844 
Q 928 -128 1133 580 
Q 1338 1288 1338 2009 
Q 1338 2731 1133 3434 
Q 928 4138 513 4856 
z
" transform="scale(0.015625)"/>
      </defs>
      <use xlink:href="#DejaVuSans-29"/>
      <use xlink:href="#DejaVuSans-55" transform="translate(50.234375 0)"/>
      <use xlink:href="#DejaVuSans-48" transform="translate(89.140625 0)"/>
      <use xlink:href="#DejaVuSans-54" transform="translate(150.671875 0)"/>
      <use xlink:href="#DejaVuSans-58" transform="translate(214.15625 0)"/>
      <use xlink:href="#DejaVuSans-48" transform="translate(277.53125 0)"/>
      <use xlink:href="#DejaVuSans-51" transform="translate(339.0625 0)"/>
      <use xlink:href="#DejaVuSans-46" transform="translate(402.4375 0)"/>
      <use xlink:href="#DejaVuSans-5c" transform="translate(457.421875 0)"/>
      <use xlink:href="#DejaVuSans-3" transform="translate(516.609375 0)"/>
      <use xlink:href="#DejaVuSans-b" transform="translate(548.390625 0)"/>
      <use xlink:href="#DejaVuSans-2b" transform="translate(587.40625 0)"/>
      <use xlink:href="#DejaVuSans-5d" transform="translate(662.609375 0)"/>
      <use xlink:href="#DejaVuSans-c" transform="translate(715.09375 0)"/>
     </g>
    </g>
   </g>
   <g id="matplotlib.axis_2">
    <g id="ytick_1">
     <g id="line2d_19">
      <path d="M 51.882344 203.102391 
L 427.36 203.102391 
" clip-path="url(#p3fddecc6ae)" style="fill: none; stroke: #d9dee7; stroke-opacity: 0.75; stroke-width: 0.7; stroke-linecap: square"/>
     </g>
     <g id="line2d_20">
      <defs>
       <path id="m2548724a7f" d="M 0 0 
L -3.5 0 
" style="stroke: #324052; stroke-width: 0.8"/>
      </defs>
      <g>
       <use xlink:href="#m2548724a7f" x="51.882344" y="203.102391" style="fill: #324052; stroke: #324052; stroke-width: 0.8"/>
      </g>
     </g>
     <g id="text_11">
      <!-- −60 -->
      <g style="fill: #324052" transform="translate(27.998594 206.141453) scale(0.08 -0.08)">
       <defs>
        <path id="DejaVuSans-c9c" d="M 678 2272 
L 4684 2272 
L 4684 1741 
L 678 1741 
L 678 2272 
z
" transform="scale(0.015625)"/>
       </defs>
       <use xlink:href="#DejaVuSans-c9c"/>
       <use xlink:href="#DejaVuSans-19" transform="translate(83.796875 0)"/>
       <use xlink:href="#DejaVuSans-13" transform="translate(147.421875 0)"/>
      </g>
     </g>
    </g>
    <g id="ytick_2">
     <g id="line2d_21">
      <path d="M 51.882344 174.150515 
L 427.36 174.150515 
" clip-path="url(#p3fddecc6ae)" style="fill: none; stroke: #d9dee7; stroke-opacity: 0.75; stroke-width: 0.7; stroke-linecap: square"/>
     </g>
     <g id="line2d_22">
      <g>
       <use xlink:href="#m2548724a7f" x="51.882344" y="174.150515" style="fill: #324052; stroke: #324052; stroke-width: 0.8"/>
      </g>
     </g>
     <g id="text_12">
      <!-- −50 -->
      <g style="fill: #324052" transform="translate(27.998594 177.189578) scale(0.08 -0.08)">
       <use xlink:href="#DejaVuSans-c9c"/>
       <use xlink:href="#DejaVuSans-18" transform="translate(83.796875 0)"/>
       <use xlink:href="#DejaVuSans-13" transform="translate(147.421875 0)"/>
      </g>
     </g>
    </g>
    <g id="ytick_3">
     <g id="line2d_23">
      <path d="M 51.882344 145.198639 
L 427.36 145.198639 
" clip-path="url(#p3fddecc6ae)" style="fill: none; stroke: #d9dee7; stroke-opacity: 0.75; stroke-width: 0.7; stroke-linecap: square"/>
     </g>
     <g id="line2d_24">
      <g>
       <use xlink:href="#m2548724a7f" x="51.882344" y="145.198639" style="fill: #324052; stroke: #324052; stroke-width: 0.8"/>
      </g>
     </g>
     <g id="text_13">
      <!-- −40 -->
      <g style="fill: #324052" transform="translate(27.998594 148.237702) scale(0.08 -0.08)">
       <use xlink:href="#DejaVuSans-c9c"/>
       <use xlink:href="#DejaVuSans-17" transform="translate(83.796875 0)"/>
       <use xlink:href="#DejaVuSans-13" transform="translate(147.421875 0)"/>
      </g>
     </g>
    </g>
    <g id="ytick_4">
     <g id="line2d_25">
      <path d="M 51.882344 116.246764 
L 427.36 116.246764 
" clip-path="url(#p3fddecc6ae)" style="fill: none; stroke: #d9dee7; stroke-opacity: 0.75; stroke-width: 0.7; stroke-linecap: square"/>
     </g>
     <g id="line2d_26">
      <g>
       <use xlink:href="#m2548724a7f" x="51.882344" y="116.246764" style="fill: #324052; stroke: #324052; stroke-width: 0.8"/>
      </g>
     </g>
     <g id="text_14">
      <!-- −30 -->
      <g style="fill: #324052" transform="translate(27.998594 119.285826) scale(0.08 -0.08)">
       <use xlink:href="#DejaVuSans-c9c"/>
       <use xlink:href="#DejaVuSans-16" transform="translate(83.796875 0)"/>
       <use xlink:href="#DejaVuSans-13" transform="translate(147.421875 0)"/>
      </g>
     </g>
    </g>
    <g id="ytick_5">
     <g id="line2d_27">
      <path d="M 51.882344 87.294888 
L 427.36 87.294888 
" clip-path="url(#p3fddecc6ae)" style="fill: none; stroke: #d9dee7; stroke-opacity: 0.75; stroke-width: 0.7; stroke-linecap: square"/>
     </g>
     <g id="line2d_28">
      <g>
       <use xlink:href="#m2548724a7f" x="51.882344" y="87.294888" style="fill: #324052; stroke: #324052; stroke-width: 0.8"/>
      </g>
     </g>
     <g id="text_15">
      <!-- −20 -->
      <g style="fill: #324052" transform="translate(27.998594 90.33395) scale(0.08 -0.08)">
       <use xlink:href="#DejaVuSans-c9c"/>
       <use xlink:href="#DejaVuSans-15" transform="translate(83.796875 0)"/>
       <use xlink:href="#DejaVuSans-13" transform="translate(147.421875 0)"/>
      </g>
     </g>
    </g>
    <g id="ytick_6">
     <g id="line2d_29">
      <path d="M 51.882344 58.343012 
L 427.36 58.343012 
" clip-path="url(#p3fddecc6ae)" style="fill: none; stroke: #d9dee7; stroke-opacity: 0.75; stroke-width: 0.7; stroke-linecap: square"/>
     </g>
     <g id="line2d_30">
      <g>
       <use xlink:href="#m2548724a7f" x="51.882344" y="58.343012" style="fill: #324052; stroke: #324052; stroke-width: 0.8"/>
      </g>
     </g>
     <g id="text_16">
      <!-- −10 -->
      <g style="fill: #324052" transform="translate(27.998594 61.382075) scale(0.08 -0.08)">
       <use xlink:href="#DejaVuSans-c9c"/>
       <use xlink:href="#DejaVuSans-14" transform="translate(83.796875 0)"/>
       <use xlink:href="#DejaVuSans-13" transform="translate(147.421875 0)"/>
      </g>
     </g>
    </g>
    <g id="ytick_7">
     <g id="line2d_31">
      <path d="M 51.882344 29.391136 
L 427.36 29.391136 
" clip-path="url(#p3fddecc6ae)" style="fill: none; stroke: #d9dee7; stroke-opacity: 0.75; stroke-width: 0.7; stroke-linecap: square"/>
     </g>
     <g id="line2d_32">
      <g>
       <use xlink:href="#m2548724a7f" x="51.882344" y="29.391136" style="fill: #324052; stroke: #324052; stroke-width: 0.8"/>
      </g>
     </g>
     <g id="text_17">
      <!-- 0 -->
      <g style="fill: #324052" transform="translate(39.792344 32.430199) scale(0.08 -0.08)">
       <use xlink:href="#DejaVuSans-13"/>
      </g>
     </g>
    </g>
    <g id="text_18">
     <!-- Power density (dB) -->
     <g transform="translate(21.59625 169.251914) rotate(-90) scale(0.1 -0.1)">
      <defs>
       <path id="DejaVuSans-33" d="M 1259 4147 
L 1259 2394 
L 2053 2394 
Q 2494 2394 2734 2622 
Q 2975 2850 2975 3272 
Q 2975 3691 2734 3919 
Q 2494 4147 2053 4147 
L 1259 4147 
z
M 628 4666 
L 2053 4666 
Q 2838 4666 3239 4311 
Q 3641 3956 3641 3272 
Q 3641 2581 3239 2228 
Q 2838 1875 2053 1875 
L 1259 1875 
L 1259 0 
L 628 0 
L 628 4666 
z
" transform="scale(0.015625)"/>
       <path id="DejaVuSans-52" d="M 1959 3097 
Q 1497 3097 1228 2736 
Q 959 2375 959 1747 
Q 959 1119 1226 758 
Q 1494 397 1959 397 
Q 2419 397 2687 759 
Q 2956 1122 2956 1747 
Q 2956 2369 2687 2733 
Q 2419 3097 1959 3097 
z
M 1959 3584 
Q 2709 3584 3137 3096 
Q 3566 2609 3566 1747 
Q 3566 888 3137 398 
Q 2709 -91 1959 -91 
Q 1206 -91 779 398 
Q 353 888 353 1747 
Q 353 2609 779 3096 
Q 1206 3584 1959 3584 
z
" transform="scale(0.015625)"/>
       <path id="DejaVuSans-5a" d="M 269 3500 
L 844 3500 
L 1563 769 
L 2278 3500 
L 2956 3500 
L 3675 769 
L 4391 3500 
L 4966 3500 
L 4050 0 
L 3372 0 
L 2619 2869 
L 1863 0 
L 1184 0 
L 269 3500 
z
" transform="scale(0.015625)"/>
       <path id="DejaVuSans-47" d="M 2906 2969 
L 2906 4863 
L 3481 4863 
L 3481 0 
L 2906 0 
L 2906 525 
Q 2725 213 2448 61 
Q 2172 -91 1784 -91 
Q 1150 -91 751 415 
Q 353 922 353 1747 
Q 353 2572 751 3078 
Q 1150 3584 1784 3584 
Q 2172 3584 2448 3432 
Q 2725 3281 2906 2969 
z
M 947 1747 
Q 947 1113 1208 752 
Q 1469 391 1925 391 
Q 2381 391 2643 752 
Q 2906 1113 2906 1747 
Q 2906 2381 2643 2742 
Q 2381 3103 1925 3103 
Q 1469 3103 1208 2742 
Q 947 2381 947 1747 
z
" transform="scale(0.015625)"/>
       <path id="DejaVuSans-56" d="M 2834 3397 
L 2834 2853 
Q 2591 2978 2328 3040 
Q 2066 3103 1784 3103 
Q 1356 3103 1142 2972 
Q 928 2841 928 2578 
Q 928 2378 1081 2264 
Q 1234 2150 1697 2047 
L 1894 2003 
Q 2506 1872 2764 1633 
Q 3022 1394 3022 966 
Q 3022 478 2636 193 
Q 2250 -91 1575 -91 
Q 1294 -91 989 -36 
Q 684 19 347 128 
L 347 722 
Q 666 556 975 473 
Q 1284 391 1588 391 
Q 1994 391 2212 530 
Q 2431 669 2431 922 
Q 2431 1156 2273 1281 
Q 2116 1406 1581 1522 
L 1381 1569 
Q 847 1681 609 1914 
Q 372 2147 372 2553 
Q 372 3047 722 3315 
Q 1072 3584 1716 3584 
Q 2034 3584 2315 3537 
Q 2597 3491 2834 3397 
z
" transform="scale(0.015625)"/>
       <path id="DejaVuSans-4c" d="M 603 3500 
L 1178 3500 
L 1178 0 
L 603 0 
L 603 3500 
z
M 603 4863 
L 1178 4863 
L 1178 4134 
L 603 4134 
L 603 4863 
z
" transform="scale(0.015625)"/>
       <path id="DejaVuSans-57" d="M 1172 4494 
L 1172 3500 
L 2356 3500 
L 2356 3053 
L 1172 3053 
L 1172 1153 
Q 1172 725 1289 603 
Q 1406 481 1766 481 
L 2356 481 
L 2356 0 
L 1766 0 
Q 1100 0 847 248 
Q 594 497 594 1153 
L 594 3053 
L 172 3053 
L 172 3500 
L 594 3500 
L 594 4494 
L 1172 4494 
z
" transform="scale(0.015625)"/>
       <path id="DejaVuSans-25" d="M 1259 2228 
L 1259 519 
L 2272 519 
Q 2781 519 3026 730 
Q 3272 941 3272 1375 
Q 3272 1813 3026 2020 
Q 2781 2228 2272 2228 
L 1259 2228 
z
M 1259 4147 
L 1259 2741 
L 2194 2741 
Q 2656 2741 2882 2914 
Q 3109 3088 3109 3444 
Q 3109 3797 2882 3972 
Q 2656 4147 2194 4147 
L 1259 4147 
z
M 628 4666 
L 2241 4666 
Q 2963 4666 3353 4366 
Q 3744 4066 3744 3513 
Q 3744 3084 3544 2831 
Q 3344 2578 2956 2516 
Q 3422 2416 3680 2098 
Q 3938 1781 3938 1306 
Q 3938 681 3513 340 
Q 3088 0 2303 0 
L 628 0 
L 628 4666 
z
" transform="scale(0.015625)"/>
      </defs>
      <use xlink:href="#DejaVuSans-33"/>
      <use xlink:href="#DejaVuSans-52" transform="translate(56.734375 0)"/>
      <use xlink:href="#DejaVuSans-5a" transform="translate(117.921875 0)"/>
      <use xlink:href="#DejaVuSans-48" transform="translate(199.703125 0)"/>
      <use xlink:href="#DejaVuSans-55" transform="translate(261.234375 0)"/>
      <use xlink:href="#DejaVuSans-3" transform="translate(302.34375 0)"/>
      <use xlink:href="#DejaVuSans-47" transform="translate(334.125 0)"/>
      <use xlink:href="#DejaVuSans-48" transform="translate(397.609375 0)"/>
      <use xlink:href="#DejaVuSans-51" transform="translate(459.140625 0)"/>
      <use xlink:href="#DejaVuSans-56" transform="translate(522.515625 0)"/>
      <use xlink:href="#DejaVuSans-4c" transform="translate(574.609375 0)"/>
      <use xlink:href="#DejaVuSans-57" transform="translate(602.390625 0)"/>
      <use xlink:href="#DejaVuSans-5c" transform="translate(641.59375 0)"/>
      <use xlink:href="#DejaVuSans-3" transform="translate(700.78125 0)"/>
      <use xlink:href="#DejaVuSans-b" transform="translate(732.5625 0)"/>
      <use xlink:href="#DejaVuSans-47" transform="translate(771.578125 0)"/>
      <use xlink:href="#DejaVuSans-25" transform="translate(835.0625 0)"/>
      <use xlink:href="#DejaVuSans-c" transform="translate(903.671875 0)"/>
     </g>
    </g>
   </g>
   <g id="FillBetweenPolyCollection_1">
    <path d="M 51.882344 137.383601 
L 51.882344 215.877656 
L 53.055711 215.877656 
L 54.229079 215.877656 
L 55.402447 215.877656 
L 56.575814 215.877656 
L 57.749182 215.877656 
L 58.92255 215.877656 
L 60.095917 215.877656 
L 61.269285 215.877656 
L 62.442653 215.877656 
L 63.616021 215.877656 
L 64.789388 215.877656 
L 65.962756 215.877656 
L 67.136124 215.877656 
L 68.309491 215.877656 
L 69.482859 215.877656 
L 70.656227 215.877656 
L 71.829594 215.877656 
L 73.002962 215.877656 
L 74.17633 215.877656 
L 75.349697 215.877656 
L 76.523065 215.877656 
L 77.696433 215.877656 
L 78.8698 215.877656 
L 80.043168 215.877656 
L 81.216536 215.877656 
L 82.389903 215.877656 
L 83.563271 215.877656 
L 84.736639 215.877656 
L 85.910006 215.877656 
L 87.083374 215.877656 
L 88.256742 215.877656 
L 89.430109 215.877656 
L 90.603477 215.877656 
L 91.776845 215.877656 
L 92.950212 215.877656 
L 94.12358 215.877656 
L 95.296948 215.877656 
L 96.470315 215.877656 
L 97.643683 215.877656 
L 98.817051 215.877656 
L 99.990418 215.877656 
L 101.163786 215.877656 
L 102.337154 215.877656 
L 103.510521 215.877656 
L 104.683889 215.877656 
L 105.857257 215.877656 
L 107.030625 215.877656 
L 108.203992 215.877656 
L 109.37736 215.877656 
L 110.550728 215.877656 
L 111.724095 215.877656 
L 112.897463 215.877656 
L 114.070831 215.877656 
L 115.244198 215.877656 
L 116.417566 215.877656 
L 117.590934 215.877656 
L 118.764301 215.877656 
L 119.937669 215.877656 
L 121.111037 215.877656 
L 122.284404 215.877656 
L 123.457772 215.877656 
L 124.63114 215.877656 
L 125.804507 215.877656 
L 126.977875 215.877656 
L 128.151243 215.877656 
L 129.32461 215.877656 
L 130.497978 215.877656 
L 131.671346 215.877656 
L 132.844713 215.877656 
L 134.018081 215.877656 
L 135.191449 215.877656 
L 136.364816 215.877656 
L 137.538184 215.877656 
L 138.711552 215.877656 
L 139.884919 215.877656 
L 141.058287 215.877656 
L 142.231655 215.877656 
L 143.405022 215.877656 
L 144.57839 215.877656 
L 145.751758 215.877656 
L 146.925125 215.877656 
L 148.098493 215.877656 
L 149.271861 215.877656 
L 150.445229 215.877656 
L 151.618596 215.877656 
L 152.791964 215.877656 
L 153.965332 215.877656 
L 155.138699 215.877656 
L 156.312067 215.877656 
L 157.485435 215.877656 
L 158.658802 215.877656 
L 159.83217 215.877656 
L 161.005538 215.877656 
L 162.178905 215.877656 
L 163.352273 215.877656 
L 164.525641 215.877656 
L 165.699008 215.877656 
L 166.872376 215.877656 
L 168.045744 215.877656 
L 169.219111 215.877656 
L 170.392479 215.877656 
L 171.565847 215.877656 
L 172.739214 215.877656 
L 173.912582 215.877656 
L 175.08595 215.877656 
L 176.259317 215.877656 
L 177.432685 215.877656 
L 178.606053 215.877656 
L 179.77942 215.877656 
L 180.952788 215.877656 
L 182.126156 215.877656 
L 183.299523 215.877656 
L 184.472891 215.877656 
L 185.646259 215.877656 
L 186.819626 215.877656 
L 187.992994 215.877656 
L 189.166362 215.877656 
L 190.339729 215.877656 
L 191.513097 215.877656 
L 192.686465 215.877656 
L 193.859833 215.877656 
L 195.0332 215.877656 
L 196.206568 215.877656 
L 197.379936 215.877656 
L 198.553303 215.877656 
L 199.726671 215.877656 
L 200.900039 215.877656 
L 202.073406 215.877656 
L 203.246774 215.877656 
L 204.420142 215.877656 
L 205.593509 215.877656 
L 206.766877 215.877656 
L 207.940245 215.877656 
L 209.113612 215.877656 
L 210.28698 215.877656 
L 211.460348 215.877656 
L 212.633715 215.877656 
L 213.807083 215.877656 
L 214.980451 215.877656 
L 216.153818 215.877656 
L 217.327186 215.877656 
L 218.500554 215.877656 
L 219.673921 215.877656 
L 220.847289 215.877656 
L 222.020657 215.877656 
L 223.194024 215.877656 
L 224.367392 215.877656 
L 225.54076 215.877656 
L 226.714127 215.877656 
L 227.887495 215.877656 
L 229.060863 215.877656 
L 230.23423 215.877656 
L 231.407598 215.877656 
L 232.580966 215.877656 
L 233.754333 215.877656 
L 234.927701 215.877656 
L 236.101069 215.877656 
L 237.274437 215.877656 
L 238.447804 215.877656 
L 239.621172 215.877656 
L 240.79454 215.877656 
L 241.967907 215.877656 
L 243.141275 215.877656 
L 244.314643 215.877656 
L 245.48801 215.877656 
L 246.661378 215.877656 
L 247.834746 215.877656 
L 249.008113 215.877656 
L 250.181481 215.877656 
L 251.354849 215.877656 
L 252.528216 215.877656 
L 253.701584 215.877656 
L 254.874952 215.877656 
L 256.048319 215.877656 
L 257.221687 215.877656 
L 258.395055 215.877656 
L 259.568422 215.877656 
L 260.74179 215.877656 
L 261.915158 215.877656 
L 263.088525 215.877656 
L 264.261893 215.877656 
L 265.435261 215.877656 
L 266.608628 215.877656 
L 267.781996 215.877656 
L 268.955364 215.877656 
L 270.128731 215.877656 
L 271.302099 215.877656 
L 272.475467 215.877656 
L 273.648834 215.877656 
L 274.822202 215.877656 
L 275.99557 215.877656 
L 277.168938 215.877656 
L 278.342305 215.877656 
L 279.515673 215.877656 
L 280.689041 215.877656 
L 281.862408 215.877656 
L 283.035776 215.877656 
L 284.209144 215.877656 
L 285.382511 215.877656 
L 286.555879 215.877656 
L 287.729247 215.877656 
L 288.902614 215.877656 
L 290.075982 215.877656 
L 291.24935 215.877656 
L 292.422717 215.877656 
L 293.596085 215.877656 
L 294.769453 215.877656 
L 295.94282 215.877656 
L 297.116188 215.877656 
L 298.289556 215.877656 
L 299.462923 215.877656 
L 300.636291 215.877656 
L 301.809659 215.877656 
L 302.983026 215.877656 
L 304.156394 215.877656 
L 305.329762 215.877656 
L 306.503129 215.877656 
L 307.676497 215.877656 
L 308.849865 215.877656 
L 310.023232 215.877656 
L 311.1966 215.877656 
L 312.369968 215.877656 
L 313.543335 215.877656 
L 314.716703 215.877656 
L 315.890071 215.877656 
L 317.063438 215.877656 
L 318.236806 215.877656 
L 319.410174 215.877656 
L 320.583542 215.877656 
L 321.756909 215.877656 
L 322.930277 215.877656 
L 324.103645 215.877656 
L 325.277012 215.877656 
L 326.45038 215.877656 
L 327.623748 215.877656 
L 328.797115 215.877656 
L 329.970483 215.877656 
L 331.143851 215.877656 
L 332.317218 215.877656 
L 333.490586 215.877656 
L 334.663954 215.877656 
L 335.837321 215.877656 
L 337.010689 215.877656 
L 338.184057 215.877656 
L 339.357424 215.877656 
L 340.530792 215.877656 
L 341.70416 215.877656 
L 342.877527 215.877656 
L 344.050895 215.877656 
L 345.224263 215.877656 
L 346.39763 215.877656 
L 347.570998 215.877656 
L 348.744366 215.877656 
L 349.917733 215.877656 
L 351.091101 215.877656 
L 352.264469 215.877656 
L 353.437836 215.877656 
L 354.611204 215.877656 
L 355.784572 215.877656 
L 356.957939 215.877656 
L 358.131307 215.877656 
L 359.304675 215.877656 
L 360.478042 215.877656 
L 361.65141 215.877656 
L 362.824778 215.877656 
L 363.998146 215.877656 
L 365.171513 215.877656 
L 366.344881 215.877656 
L 367.518249 215.877656 
L 368.691616 215.877656 
L 369.864984 215.877656 
L 371.038352 215.877656 
L 372.211719 215.877656 
L 373.385087 215.877656 
L 374.558455 215.877656 
L 375.731822 215.877656 
L 376.90519 215.877656 
L 378.078558 215.877656 
L 379.251925 215.877656 
L 380.425293 215.877656 
L 381.598661 215.877656 
L 382.772028 215.877656 
L 383.945396 215.877656 
L 385.118764 215.877656 
L 386.292131 215.877656 
L 387.465499 215.877656 
L 388.638867 215.877656 
L 389.812234 215.877656 
L 390.985602 215.877656 
L 392.15897 215.877656 
L 393.332337 215.877656 
L 394.505705 215.877656 
L 395.679073 215.877656 
L 396.85244 215.877656 
L 398.025808 215.877656 
L 399.199176 215.877656 
L 400.372543 215.877656 
L 401.545911 215.877656 
L 402.719279 215.877656 
L 403.892646 215.877656 
L 405.066014 215.877656 
L 406.239382 215.877656 
L 407.41275 215.877656 
L 408.586117 215.877656 
L 409.759485 215.877656 
L 410.932853 215.877656 
L 412.10622 215.877656 
L 413.279588 215.877656 
L 414.452956 215.877656 
L 415.626323 215.877656 
L 416.799691 215.877656 
L 417.973059 215.877656 
L 419.146426 215.877656 
L 420.319794 215.877656 
L 421.493162 215.877656 
L 422.666529 215.877656 
L 423.839897 215.877656 
L 425.013265 215.877656 
L 426.186632 215.877656 
L 427.36 215.877656 
L 428.533368 215.877656 
L 429.706735 215.877656 
L 430.880103 215.877656 
L 432.053471 215.877656 
L 433.226838 215.877656 
L 434.400206 215.877656 
L 435.573574 215.877656 
L 436.746941 215.877656 
L 437.920309 215.877656 
L 439.093677 215.877656 
L 440.267044 215.877656 
L 441.440412 215.877656 
L 442.61378 215.877656 
L 443.787147 215.877656 
L 444.960515 215.877656 
L 446.133883 215.877656 
L 447.30725 215.877656 
L 448.480618 215.877656 
L 449.653986 215.877656 
L 450.827354 215.877656 
L 452.000721 215.877656 
L 453.174089 215.877656 
L 454.347457 215.877656 
L 455.520824 215.877656 
L 456.694192 215.877656 
L 457.86756 215.877656 
L 459.040927 215.877656 
L 460.214295 215.877656 
L 461.387663 215.877656 
L 462.56103 215.877656 
L 463.734398 215.877656 
L 464.907766 215.877656 
L 466.081133 215.877656 
L 467.254501 215.877656 
L 468.427869 215.877656 
L 469.601236 215.877656 
L 470.774604 215.877656 
L 471.947972 215.877656 
L 473.121339 215.877656 
L 474.294707 215.877656 
L 475.468075 215.877656 
L 476.641442 215.877656 
L 477.81481 215.877656 
L 478.988178 215.877656 
L 480.161545 215.877656 
L 481.334913 215.877656 
L 482.508281 215.877656 
L 483.681648 215.877656 
L 484.855016 215.877656 
L 486.028384 215.877656 
L 487.201751 215.877656 
L 488.375119 215.877656 
L 489.548487 215.877656 
L 490.721854 215.877656 
L 491.895222 215.877656 
L 493.06859 215.877656 
L 494.241958 215.877656 
L 495.415325 215.877656 
L 496.588693 215.877656 
L 497.762061 215.877656 
L 498.935428 215.877656 
L 500.108796 215.877656 
L 501.282164 215.877656 
L 502.455531 215.877656 
L 503.628899 215.877656 
L 504.802267 215.877656 
L 505.975634 215.877656 
L 507.149002 215.877656 
L 508.32237 215.877656 
L 509.495737 215.877656 
L 510.669105 215.877656 
L 511.842473 215.877656 
L 513.01584 215.877656 
L 514.189208 215.877656 
L 515.362576 215.877656 
L 516.535943 215.877656 
L 517.709311 215.877656 
L 518.882679 215.877656 
L 520.056046 215.877656 
L 521.229414 215.877656 
L 521.229414 126.133133 
L 521.229414 126.133133 
L 520.056046 129.528103 
L 518.882679 145.739167 
L 517.709311 139.699259 
L 516.535943 138.765182 
L 515.362576 162.253502 
L 514.189208 166.471089 
L 513.01584 155.70102 
L 511.842473 162.675946 
L 510.669105 145.075416 
L 509.495737 139.952887 
L 508.32237 135.656384 
L 507.149002 144.624258 
L 505.975634 169.591007 
L 504.802267 147.075201 
L 503.628899 139.711823 
L 502.455531 127.681152 
L 501.282164 120.640853 
L 500.108796 121.848669 
L 498.935428 135.029643 
L 497.762061 142.342491 
L 496.588693 151.718764 
L 495.415325 178.610625 
L 494.241958 153.677499 
L 493.06859 182.012829 
L 491.895222 163.01293 
L 490.721854 177.362971 
L 489.548487 156.49548 
L 488.375119 129.422667 
L 487.201751 134.939595 
L 486.028384 163.265273 
L 484.855016 134.195978 
L 483.681648 147.521063 
L 482.508281 164.333971 
L 481.334913 135.197268 
L 480.161545 139.847253 
L 478.988178 132.036405 
L 477.81481 145.207473 
L 476.641442 160.616489 
L 475.468075 152.682441 
L 474.294707 139.73148 
L 473.121339 138.337023 
L 471.947972 157.941725 
L 470.774604 143.313034 
L 469.601236 132.974003 
L 468.427869 124.905718 
L 467.254501 126.70243 
L 466.081133 123.394174 
L 464.907766 132.078519 
L 463.734398 139.414462 
L 462.56103 155.280618 
L 461.387663 153.592364 
L 460.214295 154.407326 
L 459.040927 145.959573 
L 457.86756 150.682382 
L 456.694192 145.849064 
L 455.520824 140.170471 
L 454.347457 133.602687 
L 453.174089 128.988034 
L 452.000721 138.853209 
L 450.827354 207.192094 
L 449.653986 185.942073 
L 448.480618 181.567359 
L 447.30725 179.699398 
L 446.133883 163.954166 
L 444.960515 143.658336 
L 443.787147 137.87926 
L 442.61378 139.618731 
L 441.440412 165.561877 
L 440.267044 149.957016 
L 439.093677 205.222866 
L 437.920309 139.46733 
L 436.746941 139.562336 
L 435.573574 154.178024 
L 434.400206 160.574269 
L 433.226838 158.720133 
L 432.053471 192.593412 
L 430.880103 153.198631 
L 429.706735 145.249525 
L 428.533368 166.642537 
L 427.36 140.456679 
L 426.186632 128.84934 
L 425.013265 122.237227 
L 423.839897 138.615865 
L 422.666529 160.214141 
L 421.493162 160.415297 
L 420.319794 127.015094 
L 419.146426 118.580529 
L 417.973059 132.818973 
L 416.799691 134.047618 
L 415.626323 139.586711 
L 414.452956 169.740801 
L 413.279588 201.015613 
L 412.10622 145.055113 
L 410.932853 153.390563 
L 409.759485 143.693079 
L 408.586117 136.182556 
L 407.41275 176.93028 
L 406.239382 135.337895 
L 405.066014 127.231045 
L 403.892646 141.7756 
L 402.719279 133.922143 
L 401.545911 124.164651 
L 400.372543 138.053146 
L 399.199176 170.146111 
L 398.025808 174.67806 
L 396.85244 160.269879 
L 395.679073 157.271019 
L 394.505705 139.254669 
L 393.332337 137.574185 
L 392.15897 166.924559 
L 390.985602 131.794983 
L 389.812234 132.595787 
L 388.638867 147.040541 
L 387.465499 149.560854 
L 386.292131 156.066453 
L 385.118764 144.729319 
L 383.945396 135.497812 
L 382.772028 163.914732 
L 381.598661 145.146945 
L 380.425293 151.677154 
L 379.251925 159.921477 
L 378.078558 132.281028 
L 376.90519 123.618162 
L 375.731822 126.275845 
L 374.558455 152.023485 
L 373.385087 135.186805 
L 372.211719 146.282907 
L 371.038352 137.834725 
L 369.864984 146.954242 
L 368.691616 148.581746 
L 367.518249 134.195092 
L 366.344881 150.595797 
L 365.171513 142.251533 
L 363.998146 138.031921 
L 362.824778 150.618812 
L 361.65141 137.622175 
L 360.478042 132.230361 
L 359.304675 139.799583 
L 358.131307 150.524543 
L 356.957939 137.970432 
L 355.784572 150.313242 
L 354.611204 164.502233 
L 353.437836 199.512071 
L 352.264469 134.17928 
L 351.091101 123.149709 
L 349.917733 124.631285 
L 348.744366 138.762613 
L 347.570998 163.255361 
L 346.39763 168.181197 
L 345.224263 148.798747 
L 344.050895 134.62835 
L 342.877527 124.632727 
L 341.70416 139.870287 
L 340.530792 150.574311 
L 339.357424 145.822532 
L 338.184057 143.722579 
L 337.010689 140.370395 
L 335.837321 138.827587 
L 334.663954 140.45657 
L 333.490586 168.260181 
L 332.317218 137.855289 
L 331.143851 143.854076 
L 329.970483 149.904999 
L 328.797115 122.500871 
L 327.623748 125.324132 
L 326.45038 133.463841 
L 325.277012 131.758471 
L 324.103645 131.16241 
L 322.930277 140.666599 
L 321.756909 168.115381 
L 320.583542 157.09766 
L 319.410174 150.986081 
L 318.236806 137.785973 
L 317.063438 144.93182 
L 315.890071 137.63473 
L 314.716703 135.770467 
L 313.543335 141.226483 
L 312.369968 154.653276 
L 311.1966 150.010482 
L 310.023232 148.198102 
L 308.849865 154.222422 
L 307.676497 138.918043 
L 306.503129 174.74407 
L 305.329762 139.792836 
L 304.156394 144.778179 
L 302.983026 138.362731 
L 301.809659 146.074547 
L 300.636291 166.088114 
L 299.462923 174.575613 
L 298.289556 145.821104 
L 297.116188 164.764074 
L 295.94282 134.108828 
L 294.769453 164.314493 
L 293.596085 143.63604 
L 292.422717 144.27857 
L 291.24935 135.013262 
L 290.075982 140.800215 
L 288.902614 136.585421 
L 287.729247 131.734505 
L 286.555879 146.118767 
L 285.382511 161.747402 
L 284.209144 167.922035 
L 283.035776 145.920652 
L 281.862408 146.203382 
L 280.689041 148.418508 
L 279.515673 195.974531 
L 278.342305 162.009499 
L 277.168938 149.608161 
L 275.99557 168.745782 
L 274.822202 129.782513 
L 273.648834 131.626862 
L 272.475467 172.144982 
L 271.302099 135.558143 
L 270.128731 128.526748 
L 268.955364 133.870336 
L 267.781996 170.589004 
L 266.608628 165.920412 
L 265.435261 156.181245 
L 264.261893 146.914854 
L 263.088525 144.341305 
L 261.915158 151.043331 
L 260.74179 149.923136 
L 259.568422 155.60204 
L 258.395055 167.515644 
L 257.221687 175.769858 
L 256.048319 149.302502 
L 254.874952 129.939159 
L 253.701584 133.562564 
L 252.528216 129.305692 
L 251.354849 130.829913 
L 250.181481 70.03034 
L 249.008113 53.832804 
L 247.834746 71.862077 
L 246.661378 135.583689 
L 245.48801 138.268188 
L 244.314643 149.066561 
L 243.141275 175.289181 
L 241.967907 160.365065 
L 240.79454 181.610799 
L 239.621172 173.313288 
L 238.447804 145.808206 
L 237.274437 139.86745 
L 236.101069 151.117188 
L 234.927701 144.711319 
L 233.754333 137.424251 
L 232.580966 155.570336 
L 231.407598 151.294594 
L 230.23423 151.966038 
L 229.060863 135.787492 
L 227.887495 129.523346 
L 226.714127 169.059885 
L 225.54076 136.526325 
L 224.367392 164.759778 
L 223.194024 137.597497 
L 222.020657 172.918257 
L 220.847289 161.686453 
L 219.673921 134.459626 
L 218.500554 125.667369 
L 217.327186 127.755281 
L 216.153818 185.17529 
L 214.980451 127.667389 
L 213.807083 129.72732 
L 212.633715 149.144825 
L 211.460348 154.93367 
L 210.28698 167.586415 
L 209.113612 132.402787 
L 207.940245 135.630039 
L 206.766877 136.598239 
L 205.593509 150.678534 
L 204.420142 139.22785 
L 203.246774 143.478677 
L 202.073406 167.765421 
L 200.900039 164.133172 
L 199.726671 138.405463 
L 198.553303 135.439176 
L 197.379936 140.911561 
L 196.206568 148.629448 
L 195.0332 157.968394 
L 193.859833 140.785604 
L 192.686465 147.739265 
L 191.513097 157.376127 
L 190.339729 145.721998 
L 189.166362 135.536439 
L 187.992994 141.890025 
L 186.819626 173.087852 
L 185.646259 140.914078 
L 184.472891 136.26324 
L 183.299523 138.088155 
L 182.126156 147.002396 
L 180.952788 142.501971 
L 179.77942 149.728786 
L 178.606053 160.661444 
L 177.432685 140.924032 
L 176.259317 129.200013 
L 175.08595 146.05024 
L 173.912582 160.11864 
L 172.739214 146.675342 
L 171.565847 146.669537 
L 170.392479 180.945631 
L 169.219111 159.76499 
L 168.045744 152.327381 
L 166.872376 145.376104 
L 165.699008 147.1492 
L 164.525641 141.52914 
L 163.352273 162.333752 
L 162.178905 149.712803 
L 161.005538 153.274394 
L 159.83217 163.029561 
L 158.658802 175.043567 
L 157.485435 161.343746 
L 156.312067 140.337255 
L 155.138699 133.249316 
L 153.965332 127.026532 
L 152.791964 136.82977 
L 151.618596 139.572321 
L 150.445229 135.536908 
L 149.271861 146.480516 
L 148.098493 157.937636 
L 146.925125 123.655527 
L 145.751758 119.511907 
L 144.57839 128.028383 
L 143.405022 158.167526 
L 142.231655 203.162452 
L 141.058287 141.955648 
L 139.884919 142.940308 
L 138.711552 162.349955 
L 137.538184 55.421982 
L 136.364816 37.042985 
L 135.191449 53.583453 
L 134.018081 144.0834 
L 132.844713 166.130098 
L 131.671346 166.357143 
L 130.497978 191.094315 
L 129.32461 156.161697 
L 128.151243 140.603224 
L 126.977875 153.880921 
L 125.804507 146.712731 
L 124.63114 149.600322 
L 123.457772 157.884066 
L 122.284404 149.199111 
L 121.111037 131.294854 
L 119.937669 125.131384 
L 118.764301 127.737647 
L 117.590934 191.638339 
L 116.417566 132.931181 
L 115.244198 153.006499 
L 114.070831 185.721565 
L 112.897463 155.722028 
L 111.724095 181.325578 
L 110.550728 131.226514 
L 109.37736 129.233826 
L 108.203992 160.319082 
L 107.030625 142.823411 
L 105.857257 126.283236 
L 104.683889 122.158056 
L 103.510521 137.855363 
L 102.337154 137.259666 
L 101.163786 139.76538 
L 99.990418 188.979919 
L 98.817051 183.515698 
L 97.643683 172.018046 
L 96.470315 162.542612 
L 95.296948 131.79314 
L 94.12358 123.657779 
L 92.950212 130.324666 
L 91.776845 147.993894 
L 90.603477 148.959687 
L 89.430109 170.805468 
L 88.256742 156.794862 
L 87.083374 176.931977 
L 85.910006 184.336327 
L 84.736639 180.783942 
L 83.563271 147.531316 
L 82.389903 156.765716 
L 81.216536 152.858643 
L 80.043168 142.960854 
L 78.8698 150.96551 
L 77.696433 141.091756 
L 76.523065 137.743383 
L 75.349697 166.943145 
L 74.17633 165.626732 
L 73.002962 159.806647 
L 71.829594 140.231087 
L 70.656227 124.899989 
L 69.482859 152.512756 
L 68.309491 162.790863 
L 67.136124 178.340698 
L 65.962756 149.671022 
L 64.789388 140.40702 
L 63.616021 127.043168 
L 62.442653 139.146607 
L 61.269285 152.958369 
L 60.095917 152.38266 
L 58.92255 133.582518 
L 57.749182 137.353497 
L 56.575814 178.988541 
L 55.402447 180.085454 
L 54.229079 157.592776 
L 53.055711 132.260988 
L 51.882344 137.383601 
z
" clip-path="url(#p3fddecc6ae)" style="fill: #9ecae1; fill-opacity: 0.35"/>
   </g>
   <g id="line2d_33">
    <path d="M 51.882344 137.383601 
L 53.055711 132.260988 
L 54.229079 157.592776 
L 55.402447 180.085454 
L 56.575814 178.988541 
L 57.749182 137.353497 
L 58.92255 133.582518 
L 60.095917 152.38266 
L 61.269285 152.958369 
L 62.442653 139.146607 
L 63.616021 127.043168 
L 64.789388 140.40702 
L 65.962756 149.671022 
L 67.136124 178.340698 
L 68.309491 162.790863 
L 69.482859 152.512756 
L 70.656227 124.899989 
L 71.829594 140.231087 
L 73.002962 159.806647 
L 74.17633 165.626732 
L 75.349697 166.943145 
L 76.523065 137.743383 
L 77.696433 141.091756 
L 78.8698 150.96551 
L 80.043168 142.960854 
L 81.216536 152.858643 
L 82.389903 156.765716 
L 83.563271 147.531316 
L 84.736639 180.783942 
L 85.910006 184.336327 
L 87.083374 176.931977 
L 88.256742 156.794862 
L 89.430109 170.805468 
L 90.603477 148.959687 
L 91.776845 147.993894 
L 92.950212 130.324666 
L 94.12358 123.657779 
L 95.296948 131.79314 
L 96.470315 162.542612 
L 97.643683 172.018046 
L 98.817051 183.515698 
L 99.990418 188.979919 
L 101.163786 139.76538 
L 102.337154 137.259666 
L 103.510521 137.855363 
L 104.683889 122.158056 
L 105.857257 126.283236 
L 108.203992 160.319082 
L 109.37736 129.233826 
L 110.550728 131.226514 
L 111.724095 181.325578 
L 112.897463 155.722028 
L 114.070831 185.721565 
L 115.244198 153.006499 
L 116.417566 132.931181 
L 117.590934 191.638339 
L 118.764301 127.737647 
L 119.937669 125.131384 
L 121.111037 131.294854 
L 122.284404 149.199111 
L 123.457772 157.884066 
L 124.63114 149.600322 
L 125.804507 146.712731 
L 126.977875 153.880921 
L 128.151243 140.603224 
L 129.32461 156.161697 
L 130.497978 191.094315 
L 131.671346 166.357143 
L 132.844713 166.130098 
L 134.018081 144.0834 
L 135.191449 53.583453 
L 136.364816 37.042985 
L 137.538184 55.421982 
L 138.711552 162.349955 
L 139.884919 142.940308 
L 141.058287 141.955648 
L 142.231655 203.162452 
L 143.405022 158.167526 
L 144.57839 128.028383 
L 145.751758 119.511907 
L 146.925125 123.655527 
L 148.098493 157.937636 
L 150.445229 135.536908 
L 151.618596 139.572321 
L 152.791964 136.82977 
L 153.965332 127.026532 
L 155.138699 133.249316 
L 156.312067 140.337255 
L 157.485435 161.343746 
L 158.658802 175.043567 
L 159.83217 163.029561 
L 161.005538 153.274394 
L 162.178905 149.712803 
L 163.352273 162.333752 
L 164.525641 141.52914 
L 165.699008 147.1492 
L 166.872376 145.376104 
L 169.219111 159.76499 
L 170.392479 180.945631 
L 171.565847 146.669537 
L 172.739214 146.675342 
L 173.912582 160.11864 
L 175.08595 146.05024 
L 176.259317 129.200013 
L 177.432685 140.924032 
L 178.606053 160.661444 
L 179.77942 149.728786 
L 180.952788 142.501971 
L 182.126156 147.002396 
L 183.299523 138.088155 
L 184.472891 136.26324 
L 185.646259 140.914078 
L 186.819626 173.087852 
L 187.992994 141.890025 
L 189.166362 135.536439 
L 190.339729 145.721998 
L 191.513097 157.376127 
L 192.686465 147.739265 
L 193.859833 140.785604 
L 195.0332 157.968394 
L 196.206568 148.629448 
L 197.379936 140.911561 
L 198.553303 135.439176 
L 199.726671 138.405463 
L 200.900039 164.133172 
L 202.073406 167.765421 
L 203.246774 143.478677 
L 204.420142 139.22785 
L 205.593509 150.678534 
L 206.766877 136.598239 
L 207.940245 135.630039 
L 209.113612 132.402787 
L 210.28698 167.586415 
L 211.460348 154.93367 
L 212.633715 149.144825 
L 213.807083 129.72732 
L 214.980451 127.667389 
L 216.153818 185.17529 
L 217.327186 127.755281 
L 218.500554 125.667369 
L 219.673921 134.459626 
L 220.847289 161.686453 
L 222.020657 172.918257 
L 223.194024 137.597497 
L 224.367392 164.759778 
L 225.54076 136.526325 
L 226.714127 169.059885 
L 227.887495 129.523346 
L 229.060863 135.787492 
L 230.23423 151.966038 
L 231.407598 151.294594 
L 232.580966 155.570336 
L 233.754333 137.424251 
L 234.927701 144.711319 
L 236.101069 151.117188 
L 237.274437 139.86745 
L 238.447804 145.808206 
L 239.621172 173.313288 
L 240.79454 181.610799 
L 241.967907 160.365065 
L 243.141275 175.289181 
L 244.314643 149.066561 
L 245.48801 138.268188 
L 246.661378 135.583689 
L 247.834746 71.862077 
L 249.008113 53.832804 
L 250.181481 70.03034 
L 251.354849 130.829913 
L 252.528216 129.305692 
L 253.701584 133.562564 
L 254.874952 129.939159 
L 256.048319 149.302502 
L 257.221687 175.769858 
L 258.395055 167.515644 
L 259.568422 155.60204 
L 260.74179 149.923136 
L 261.915158 151.043331 
L 263.088525 144.341305 
L 264.261893 146.914854 
L 266.608628 165.920412 
L 267.781996 170.589004 
L 268.955364 133.870336 
L 270.128731 128.526748 
L 271.302099 135.558143 
L 272.475467 172.144982 
L 273.648834 131.626862 
L 274.822202 129.782513 
L 275.99557 168.745782 
L 277.168938 149.608161 
L 278.342305 162.009499 
L 279.515673 195.974531 
L 280.689041 148.418508 
L 281.862408 146.203382 
L 283.035776 145.920652 
L 284.209144 167.922035 
L 285.382511 161.747402 
L 287.729247 131.734505 
L 288.902614 136.585421 
L 290.075982 140.800215 
L 291.24935 135.013262 
L 292.422717 144.27857 
L 293.596085 143.63604 
L 294.769453 164.314493 
L 295.94282 134.108828 
L 297.116188 164.764074 
L 298.289556 145.821104 
L 299.462923 174.575613 
L 300.636291 166.088114 
L 301.809659 146.074547 
L 302.983026 138.362731 
L 304.156394 144.778179 
L 305.329762 139.792836 
L 306.503129 174.74407 
L 307.676497 138.918043 
L 308.849865 154.222422 
L 310.023232 148.198102 
L 311.1966 150.010482 
L 312.369968 154.653276 
L 313.543335 141.226483 
L 314.716703 135.770467 
L 315.890071 137.63473 
L 317.063438 144.93182 
L 318.236806 137.785973 
L 319.410174 150.986081 
L 320.583542 157.09766 
L 321.756909 168.115381 
L 322.930277 140.666599 
L 324.103645 131.16241 
L 325.277012 131.758471 
L 326.45038 133.463841 
L 327.623748 125.324132 
L 328.797115 122.500871 
L 329.970483 149.904999 
L 332.317218 137.855289 
L 333.490586 168.260181 
L 334.663954 140.45657 
L 335.837321 138.827587 
L 337.010689 140.370395 
L 338.184057 143.722579 
L 339.357424 145.822532 
L 340.530792 150.574311 
L 341.70416 139.870287 
L 342.877527 124.632727 
L 344.050895 134.62835 
L 345.224263 148.798747 
L 346.39763 168.181197 
L 347.570998 163.255361 
L 348.744366 138.762613 
L 349.917733 124.631285 
L 351.091101 123.149709 
L 352.264469 134.17928 
L 353.437836 199.512071 
L 354.611204 164.502233 
L 355.784572 150.313242 
L 356.957939 137.970432 
L 358.131307 150.524543 
L 359.304675 139.799583 
L 360.478042 132.230361 
L 361.65141 137.622175 
L 362.824778 150.618812 
L 363.998146 138.031921 
L 365.171513 142.251533 
L 366.344881 150.595797 
L 367.518249 134.195092 
L 368.691616 148.581746 
L 369.864984 146.954242 
L 371.038352 137.834725 
L 372.211719 146.282907 
L 373.385087 135.186805 
L 374.558455 152.023485 
L 375.731822 126.275845 
L 376.90519 123.618162 
L 378.078558 132.281028 
L 379.251925 159.921477 
L 380.425293 151.677154 
L 381.598661 145.146945 
L 382.772028 163.914732 
L 383.945396 135.497812 
L 385.118764 144.729319 
L 386.292131 156.066453 
L 387.465499 149.560854 
L 388.638867 147.040541 
L 389.812234 132.595787 
L 390.985602 131.794983 
L 392.15897 166.924559 
L 393.332337 137.574185 
L 394.505705 139.254669 
L 395.679073 157.271019 
L 396.85244 160.269879 
L 398.025808 174.67806 
L 399.199176 170.146111 
L 400.372543 138.053146 
L 401.545911 124.164651 
L 402.719279 133.922143 
L 403.892646 141.7756 
L 405.066014 127.231045 
L 406.239382 135.337895 
L 407.41275 176.93028 
L 408.586117 136.182556 
L 409.759485 143.693079 
L 410.932853 153.390563 
L 412.10622 145.055113 
L 413.279588 201.015613 
L 415.626323 139.586711 
L 416.799691 134.047618 
L 417.973059 132.818973 
L 419.146426 118.580529 
L 420.319794 127.015094 
L 421.493162 160.415297 
L 422.666529 160.214141 
L 423.839897 138.615865 
L 425.013265 122.237227 
L 426.186632 128.84934 
L 427.36 140.456679 
L 428.533368 166.642537 
L 429.706735 145.249525 
L 430.880103 153.198631 
L 432.053471 192.593412 
L 433.226838 158.720133 
L 434.400206 160.574269 
L 435.573574 154.178024 
L 436.746941 139.562336 
L 437.920309 139.46733 
L 439.093677 205.222866 
L 440.267044 149.957016 
L 441.440412 165.561877 
L 442.61378 139.618731 
L 443.787147 137.87926 
L 444.960515 143.658336 
L 446.133883 163.954166 
L 447.4 179.847052 
L 447.4 179.847052 
" clip-path="url(#p3fddecc6ae)" style="fill: none; stroke: #2455a4; stroke-width: 1.7; stroke-linecap: square"/>
   </g>
   <g id="patch_3">
    <path d="M 51.882344 215.877656 
L 51.882344 28.357422 
" style="fill: none; stroke: #8090a0; stroke-width: 0.8; stroke-linejoin: miter; stroke-linecap: square"/>
   </g>
   <g id="patch_4">
    <path d="M 51.882344 215.877656 
L 427.36 215.877656 
" style="fill: none; stroke: #8090a0; stroke-width: 0.8; stroke-linejoin: miter; stroke-linecap: square"/>
   </g>
   <g id="text_19">
    <!-- Spectral density -->
    <g transform="translate(51.882344 22.357422) scale(0.11 -0.11)">
     <defs>
      <path id="DejaVuSans-Bold-36" d="M 3834 4519 
L 3834 3531 
Q 3450 3703 3084 3790 
Q 2719 3878 2394 3878 
Q 1963 3878 1756 3759 
Q 1550 3641 1550 3391 
Q 1550 3203 1689 3098 
Q 1828 2994 2194 2919 
L 2706 2816 
Q 3484 2659 3812 2340 
Q 4141 2022 4141 1434 
Q 4141 663 3683 286 
Q 3225 -91 2284 -91 
Q 1841 -91 1394 -6 
Q 947 78 500 244 
L 500 1259 
Q 947 1022 1364 901 
Q 1781 781 2169 781 
Q 2563 781 2772 912 
Q 2981 1044 2981 1288 
Q 2981 1506 2839 1625 
Q 2697 1744 2272 1838 
L 1806 1941 
Q 1106 2091 782 2419 
Q 459 2747 459 3303 
Q 459 4000 909 4375 
Q 1359 4750 2203 4750 
Q 2588 4750 2994 4692 
Q 3400 4634 3834 4519 
z
" transform="scale(0.015625)"/>
      <path id="DejaVuSans-Bold-53" d="M 1656 506 
L 1656 -1331 
L 538 -1331 
L 538 3500 
L 1656 3500 
L 1656 2988 
Q 1888 3294 2169 3439 
Q 2450 3584 2816 3584 
Q 3463 3584 3878 3070 
Q 4294 2556 4294 1747 
Q 4294 938 3878 423 
Q 3463 -91 2816 -91 
Q 2450 -91 2169 54 
Q 1888 200 1656 506 
z
M 2400 2772 
Q 2041 2772 1848 2508 
Q 1656 2244 1656 1747 
Q 1656 1250 1848 986 
Q 2041 722 2400 722 
Q 2759 722 2948 984 
Q 3138 1247 3138 1747 
Q 3138 2247 2948 2509 
Q 2759 2772 2400 2772 
z
" transform="scale(0.015625)"/>
      <path id="DejaVuSans-Bold-48" d="M 4031 1759 
L 4031 1441 
L 1416 1441 
Q 1456 1047 1700 850 
Q 1944 653 2381 653 
Q 2734 653 3104 758 
Q 3475 863 3866 1075 
L 3866 213 
Q 3469 63 3072 -14 
Q 2675 -91 2278 -91 
Q 1328 -91 801 392 
Q 275 875 275 1747 
Q 275 2603 792 3093 
Q 1309 3584 2216 3584 
Q 3041 3584 3536 3087 
Q 4031 2591 4031 1759 
z
M 2881 2131 
Q 2881 2450 2695 2645 
Q 2509 2841 2209 2841 
Q 1884 2841 1681 2658 
Q 1478 2475 1428 2131 
L 2881 2131 
z
" transform="scale(0.015625)"/>
      <path id="DejaVuSans-Bold-46" d="M 3366 3391 
L 3366 2478 
Q 3138 2634 2908 2709 
Q 2678 2784 2431 2784 
Q 1963 2784 1702 2511 
Q 1441 2238 1441 1747 
Q 1441 1256 1702 982 
Q 1963 709 2431 709 
Q 2694 709 2930 787 
Q 3166 866 3366 1019 
L 3366 103 
Q 3103 6 2833 -42 
Q 2563 -91 2291 -91 
Q 1344 -91 809 395 
Q 275 881 275 1747 
Q 275 2613 809 3098 
Q 1344 3584 2291 3584 
Q 2566 3584 2833 3536 
Q 3100 3488 3366 3391 
z
" transform="scale(0.015625)"/>
      <path id="DejaVuSans-Bold-57" d="M 1759 4494 
L 1759 3500 
L 2913 3500 
L 2913 2700 
L 1759 2700 
L 1759 1216 
Q 1759 972 1856 886 
Q 1953 800 2241 800 
L 2816 800 
L 2816 0 
L 1856 0 
Q 1194 0 917 276 
Q 641 553 641 1216 
L 641 2700 
L 84 2700 
L 84 3500 
L 641 3500 
L 641 4494 
L 1759 4494 
z
" transform="scale(0.015625)"/>
      <path id="DejaVuSans-Bold-55" d="M 3138 2547 
Q 2991 2616 2845 2648 
Q 2700 2681 2553 2681 
Q 2122 2681 1889 2404 
Q 1656 2128 1656 1613 
L 1656 0 
L 538 0 
L 538 3500 
L 1656 3500 
L 1656 2925 
Q 1872 3269 2151 3426 
Q 2431 3584 2822 3584 
Q 2878 3584 2943 3579 
Q 3009 3575 3134 3559 
L 3138 2547 
z
" transform="scale(0.015625)"/>
      <path id="DejaVuSans-Bold-44" d="M 2106 1575 
Q 1756 1575 1579 1456 
Q 1403 1338 1403 1106 
Q 1403 894 1545 773 
Q 1688 653 1941 653 
Q 2256 653 2472 879 
Q 2688 1106 2688 1447 
L 2688 1575 
L 2106 1575 
z
M 3816 1997 
L 3816 0 
L 2688 0 
L 2688 519 
Q 2463 200 2181 54 
Q 1900 -91 1497 -91 
Q 953 -91 614 226 
Q 275 544 275 1050 
Q 275 1666 698 1953 
Q 1122 2241 2028 2241 
L 2688 2241 
L 2688 2328 
Q 2688 2594 2478 2717 
Q 2269 2841 1825 2841 
Q 1466 2841 1156 2769 
Q 847 2697 581 2553 
L 581 3406 
Q 941 3494 1303 3539 
Q 1666 3584 2028 3584 
Q 2975 3584 3395 3211 
Q 3816 2838 3816 1997 
z
" transform="scale(0.015625)"/>
      <path id="DejaVuSans-Bold-4f" d="M 538 4863 
L 1656 4863 
L 1656 0 
L 538 0 
L 538 4863 
z
" transform="scale(0.015625)"/>
      <path id="DejaVuSans-Bold-3" transform="scale(0.015625)"/>
      <path id="DejaVuSans-Bold-47" d="M 2919 2988 
L 2919 4863 
L 4044 4863 
L 4044 0 
L 2919 0 
L 2919 506 
Q 2688 197 2409 53 
Q 2131 -91 1766 -91 
Q 1119 -91 703 423 
Q 288 938 288 1747 
Q 288 2556 703 3070 
Q 1119 3584 1766 3584 
Q 2128 3584 2408 3439 
Q 2688 3294 2919 2988 
z
M 2181 722 
Q 2541 722 2730 984 
Q 2919 1247 2919 1747 
Q 2919 2247 2730 2509 
Q 2541 2772 2181 2772 
Q 1825 2772 1636 2509 
Q 1447 2247 1447 1747 
Q 1447 1247 1636 984 
Q 1825 722 2181 722 
z
" transform="scale(0.015625)"/>
      <path id="DejaVuSans-Bold-51" d="M 4056 2131 
L 4056 0 
L 2931 0 
L 2931 347 
L 2931 1631 
Q 2931 2084 2911 2256 
Q 2891 2428 2841 2509 
Q 2775 2619 2662 2680 
Q 2550 2741 2406 2741 
Q 2056 2741 1856 2470 
Q 1656 2200 1656 1722 
L 1656 0 
L 538 0 
L 538 3500 
L 1656 3500 
L 1656 2988 
Q 1909 3294 2193 3439 
Q 2478 3584 2822 3584 
Q 3428 3584 3742 3212 
Q 4056 2841 4056 2131 
z
" transform="scale(0.015625)"/>
      <path id="DejaVuSans-Bold-56" d="M 3272 3391 
L 3272 2541 
Q 2913 2691 2578 2766 
Q 2244 2841 1947 2841 
Q 1628 2841 1473 2761 
Q 1319 2681 1319 2516 
Q 1319 2381 1436 2309 
Q 1553 2238 1856 2203 
L 2053 2175 
Q 2913 2066 3209 1816 
Q 3506 1566 3506 1031 
Q 3506 472 3093 190 
Q 2681 -91 1863 -91 
Q 1516 -91 1145 -36 
Q 775 19 384 128 
L 384 978 
Q 719 816 1070 734 
Q 1422 653 1784 653 
Q 2113 653 2278 743 
Q 2444 834 2444 1013 
Q 2444 1163 2330 1236 
Q 2216 1309 1875 1350 
L 1678 1375 
Q 931 1469 631 1722 
Q 331 1975 331 2491 
Q 331 3047 712 3315 
Q 1094 3584 1881 3584 
Q 2191 3584 2531 3537 
Q 2872 3491 3272 3391 
z
" transform="scale(0.015625)"/>
      <path id="DejaVuSans-Bold-4c" d="M 538 3500 
L 1656 3500 
L 1656 0 
L 538 0 
L 538 3500 
z
M 538 4863 
L 1656 4863 
L 1656 3950 
L 538 3950 
L 538 4863 
z
" transform="scale(0.015625)"/>
      <path id="DejaVuSans-Bold-5c" d="M 78 3500 
L 1197 3500 
L 2138 1125 
L 2938 3500 
L 4056 3500 
L 2584 -331 
Q 2363 -916 2067 -1148 
Q 1772 -1381 1288 -1381 
L 641 -1381 
L 641 -647 
L 991 -647 
Q 1275 -647 1404 -556 
Q 1534 -466 1606 -231 
L 1638 -134 
L 78 3500 
z
" transform="scale(0.015625)"/>
     </defs>
     <use xlink:href="#DejaVuSans-Bold-36"/>
     <use xlink:href="#DejaVuSans-Bold-53" transform="translate(72.015625 0)"/>
     <use xlink:href="#DejaVuSans-Bold-48" transform="translate(143.59375 0)"/>
     <use xlink:href="#DejaVuSans-Bold-46" transform="translate(211.421875 0)"/>
     <use xlink:href="#DejaVuSans-Bold-57" transform="translate(270.703125 0)"/>
     <use xlink:href="#DejaVuSans-Bold-55" transform="translate(318.5 0)"/>
     <use xlink:href="#DejaVuSans-Bold-44" transform="translate(367.8125 0)"/>
     <use xlink:href="#DejaVuSans-Bold-4f" transform="translate(435.296875 0)"/>
     <use xlink:href="#DejaVuSans-Bold-3" transform="translate(469.578125 0)"/>
     <use xlink:href="#DejaVuSans-Bold-47" transform="translate(504.390625 0)"/>
     <use xlink:href="#DejaVuSans-Bold-48" transform="translate(575.96875 0)"/>
     <use xlink:href="#DejaVuSans-Bold-51" transform="translate(643.796875 0)"/>
     <use xlink:href="#DejaVuSans-Bold-56" transform="translate(714.984375 0)"/>
     <use xlink:href="#DejaVuSans-Bold-4c" transform="translate(774.5 0)"/>
     <use xlink:href="#DejaVuSans-Bold-57" transform="translate(808.78125 0)"/>
     <use xlink:href="#DejaVuSans-Bold-5c" transform="translate(856.578125 0)"/>
    </g>
   </g>
  </g>
 </g>
 <defs>
  <clipPath id="p3fddecc6ae">
   <rect x="51.882344" y="28.357422" width="375.477656" height="187.520234"/>
  </clipPath>
 </defs>
</svg>
