<?xml version="1.0" encoding="utf-8" standalone="no"?>
<!DOCTYPE svg PUBLIC "-//W3C//DTD SVG 1.1//EN"
  "http://www.w3.org/Graphics/SVG/1.1/DTD/svg11.dtd">
<svg xmlns:xlink="http://www.w3.org/1999/xlink" width="388.8pt" height="273.6pt" viewBox="0 0 388.8 273.6" xmlns="http://www.w3.org/2000/svg" version="1.1">
 <metadata>
  <rdf:RDF xmlns:dc="http://purl.org/dc/elements/1.1/" xmlns:cc="http://creativecommons.org/ns#" xmlns:rdf="http://www.w3.org/1999/02/22-rdf-syntax-ns#">
   <cc:Work>
    <dc:type rdf:resource="http://purl.org/dc/dcmitype/StillImage"/>
    <dc:date>2026-06-20T22:53:39.874042</dc:date>
    <dc:format>image/svg+xml</dc:format>
    <dc:creator>
     <cc:Agent>
      <dc:title>python-plotting-skill clean-room renderer</dc:title>
     </cc:Agent>
    </dc:creator>
   </cc:Work>
  </rdf:RDF>
 </metadata>
 <defs>
  <style type="text/css">*{stroke-linejoin: round; stroke-linecap: butt}</style>
 </defs>
 <g id="figure_1">
  <g id="patch_1">
   <path d="M 0 273.6 
L 388.8 273.6 
L 388.8 0 
L 0 0 
z
" style="fill: #ffffff"/>
  </g>
  <g id="axes_1">
   <g id="patch_2">
    <path d="M 45.402344 244.6 
L 374.8 244.6 
L 374.8 28.357422 
L 45.402344 28.357422 
z
" style="fill: #ffffff"/>
   </g>
   <g id="matplotlib.axis_1">
    <g id="xtick_1">
     <g id="line2d_1">
      <path d="M 90.320206 244.6 
L 90.320206 28.357422 
" clip-path="url(#p22e6457d90)" style="fill: none; stroke: #d9dee7; stroke-opacity: 0.75; stroke-width: 0.7; stroke-linecap: square"/>
     </g>
     <g id="line2d_2">
      <defs>
       <path id="md597384a45" d="M 0 0 
L 0 3.5 
" style="stroke: #324052; stroke-width: 0.8"/>
      </defs>
      <g>
       <use xlink:href="#md597384a45" x="90.320206" y="244.6" style="fill: #324052; stroke: #324052; stroke-width: 0.8"/>
      </g>
     </g>
     <g id="text_1">
      <!-- A -->
      <g style="fill: #324052" transform="translate(87.583956 257.678125) scale(0.08 -0.08)">
       <defs>
        <path id="DejaVuSans-24" d="M 2188 4044 
L 1331 1722 
L 3047 1722 
L 2188 4044 
z
M 1831 4666 
L 2547 4666 
L 4325 0 
L 3669 0 
L 3244 1197 
L 1141 1197 
L 716 0 
L 50 0 
L 1831 4666 
z
" transform="scale(0.015625)"/>
       </defs>
       <use xlink:href="#DejaVuSans-24"/>
      </g>
     </g>
    </g>
    <g id="xtick_2">
     <g id="line2d_3">
      <path d="M 210.101172 244.6 
L 210.101172 28.357422 
" clip-path="url(#p22e6457d90)" style="fill: none; stroke: #d9dee7; stroke-opacity: 0.75; stroke-width: 0.7; stroke-linecap: square"/>
     </g>
     <g id="line2d_4">
      <g>
       <use xlink:href="#md597384a45" x="210.101172" y="244.6" style="fill: #324052; stroke: #324052; stroke-width: 0.8"/>
      </g>
     </g>
     <g id="text_2">
      <!-- B -->
      <g style="fill: #324052" transform="translate(207.356797 257.678125) scale(0.08 -0.08)">
       <defs>
        <path id="DejaVuSans-25" d="M 1259 2228 
L 1259 519 
L 2272 519 
Q 2781 519 3026 730 
Q 3272 941 3272 1375 
Q 3272 1813 3026 2020 
Q 2781 2228 2272 2228 
L 1259 2228 
z
M 1259 4147 
L 1259 2741 
L 2194 2741 
Q 2656 2741 2882 2914 
Q 3109 3088 3109 3444 
Q 3109 3797 2882 3972 
Q 2656 4147 2194 4147 
L 1259 4147 
z
M 628 4666 
L 2241 4666 
Q 2963 4666 3353 4366 
Q 3744 4066 3744 3513 
Q 3744 3084 3544 2831 
Q 3344 2578 2956 2516 
Q 3422 2416 3680 2098 
Q 3938 1781 3938 1306 
Q 3938 681 3513 340 
Q 3088 0 2303 0 
L 628 0 
L 628 4666 
z
" transform="scale(0.015625)"/>
       </defs>
       <use xlink:href="#DejaVuSans-25"/>
      </g>
     </g>
    </g>
    <g id="xtick_3">
     <g id="line2d_5">
      <path d="M 329.882138 244.6 
L 329.882138 28.357422 
" clip-path="url(#p22e6457d90)" style="fill: none; stroke: #d9dee7; stroke-opacity: 0.75; stroke-width: 0.7; stroke-linecap: square"/>
     </g>
     <g id="line2d_6">
      <g>
       <use xlink:href="#md597384a45" x="329.882138" y="244.6" style="fill: #324052; stroke: #324052; stroke-width: 0.8"/>
      </g>
     </g>
     <g id="text_3">
      <!-- C -->
      <g style="fill: #324052" transform="translate(327.089013 257.678125) scale(0.08 -0.08)">
       <defs>
        <path id="DejaVuSans-26" d="M 4122 4306 
L 4122 3641 
Q 3803 3938 3442 4084 
Q 3081 4231 2675 4231 
Q 1875 4231 1450 3742 
Q 1025 3253 1025 2328 
Q 1025 1406 1450 917 
Q 1875 428 2675 428 
Q 3081 428 3442 575 
Q 3803 722 4122 1019 
L 4122 359 
Q 3791 134 3420 21 
Q 3050 -91 2638 -91 
Q 1578 -91 968 557 
Q 359 1206 359 2328 
Q 359 3453 968 4101 
Q 1578 4750 2638 4750 
Q 3056 4750 3426 4639 
Q 3797 4528 4122 4306 
z
" transform="scale(0.015625)"/>
       </defs>
       <use xlink:href="#DejaVuSans-26"/>
      </g>
     </g>
    </g>
   </g>
   <g id="matplotlib.axis_2">
    <g id="ytick_1">
     <g id="line2d_7">
      <path d="M 45.402344 243.513399 
L 374.8 243.513399 
" clip-path="url(#p22e6457d90)" style="fill: none; stroke: #d9dee7; stroke-opacity: 0.75; stroke-width: 0.7; stroke-linecap: square"/>
     </g>
     <g id="line2d_8">
      <defs>
       <path id="md18ce91747" d="M 0 0 
L -3.5 0 
" style="stroke: #324052; stroke-width: 0.8"/>
      </defs>
      <g>
       <use xlink:href="#md18ce91747" x="45.402344" y="243.513399" style="fill: #324052; stroke: #324052; stroke-width: 0.8"/>
      </g>
     </g>
     <g id="text_4">
      <!-- 0 -->
      <g style="fill: #324052" transform="translate(33.312344 246.552462) scale(0.08 -0.08)">
       <defs>
        <path id="DejaVuSans-13" d="M 2034 4250 
Q 1547 4250 1301 3770 
Q 1056 3291 1056 2328 
Q 1056 1369 1301 889 
Q 1547 409 2034 409 
Q 2525 409 2770 889 
Q 3016 1369 3016 2328 
Q 3016 3291 2770 3770 
Q 2525 4250 2034 4250 
z
M 2034 4750 
Q 2819 4750 3233 4129 
Q 3647 3509 3647 2328 
Q 3647 1150 3233 529 
Q 2819 -91 2034 -91 
Q 1250 -91 836 529 
Q 422 1150 422 2328 
Q 422 3509 836 4129 
Q 1250 4750 2034 4750 
z
" transform="scale(0.015625)"/>
       </defs>
       <use xlink:href="#DejaVuSans-13"/>
      </g>
     </g>
    </g>
    <g id="ytick_2">
     <g id="line2d_9">
      <path d="M 45.402344 217.817104 
L 374.8 217.817104 
" clip-path="url(#p22e6457d90)" style="fill: none; stroke: #d9dee7; stroke-opacity: 0.75; stroke-width: 0.7; stroke-linecap: square"/>
     </g>
     <g id="line2d_10">
      <g>
       <use xlink:href="#md18ce91747" x="45.402344" y="217.817104" style="fill: #324052; stroke: #324052; stroke-width: 0.8"/>
      </g>
     </g>
     <g id="text_5">
      <!-- 2 -->
      <g style="fill: #324052" transform="translate(33.312344 220.856167) scale(0.08 -0.08)">
       <defs>
        <path id="DejaVuSans-15" d="M 1228 531 
L 3431 531 
L 3431 0 
L 469 0 
L 469 531 
Q 828 903 1448 1529 
Q 2069 2156 2228 2338 
Q 2531 2678 2651 2914 
Q 2772 3150 2772 3378 
Q 2772 3750 2511 3984 
Q 2250 4219 1831 4219 
Q 1534 4219 1204 4116 
Q 875 4013 500 3803 
L 500 4441 
Q 881 4594 1212 4672 
Q 1544 4750 1819 4750 
Q 2544 4750 2975 4387 
Q 3406 4025 3406 3419 
Q 3406 3131 3298 2873 
Q 3191 2616 2906 2266 
Q 2828 2175 2409 1742 
Q 1991 1309 1228 531 
z
" transform="scale(0.015625)"/>
       </defs>
       <use xlink:href="#DejaVuSans-15"/>
      </g>
     </g>
    </g>
    <g id="ytick_3">
     <g id="line2d_11">
      <path d="M 45.402344 192.120809 
L 374.8 192.120809 
" clip-path="url(#p22e6457d90)" style="fill: none; stroke: #d9dee7; stroke-opacity: 0.75; stroke-width: 0.7; stroke-linecap: square"/>
     </g>
     <g id="line2d_12">
      <g>
       <use xlink:href="#md18ce91747" x="45.402344" y="192.120809" style="fill: #324052; stroke: #324052; stroke-width: 0.8"/>
      </g>
     </g>
     <g id="text_6">
      <!-- 4 -->
      <g style="fill: #324052" transform="translate(33.312344 195.159872) scale(0.08 -0.08)">
       <defs>
        <path id="DejaVuSans-17" d="M 2419 4116 
L 825 1625 
L 2419 1625 
L 2419 4116 
z
M 2253 4666 
L 3047 4666 
L 3047 1625 
L 3713 1625 
L 3713 1100 
L 3047 1100 
L 3047 0 
L 2419 0 
L 2419 1100 
L 313 1100 
L 313 1709 
L 2253 4666 
z
" transform="scale(0.015625)"/>
       </defs>
       <use xlink:href="#DejaVuSans-17"/>
      </g>
     </g>
    </g>
    <g id="ytick_4">
     <g id="line2d_13">
      <path d="M 45.402344 166.424515 
L 374.8 166.424515 
" clip-path="url(#p22e6457d90)" style="fill: none; stroke: #d9dee7; stroke-opacity: 0.75; stroke-width: 0.7; stroke-linecap: square"/>
     </g>
     <g id="line2d_14">
      <g>
       <use xlink:href="#md18ce91747" x="45.402344" y="166.424515" style="fill: #324052; stroke: #324052; stroke-width: 0.8"/>
      </g>
     </g>
     <g id="text_7">
      <!-- 6 -->
      <g style="fill: #324052" transform="translate(33.312344 169.463577) scale(0.08 -0.08)">
       <defs>
        <path id="DejaVuSans-19" d="M 2113 2584 
Q 1688 2584 1439 2293 
Q 1191 2003 1191 1497 
Q 1191 994 1439 701 
Q 1688 409 2113 409 
Q 2538 409 2786 701 
Q 3034 994 3034 1497 
Q 3034 2003 2786 2293 
Q 2538 2584 2113 2584 
z
M 3366 4563 
L 3366 3988 
Q 3128 4100 2886 4159 
Q 2644 4219 2406 4219 
Q 1781 4219 1451 3797 
Q 1122 3375 1075 2522 
Q 1259 2794 1537 2939 
Q 1816 3084 2150 3084 
Q 2853 3084 3261 2657 
Q 3669 2231 3669 1497 
Q 3669 778 3244 343 
Q 2819 -91 2113 -91 
Q 1303 -91 875 529 
Q 447 1150 447 2328 
Q 447 3434 972 4092 
Q 1497 4750 2381 4750 
Q 2619 4750 2861 4703 
Q 3103 4656 3366 4563 
z
" transform="scale(0.015625)"/>
       </defs>
       <use xlink:href="#DejaVuSans-19"/>
      </g>
     </g>
    </g>
    <g id="ytick_5">
     <g id="line2d_15">
      <path d="M 45.402344 140.72822 
L 374.8 140.72822 
" clip-path="url(#p22e6457d90)" style="fill: none; stroke: #d9dee7; stroke-opacity: 0.75; stroke-width: 0.7; stroke-linecap: square"/>
     </g>
     <g id="line2d_16">
      <g>
       <use xlink:href="#md18ce91747" x="45.402344" y="140.72822" style="fill: #324052; stroke: #324052; stroke-width: 0.8"/>
      </g>
     </g>
     <g id="text_8">
      <!-- 8 -->
      <g style="fill: #324052" transform="translate(33.312344 143.767282) scale(0.08 -0.08)">
       <defs>
        <path id="DejaVuSans-1b" d="M 2034 2216 
Q 1584 2216 1326 1975 
Q 1069 1734 1069 1313 
Q 1069 891 1326 650 
Q 1584 409 2034 409 
Q 2484 409 2743 651 
Q 3003 894 3003 1313 
Q 3003 1734 2745 1975 
Q 2488 2216 2034 2216 
z
M 1403 2484 
Q 997 2584 770 2862 
Q 544 3141 544 3541 
Q 544 4100 942 4425 
Q 1341 4750 2034 4750 
Q 2731 4750 3128 4425 
Q 3525 4100 3525 3541 
Q 3525 3141 3298 2862 
Q 3072 2584 2669 2484 
Q 3125 2378 3379 2068 
Q 3634 1759 3634 1313 
Q 3634 634 3220 271 
Q 2806 -91 2034 -91 
Q 1263 -91 848 271 
Q 434 634 434 1313 
Q 434 1759 690 2068 
Q 947 2378 1403 2484 
z
M 1172 3481 
Q 1172 3119 1398 2916 
Q 1625 2713 2034 2713 
Q 2441 2713 2670 2916 
Q 2900 3119 2900 3481 
Q 2900 3844 2670 4047 
Q 2441 4250 2034 4250 
Q 1625 4250 1398 4047 
Q 1172 3844 1172 3481 
z
" transform="scale(0.015625)"/>
       </defs>
       <use xlink:href="#DejaVuSans-1b"/>
      </g>
     </g>
    </g>
    <g id="ytick_6">
     <g id="line2d_17">
      <path d="M 45.402344 115.031925 
L 374.8 115.031925 
" clip-path="url(#p22e6457d90)" style="fill: none; stroke: #d9dee7; stroke-opacity: 0.75; stroke-width: 0.7; stroke-linecap: square"/>
     </g>
     <g id="line2d_18">
      <g>
       <use xlink:href="#md18ce91747" x="45.402344" y="115.031925" style="fill: #324052; stroke: #324052; stroke-width: 0.8"/>
      </g>
     </g>
     <g id="text_9">
      <!-- 10 -->
      <g style="fill: #324052" transform="translate(28.222344 118.070987) scale(0.08 -0.08)">
       <defs>
        <path id="DejaVuSans-14" d="M 794 531 
L 1825 531 
L 1825 4091 
L 703 3866 
L 703 4441 
L 1819 4666 
L 2450 4666 
L 2450 531 
L 3481 531 
L 3481 0 
L 794 0 
L 794 531 
z
" transform="scale(0.015625)"/>
       </defs>
       <use xlink:href="#DejaVuSans-14"/>
       <use xlink:href="#DejaVuSans-13" transform="translate(63.625 0)"/>
      </g>
     </g>
    </g>
    <g id="ytick_7">
     <g id="line2d_19">
      <path d="M 45.402344 89.33563 
L 374.8 89.33563 
" clip-path="url(#p22e6457d90)" style="fill: none; stroke: #d9dee7; stroke-opacity: 0.75; stroke-width: 0.7; stroke-linecap: square"/>
     </g>
     <g id="line2d_20">
      <g>
       <use xlink:href="#md18ce91747" x="45.402344" y="89.33563" style="fill: #324052; stroke: #324052; stroke-width: 0.8"/>
      </g>
     </g>
     <g id="text_10">
      <!-- 12 -->
      <g style="fill: #324052" transform="translate(28.222344 92.374693) scale(0.08 -0.08)">
       <use xlink:href="#DejaVuSans-14"/>
       <use xlink:href="#DejaVuSans-15" transform="translate(63.625 0)"/>
      </g>
     </g>
    </g>
    <g id="ytick_8">
     <g id="line2d_21">
      <path d="M 45.402344 63.639335 
L 374.8 63.639335 
" clip-path="url(#p22e6457d90)" style="fill: none; stroke: #d9dee7; stroke-opacity: 0.75; stroke-width: 0.7; stroke-linecap: square"/>
     </g>
     <g id="line2d_22">
      <g>
       <use xlink:href="#md18ce91747" x="45.402344" y="63.639335" style="fill: #324052; stroke: #324052; stroke-width: 0.8"/>
      </g>
     </g>
     <g id="text_11">
      <!-- 14 -->
      <g style="fill: #324052" transform="translate(28.222344 66.678398) scale(0.08 -0.08)">
       <use xlink:href="#DejaVuSans-14"/>
       <use xlink:href="#DejaVuSans-17" transform="translate(63.625 0)"/>
      </g>
     </g>
    </g>
    <g id="ytick_9">
     <g id="line2d_23">
      <path d="M 45.402344 37.94304 
L 374.8 37.94304 
" clip-path="url(#p22e6457d90)" style="fill: none; stroke: #d9dee7; stroke-opacity: 0.75; stroke-width: 0.7; stroke-linecap: square"/>
     </g>
     <g id="line2d_24">
      <g>
       <use xlink:href="#md18ce91747" x="45.402344" y="37.94304" style="fill: #324052; stroke: #324052; stroke-width: 0.8"/>
      </g>
     </g>
     <g id="text_12">
      <!-- 16 -->
      <g style="fill: #324052" transform="translate(28.222344 40.982103) scale(0.08 -0.08)">
       <use xlink:href="#DejaVuSans-14"/>
       <use xlink:href="#DejaVuSans-19" transform="translate(63.625 0)"/>
      </g>
     </g>
    </g>
    <g id="text_13">
     <!-- Distribution -->
     <g transform="translate(21.82 165.647461) rotate(-90) scale(0.1 -0.1)">
      <defs>
       <path id="DejaVuSans-27" d="M 1259 4147 
L 1259 519 
L 2022 519 
Q 2988 519 3436 956 
Q 3884 1394 3884 2338 
Q 3884 3275 3436 3711 
Q 2988 4147 2022 4147 
L 1259 4147 
z
M 628 4666 
L 1925 4666 
Q 3281 4666 3915 4102 
Q 4550 3538 4550 2338 
Q 4550 1131 3912 565 
Q 3275 0 1925 0 
L 628 0 
L 628 4666 
z
" transform="scale(0.015625)"/>
       <path id="DejaVuSans-4c" d="M 603 3500 
L 1178 3500 
L 1178 0 
L 603 0 
L 603 3500 
z
M 603 4863 
L 1178 4863 
L 1178 4134 
L 603 4134 
L 603 4863 
z
" transform="scale(0.015625)"/>
       <path id="DejaVuSans-56" d="M 2834 3397 
L 2834 2853 
Q 2591 2978 2328 3040 
Q 2066 3103 1784 3103 
Q 1356 3103 1142 2972 
Q 928 2841 928 2578 
Q 928 2378 1081 2264 
Q 1234 2150 1697 2047 
L 1894 2003 
Q 2506 1872 2764 1633 
Q 3022 1394 3022 966 
Q 3022 478 2636 193 
Q 2250 -91 1575 -91 
Q 1294 -91 989 -36 
Q 684 19 347 128 
L 347 722 
Q 666 556 975 473 
Q 1284 391 1588 391 
Q 1994 391 2212 530 
Q 2431 669 2431 922 
Q 2431 1156 2273 1281 
Q 2116 1406 1581 1522 
L 1381 1569 
Q 847 1681 609 1914 
Q 372 2147 372 2553 
Q 372 3047 722 3315 
Q 1072 3584 1716 3584 
Q 2034 3584 2315 3537 
Q 2597 3491 2834 3397 
z
" transform="scale(0.015625)"/>
       <path id="DejaVuSans-57" d="M 1172 4494 
L 1172 3500 
L 2356 3500 
L 2356 3053 
L 1172 3053 
L 1172 1153 
Q 1172 725 1289 603 
Q 1406 481 1766 481 
L 2356 481 
L 2356 0 
L 1766 0 
Q 1100 0 847 248 
Q 594 497 594 1153 
L 594 3053 
L 172 3053 
L 172 3500 
L 594 3500 
L 594 4494 
L 1172 4494 
z
" transform="scale(0.015625)"/>
       <path id="DejaVuSans-55" d="M 2631 2963 
Q 2534 3019 2420 3045 
Q 2306 3072 2169 3072 
Q 1681 3072 1420 2755 
Q 1159 2438 1159 1844 
L 1159 0 
L 581 0 
L 581 3500 
L 1159 3500 
L 1159 2956 
Q 1341 3275 1631 3429 
Q 1922 3584 2338 3584 
Q 2397 3584 2469 3576 
Q 2541 3569 2628 3553 
L 2631 2963 
z
" transform="scale(0.015625)"/>
       <path id="DejaVuSans-45" d="M 3116 1747 
Q 3116 2381 2855 2742 
Q 2594 3103 2138 3103 
Q 1681 3103 1420 2742 
Q 1159 2381 1159 1747 
Q 1159 1113 1420 752 
Q 1681 391 2138 391 
Q 2594 391 2855 752 
Q 3116 1113 3116 1747 
z
M 1159 2969 
Q 1341 3281 1617 3432 
Q 1894 3584 2278 3584 
Q 2916 3584 3314 3078 
Q 3713 2572 3713 1747 
Q 3713 922 3314 415 
Q 2916 -91 2278 -91 
Q 1894 -91 1617 61 
Q 1341 213 1159 525 
L 1159 0 
L 581 0 
L 581 4863 
L 1159 4863 
L 1159 2969 
z
" transform="scale(0.015625)"/>
       <path id="DejaVuSans-58" d="M 544 1381 
L 544 3500 
L 1119 3500 
L 1119 1403 
Q 1119 906 1312 657 
Q 1506 409 1894 409 
Q 2359 409 2629 706 
Q 2900 1003 2900 1516 
L 2900 3500 
L 3475 3500 
L 3475 0 
L 2900 0 
L 2900 538 
Q 2691 219 2414 64 
Q 2138 -91 1772 -91 
Q 1169 -91 856 284 
Q 544 659 544 1381 
z
M 1991 3584 
L 1991 3584 
z
" transform="scale(0.015625)"/>
       <path id="DejaVuSans-52" d="M 1959 3097 
Q 1497 3097 1228 2736 
Q 959 2375 959 1747 
Q 959 1119 1226 758 
Q 1494 397 1959 397 
Q 2419 397 2687 759 
Q 2956 1122 2956 1747 
Q 2956 2369 2687 2733 
Q 2419 3097 1959 3097 
z
M 1959 3584 
Q 2709 3584 3137 3096 
Q 3566 2609 3566 1747 
Q 3566 888 3137 398 
Q 2709 -91 1959 -91 
Q 1206 -91 779 398 
Q 353 888 353 1747 
Q 353 2609 779 3096 
Q 1206 3584 1959 3584 
z
" transform="scale(0.015625)"/>
       <path id="DejaVuSans-51" d="M 3513 2113 
L 3513 0 
L 2938 0 
L 2938 2094 
Q 2938 2591 2744 2837 
Q 2550 3084 2163 3084 
Q 1697 3084 1428 2787 
Q 1159 2491 1159 1978 
L 1159 0 
L 581 0 
L 581 3500 
L 1159 3500 
L 1159 2956 
Q 1366 3272 1645 3428 
Q 1925 3584 2291 3584 
Q 2894 3584 3203 3211 
Q 3513 2838 3513 2113 
z
" transform="scale(0.015625)"/>
      </defs>
      <use xlink:href="#DejaVuSans-27"/>
      <use xlink:href="#DejaVuSans-4c" transform="translate(77 0)"/>
      <use xlink:href="#DejaVuSans-56" transform="translate(104.78125 0)"/>
      <use xlink:href="#DejaVuSans-57" transform="translate(156.875 0)"/>
      <use xlink:href="#DejaVuSans-55" transform="translate(196.078125 0)"/>
      <use xlink:href="#DejaVuSans-4c" transform="translate(237.1875 0)"/>
      <use xlink:href="#DejaVuSans-45" transform="translate(264.96875 0)"/>
      <use xlink:href="#DejaVuSans-58" transform="translate(328.453125 0)"/>
      <use xlink:href="#DejaVuSans-57" transform="translate(391.828125 0)"/>
      <use xlink:href="#DejaVuSans-4c" transform="translate(431.03125 0)"/>
      <use xlink:href="#DejaVuSans-52" transform="translate(458.8125 0)"/>
      <use xlink:href="#DejaVuSans-51" transform="translate(520 0)"/>
     </g>
    </g>
   </g>
   <g id="FillBetweenPolyCollection_1">
    <defs>
     <path id="mca419d5b8f" d="M 99.906915 -38.829208 
L 80.733497 -38.829208 
L 79.317676 -40.193389 
L 77.826301 -41.55757 
L 76.275291 -42.921752 
L 74.682772 -44.285933 
L 73.068917 -45.650114 
L 71.455774 -47.014295 
L 69.867 -48.378476 
L 68.327463 -49.742658 
L 66.86265 -51.106839 
L 65.497871 -52.47102 
L 64.257292 -53.835201 
L 63.162861 -55.199382 
L 62.233244 -56.563564 
L 61.482866 -57.927745 
L 60.921198 -59.291926 
L 60.552341 -60.656107 
L 60.374964 -62.020288 
L 60.382569 -63.38447 
L 60.564033 -64.748651 
L 60.90434 -66.112832 
L 61.385399 -67.477013 
L 61.986883 -68.841194 
L 62.686999 -70.205375 
L 63.4632 -71.569557 
L 64.292834 -72.933738 
L 65.153759 -74.297919 
L 66.024988 -75.6621 
L 66.88738 -77.026281 
L 67.724381 -78.390463 
L 68.522793 -79.754644 
L 69.273486 -81.118825 
L 69.971966 -82.483006 
L 70.618674 -83.847187 
L 71.218944 -85.211369 
L 71.782547 -86.57555 
L 72.322812 -87.939731 
L 72.855403 -89.303912 
L 73.396839 -90.668093 
L 73.962924 -92.032274 
L 74.567264 -93.396456 
L 75.220009 -94.760637 
L 75.926984 -96.124818 
L 76.689251 -97.488999 
L 77.503149 -98.85318 
L 78.360759 -100.217362 
L 79.250709 -101.581543 
L 80.159215 -102.945724 
L 81.07122 -104.309905 
L 81.971517 -105.674086 
L 82.845747 -107.038268 
L 83.681205 -108.402449 
L 84.467403 -109.76663 
L 85.19637 -111.130811 
L 85.862713 -112.494992 
L 86.46347 -113.859174 
L 86.997794 -115.223355 
L 87.466542 -116.587536 
L 87.871835 -117.951717 
L 88.216628 -119.315898 
L 88.504359 -120.680079 
L 88.7387 -122.044261 
L 88.923422 -123.408442 
L 89.062367 -124.772623 
L 89.159515 -126.136804 
L 89.21909 -127.500985 
L 89.245684 -128.865167 
L 89.244347 -130.229348 
L 89.220617 -131.593529 
L 89.180462 -132.95771 
L 89.130146 -134.321891 
L 89.076002 -135.686073 
L 89.024153 -137.050254 
L 88.980207 -138.414435 
L 88.948949 -139.778616 
L 88.934075 -141.142797 
L 88.93799 -142.506979 
L 88.961688 -143.87116 
L 89.004734 -145.235341 
L 89.065345 -146.599522 
L 89.140555 -147.963703 
L 89.226465 -149.327884 
L 89.318542 -150.692066 
L 89.411954 -152.056247 
L 89.501905 -153.420428 
L 89.583963 -154.784609 
L 89.654341 -156.14879 
L 89.710139 -157.512972 
L 89.749514 -158.877153 
L 89.771781 -160.241334 
L 89.777443 -161.605515 
L 89.768134 -162.969696 
L 89.746497 -164.333878 
L 89.715984 -165.698059 
L 89.680594 -167.06224 
L 89.644571 -168.426421 
L 89.612079 -169.790602 
L 89.586878 -171.154784 
L 89.572038 -172.518965 
L 89.569716 -173.883146 
L 91.070696 -173.883146 
L 91.070696 -173.883146 
L 91.068374 -172.518965 
L 91.053534 -171.154784 
L 91.028333 -169.790602 
L 90.995841 -168.426421 
L 90.959818 -167.06224 
L 90.924428 -165.698059 
L 90.893914 -164.333878 
L 90.872278 -162.969696 
L 90.862969 -161.605515 
L 90.868631 -160.241334 
L 90.890898 -158.877153 
L 90.930273 -157.512972 
L 90.986071 -156.14879 
L 91.056449 -154.784609 
L 91.138507 -153.420428 
L 91.228458 -152.056247 
L 91.32187 -150.692066 
L 91.413947 -149.327884 
L 91.499857 -147.963703 
L 91.575067 -146.599522 
L 91.635678 -145.235341 
L 91.678724 -143.87116 
L 91.702422 -142.506979 
L 91.706337 -141.142797 
L 91.691463 -139.778616 
L 91.660205 -138.414435 
L 91.616259 -137.050254 
L 91.56441 -135.686073 
L 91.510266 -134.321891 
L 91.45995 -132.95771 
L 91.419795 -131.593529 
L 91.396064 -130.229348 
L 91.394728 -128.865167 
L 91.421322 -127.500985 
L 91.480897 -126.136804 
L 91.578045 -124.772623 
L 91.71699 -123.408442 
L 91.901712 -122.044261 
L 92.136053 -120.680079 
L 92.423784 -119.315898 
L 92.768577 -117.951717 
L 93.17387 -116.587536 
L 93.642618 -115.223355 
L 94.176942 -113.859174 
L 94.777699 -112.494992 
L 95.444042 -111.130811 
L 96.173009 -109.76663 
L 96.959206 -108.402449 
L 97.794665 -107.038268 
L 98.668895 -105.674086 
L 99.569192 -104.309905 
L 100.481197 -102.945724 
L 101.389703 -101.581543 
L 102.279653 -100.217362 
L 103.137263 -98.85318 
L 103.951161 -97.488999 
L 104.713428 -96.124818 
L 105.420403 -94.760637 
L 106.073148 -93.396456 
L 106.677488 -92.032274 
L 107.243573 -90.668093 
L 107.785009 -89.303912 
L 108.3176 -87.939731 
L 108.857865 -86.57555 
L 109.421468 -85.211369 
L 110.021738 -83.847187 
L 110.668446 -82.483006 
L 111.366926 -81.118825 
L 112.117619 -79.754644 
L 112.916031 -78.390463 
L 113.753032 -77.026281 
L 114.615423 -75.6621 
L 115.486653 -74.297919 
L 116.347578 -72.933738 
L 117.177212 -71.569557 
L 117.953413 -70.205375 
L 118.653529 -68.841194 
L 119.255013 -67.477013 
L 119.736072 -66.112832 
L 120.076378 -64.748651 
L 120.257842 -63.38447 
L 120.265447 -62.020288 
L 120.088071 -60.656107 
L 119.719214 -59.291926 
L 119.157546 -57.927745 
L 118.407168 -56.563564 
L 117.477551 -55.199382 
L 116.38312 -53.835201 
L 115.142541 -52.47102 
L 113.777762 -51.106839 
L 112.312949 -49.742658 
L 110.773412 -48.378476 
L 109.184638 -47.014295 
L 107.571495 -45.650114 
L 105.95764 -44.285933 
L 104.365121 -42.921752 
L 102.814111 -41.55757 
L 101.322736 -40.193389 
L 99.906915 -38.829208 
z
" style="stroke: #445c6d; stroke-opacity: 0.75"/>
    </defs>
    <g clip-path="url(#p22e6457d90)">
     <use xlink:href="#mca419d5b8f" x="0" y="273.6" style="fill: #84a9c0; fill-opacity: 0.75; stroke: #445c6d; stroke-opacity: 0.75"/>
    </g>
   </g>
   <g id="FillBetweenPolyCollection_2">
    <defs>
     <path id="mcabdb26471" d="M 216.940592 -39.46013 
L 203.261752 -39.46013 
L 202.425016 -40.369084 
L 201.539028 -41.278038 
L 200.608484 -42.186992 
L 199.639096 -43.095946 
L 198.637465 -44.0049 
L 197.610902 -44.913854 
L 196.567207 -45.822808 
L 195.514411 -46.731762 
L 194.460514 -47.640716 
L 193.413226 -48.54967 
L 192.379737 -49.458624 
L 191.366541 -50.367578 
L 190.379315 -51.276532 
L 189.422877 -52.185486 
L 188.501207 -53.09444 
L 187.617534 -54.003394 
L 186.774467 -54.912348 
L 185.974161 -55.821302 
L 185.218479 -56.730256 
L 184.509143 -57.639209 
L 183.847853 -58.548163 
L 183.236347 -59.457117 
L 182.67641 -60.366071 
L 182.169828 -61.275025 
L 181.718293 -62.183979 
L 181.323272 -63.092933 
L 180.985862 -64.001887 
L 180.706648 -64.910841 
L 180.485578 -65.819795 
L 180.32188 -66.728749 
L 180.214018 -67.637703 
L 180.159699 -68.546657 
L 180.15593 -69.455611 
L 180.199115 -70.364565 
L 180.28518 -71.273519 
L 180.409722 -72.182473 
L 180.56817 -73.091427 
L 180.755942 -74.000381 
L 180.968602 -74.909335 
L 181.202001 -75.818289 
L 181.452417 -76.727243 
L 181.71667 -77.636197 
L 181.992231 -78.545151 
L 182.277309 -79.454105 
L 182.570917 -80.363059 
L 182.872906 -81.272013 
L 183.183966 -82.180967 
L 183.505582 -83.089921 
L 183.839938 -83.998875 
L 184.189782 -84.907829 
L 184.558242 -85.816783 
L 184.948613 -86.725737 
L 185.364125 -87.634691 
L 185.807718 -88.543645 
L 186.281834 -89.452599 
L 186.78825 -90.361553 
L 187.327963 -91.270507 
L 187.901133 -92.179461 
L 188.507089 -93.088415 
L 189.144375 -93.997369 
L 189.810842 -94.906323 
L 190.503759 -95.815277 
L 191.219923 -96.724231 
L 191.955763 -97.633185 
L 192.707416 -98.542139 
L 193.470789 -99.451093 
L 194.241592 -100.360047 
L 195.015362 -101.269001 
L 195.787489 -102.177955 
L 196.553248 -103.086909 
L 197.307867 -103.995863 
L 198.046612 -104.904817 
L 198.764915 -105.813771 
L 199.458519 -106.722725 
L 200.123645 -107.631679 
L 200.757145 -108.540633 
L 201.356646 -109.449587 
L 201.920649 -110.358541 
L 202.448578 -111.267495 
L 202.940772 -112.176449 
L 203.398411 -113.085403 
L 203.82339 -113.994357 
L 204.218148 -114.903311 
L 204.585476 -115.812265 
L 204.928313 -116.721219 
L 205.249554 -117.630173 
L 205.5519 -118.539127 
L 205.837733 -119.44808 
L 206.109052 -120.357034 
L 206.367451 -121.265988 
L 206.614144 -122.174942 
L 206.850017 -123.083896 
L 207.075703 -123.99285 
L 207.29166 -124.901804 
L 207.498244 -125.810758 
L 207.695765 -126.719712 
L 207.884524 -127.628666 
L 208.064824 -128.53762 
L 208.236965 -129.446574 
L 211.965379 -129.446574 
L 211.965379 -129.446574 
L 212.13752 -128.53762 
L 212.31782 -127.628666 
L 212.506579 -126.719712 
L 212.7041 -125.810758 
L 212.910683 -124.901804 
L 213.12664 -123.99285 
L 213.352327 -123.083896 
L 213.5882 -122.174942 
L 213.834893 -121.265988 
L 214.093292 -120.357034 
L 214.364611 -119.44808 
L 214.650443 -118.539127 
L 214.952789 -117.630173 
L 215.274031 -116.721219 
L 215.616868 -115.812265 
L 215.984196 -114.903311 
L 216.378954 -113.994357 
L 216.803933 -113.085403 
L 217.261572 -112.176449 
L 217.753766 -111.267495 
L 218.281695 -110.358541 
L 218.845698 -109.449587 
L 219.445198 -108.540633 
L 220.078698 -107.631679 
L 220.743824 -106.722725 
L 221.437429 -105.813771 
L 222.155732 -104.904817 
L 222.894477 -103.995863 
L 223.649096 -103.086909 
L 224.414855 -102.177955 
L 225.186981 -101.269001 
L 225.960752 -100.360047 
L 226.731555 -99.451093 
L 227.494928 -98.542139 
L 228.246581 -97.633185 
L 228.982421 -96.724231 
L 229.698585 -95.815277 
L 230.391502 -94.906323 
L 231.057969 -93.997369 
L 231.695255 -93.088415 
L 232.30121 -92.179461 
L 232.874381 -91.270507 
L 233.414094 -90.361553 
L 233.92051 -89.452599 
L 234.394626 -88.543645 
L 234.838219 -87.634691 
L 235.253731 -86.725737 
L 235.644102 -85.816783 
L 236.012562 -84.907829 
L 236.362406 -83.998875 
L 236.696762 -83.089921 
L 237.018377 -82.180967 
L 237.329438 -81.272013 
L 237.631427 -80.363059 
L 237.925034 -79.454105 
L 238.210112 -78.545151 
L 238.485673 -77.636197 
L 238.749926 -76.727243 
L 239.000342 -75.818289 
L 239.233742 -74.909335 
L 239.446401 -74.000381 
L 239.634173 -73.091427 
L 239.792621 -72.182473 
L 239.917164 -71.273519 
L 240.003228 -70.364565 
L 240.046413 -69.455611 
L 240.042645 -68.546657 
L 239.988326 -67.637703 
L 239.880463 -66.728749 
L 239.716765 -65.819795 
L 239.495696 -64.910841 
L 239.216482 -64.001887 
L 238.879072 -63.092933 
L 238.484051 -62.183979 
L 238.032516 -61.275025 
L 237.525934 -60.366071 
L 236.965997 -59.457117 
L 236.35449 -58.548163 
L 235.6932 -57.639209 
L 234.983865 -56.730256 
L 234.228183 -55.821302 
L 233.427876 -54.912348 
L 232.58481 -54.003394 
L 231.701137 -53.09444 
L 230.779467 -52.185486 
L 229.823029 -51.276532 
L 228.835803 -50.367578 
L 227.822606 -49.458624 
L 226.789117 -48.54967 
L 225.741829 -47.640716 
L 224.687933 -46.731762 
L 223.635137 -45.822808 
L 222.591442 -44.913854 
L 221.564879 -44.0049 
L 220.563247 -43.095946 
L 219.593859 -42.186992 
L 218.663316 -41.278038 
L 217.777328 -40.369084 
L 216.940592 -39.46013 
z
" style="stroke: #445c6d; stroke-opacity: 0.75"/>
    </defs>
    <g clip-path="url(#p22e6457d90)">
     <use xlink:href="#mcabdb26471" x="0" y="273.6" style="fill: #84a9c0; fill-opacity: 0.75; stroke: #445c6d; stroke-opacity: 0.75"/>
    </g>
   </g>
   <g id="FillBetweenPolyCollection_3">
    <defs>
     <path id="mdad262aca3" d="M 343.734647 -46.720909 
L 316.029628 -46.720909 
L 313.98969 -48.626894 
L 311.923369 -50.532878 
L 309.881315 -52.438863 
L 307.915692 -54.344847 
L 306.077749 -56.250832 
L 304.415503 -58.156816 
L 302.971621 -60.0628 
L 301.781557 -61.968785 
L 300.871964 -63.874769 
L 300.259441 -65.780754 
L 299.949649 -67.686738 
L 299.936896 -69.592723 
L 300.204269 -71.498707 
L 300.724405 -73.404692 
L 301.460927 -75.310676 
L 302.370523 -77.21666 
L 303.405547 -79.122645 
L 304.516983 -81.028629 
L 305.65752 -82.934614 
L 306.784503 -84.840598 
L 307.862482 -86.746583 
L 308.865155 -88.652567 
L 309.776522 -90.558552 
L 310.591152 -92.464536 
L 311.313529 -94.370521 
L 311.956548 -96.276505 
L 312.539311 -98.182489 
L 313.084437 -100.088474 
L 313.615213 -101.994458 
L 314.152879 -103.900443 
L 314.714387 -105.806427 
L 315.310866 -107.712412 
L 315.946973 -109.618396 
L 316.621132 -111.524381 
L 317.326564 -113.430365 
L 318.052881 -115.33635 
L 318.787957 -117.242334 
L 319.519739 -119.148318 
L 320.237739 -121.054303 
L 320.934001 -122.960287 
L 321.603455 -124.866272 
L 322.243701 -126.772256 
L 322.85435 -128.678241 
L 323.436134 -130.584225 
L 323.989988 -132.49021 
L 324.516317 -134.396194 
L 325.014578 -136.302179 
L 325.483223 -138.208163 
L 325.919975 -140.114147 
L 326.322349 -142.020132 
L 326.688256 -143.926116 
L 327.016582 -145.832101 
L 327.307587 -147.738085 
L 327.563082 -149.64407 
L 327.786347 -151.550054 
L 327.981821 -153.456039 
L 328.154634 -155.362023 
L 328.310066 -157.268007 
L 328.453019 -159.173992 
L 328.587579 -161.079976 
L 328.716723 -162.985961 
L 328.84219 -164.891945 
L 328.96452 -166.79793 
L 329.083242 -168.703914 
L 329.197156 -170.609899 
L 329.304659 -172.515883 
L 329.404083 -174.421868 
L 329.493967 -176.327852 
L 329.573271 -178.233836 
L 329.64148 -180.139821 
L 329.698629 -182.045805 
L 329.745247 -183.95179 
L 329.782248 -185.857774 
L 329.810793 -187.763759 
L 329.832151 -189.669743 
L 329.847566 -191.575728 
L 329.858155 -193.481712 
L 329.864831 -195.387697 
L 329.868253 -197.293681 
L 329.868793 -199.199665 
L 329.866534 -201.10565 
L 329.861268 -203.011634 
L 329.852526 -204.917619 
L 329.839611 -206.823603 
L 329.82167 -208.729588 
L 329.797789 -210.635572 
L 329.767115 -212.541557 
L 329.729016 -214.447541 
L 329.683252 -216.353526 
L 329.630137 -218.25951 
L 329.570682 -220.165494 
L 329.506669 -222.071479 
L 329.440638 -223.977463 
L 329.375773 -225.883448 
L 329.315674 -227.789432 
L 329.26404 -229.695417 
L 329.224301 -231.601401 
L 329.199242 -233.507386 
L 329.190679 -235.41337 
L 330.573597 -235.41337 
L 330.573597 -235.41337 
L 330.565033 -233.507386 
L 330.539974 -231.601401 
L 330.500235 -229.695417 
L 330.448602 -227.789432 
L 330.388502 -225.883448 
L 330.323637 -223.977463 
L 330.257607 -222.071479 
L 330.193594 -220.165494 
L 330.134139 -218.25951 
L 330.081024 -216.353526 
L 330.035259 -214.447541 
L 329.997161 -212.541557 
L 329.966487 -210.635572 
L 329.942605 -208.729588 
L 329.924665 -206.823603 
L 329.91175 -204.917619 
L 329.903007 -203.011634 
L 329.897742 -201.10565 
L 329.895483 -199.199665 
L 329.896023 -197.293681 
L 329.899444 -195.387697 
L 329.906121 -193.481712 
L 329.91671 -191.575728 
L 329.932125 -189.669743 
L 329.953482 -187.763759 
L 329.982028 -185.857774 
L 330.019029 -183.95179 
L 330.065647 -182.045805 
L 330.122796 -180.139821 
L 330.191005 -178.233836 
L 330.270308 -176.327852 
L 330.360193 -174.421868 
L 330.459616 -172.515883 
L 330.56712 -170.609899 
L 330.681033 -168.703914 
L 330.799756 -166.79793 
L 330.922086 -164.891945 
L 331.047552 -162.985961 
L 331.176696 -161.079976 
L 331.311257 -159.173992 
L 331.45421 -157.268007 
L 331.609642 -155.362023 
L 331.782454 -153.456039 
L 331.977928 -151.550054 
L 332.201194 -149.64407 
L 332.456689 -147.738085 
L 332.747694 -145.832101 
L 333.076019 -143.926116 
L 333.441927 -142.020132 
L 333.8443 -140.114147 
L 334.281053 -138.208163 
L 334.749697 -136.302179 
L 335.247958 -134.396194 
L 335.774288 -132.49021 
L 336.328141 -130.584225 
L 336.909925 -128.678241 
L 337.520575 -126.772256 
L 338.16082 -124.866272 
L 338.830274 -122.960287 
L 339.526536 -121.054303 
L 340.244537 -119.148318 
L 340.976319 -117.242334 
L 341.711395 -115.33635 
L 342.437712 -113.430365 
L 343.143143 -111.524381 
L 343.817302 -109.618396 
L 344.45341 -107.712412 
L 345.049889 -105.806427 
L 345.611396 -103.900443 
L 346.149063 -101.994458 
L 346.679839 -100.088474 
L 347.224965 -98.182489 
L 347.807727 -96.276505 
L 348.450747 -94.370521 
L 349.173124 -92.464536 
L 349.987753 -90.558552 
L 350.899121 -88.652567 
L 351.901794 -86.746583 
L 352.979773 -84.840598 
L 354.106756 -82.934614 
L 355.247293 -81.028629 
L 356.358728 -79.122645 
L 357.393752 -77.21666 
L 358.303348 -75.310676 
L 359.039871 -73.404692 
L 359.560006 -71.498707 
L 359.827379 -69.592723 
L 359.814626 -67.686738 
L 359.504835 -65.780754 
L 358.892312 -63.874769 
L 357.982719 -61.968785 
L 356.792654 -60.0628 
L 355.348773 -58.156816 
L 353.686527 -56.250832 
L 351.848584 -54.344847 
L 349.882961 -52.438863 
L 347.840907 -50.532878 
L 345.774586 -48.626894 
L 343.734647 -46.720909 
z
" style="stroke: #445c6d; stroke-opacity: 0.75"/>
    </defs>
    <g clip-path="url(#p22e6457d90)">
     <use xlink:href="#mdad262aca3" x="0" y="273.6" style="fill: #84a9c0; fill-opacity: 0.75; stroke: #445c6d; stroke-opacity: 0.75"/>
    </g>
   </g>
   <g id="LineCollection_1">
    <path d="M 75.347585 99.716854 
L 105.292827 99.716854 
" clip-path="url(#p22e6457d90)" style="fill: none; stroke: #1f77b4; stroke-width: 1.5"/>
    <path d="M 195.128551 144.153426 
L 225.073793 144.153426 
" clip-path="url(#p22e6457d90)" style="fill: none; stroke: #1f77b4; stroke-width: 1.5"/>
    <path d="M 314.909517 38.18663 
L 344.854759 38.18663 
" clip-path="url(#p22e6457d90)" style="fill: none; stroke: #1f77b4; stroke-width: 1.5"/>
   </g>
   <g id="LineCollection_2">
    <path d="M 75.347585 234.770792 
L 105.292827 234.770792 
" clip-path="url(#p22e6457d90)" style="fill: none; stroke: #1f77b4; stroke-width: 1.5"/>
    <path d="M 195.128551 234.13987 
L 225.073793 234.13987 
" clip-path="url(#p22e6457d90)" style="fill: none; stroke: #1f77b4; stroke-width: 1.5"/>
    <path d="M 314.909517 226.879091 
L 344.854759 226.879091 
" clip-path="url(#p22e6457d90)" style="fill: none; stroke: #1f77b4; stroke-width: 1.5"/>
   </g>
   <g id="LineCollection_3">
    <path d="M 90.320206 234.770792 
L 90.320206 99.716854 
" clip-path="url(#p22e6457d90)" style="fill: none; stroke: #1f77b4; stroke-width: 1.5"/>
    <path d="M 210.101172 234.13987 
L 210.101172 144.153426 
" clip-path="url(#p22e6457d90)" style="fill: none; stroke: #1f77b4; stroke-width: 1.5"/>
    <path d="M 329.882138 226.879091 
L 329.882138 38.18663 
" clip-path="url(#p22e6457d90)" style="fill: none; stroke: #1f77b4; stroke-width: 1.5"/>
   </g>
   <g id="LineCollection_4">
    <path d="M 75.347585 205.171237 
L 105.292827 205.171237 
" clip-path="url(#p22e6457d90)" style="fill: none; stroke: #9b2226; stroke-width: 1.5"/>
    <path d="M 195.128551 198.577406 
L 225.073793 198.577406 
" clip-path="url(#p22e6457d90)" style="fill: none; stroke: #9b2226; stroke-width: 1.5"/>
    <path d="M 314.909517 197.327215 
L 344.854759 197.327215 
" clip-path="url(#p22e6457d90)" style="fill: none; stroke: #9b2226; stroke-width: 1.5"/>
   </g>
   <g id="patch_3">
    <path d="M 45.402344 244.6 
L 45.402344 28.357422 
" style="fill: none; stroke: #8090a0; stroke-width: 0.8; stroke-linejoin: miter; stroke-linecap: square"/>
   </g>
   <g id="patch_4">
    <path d="M 45.402344 244.6 
L 374.8 244.6 
" style="fill: none; stroke: #8090a0; stroke-width: 0.8; stroke-linejoin: miter; stroke-linecap: square"/>
   </g>
   <g id="text_14">
    <!-- Violin plot -->
    <g transform="translate(45.402344 22.357422) scale(0.11 -0.11)">
     <defs>
      <path id="DejaVuSans-Bold-39" d="M 31 4666 
L 1241 4666 
L 2478 1222 
L 3713 4666 
L 4922 4666 
L 3194 0 
L 1759 0 
L 31 4666 
z
" transform="scale(0.015625)"/>
      <path id="DejaVuSans-Bold-4c" d="M 538 3500 
L 1656 3500 
L 1656 0 
L 538 0 
L 538 3500 
z
M 538 4863 
L 1656 4863 
L 1656 3950 
L 538 3950 
L 538 4863 
z
" transform="scale(0.015625)"/>
      <path id="DejaVuSans-Bold-52" d="M 2203 2784 
Q 1831 2784 1636 2517 
Q 1441 2250 1441 1747 
Q 1441 1244 1636 976 
Q 1831 709 2203 709 
Q 2569 709 2762 976 
Q 2956 1244 2956 1747 
Q 2956 2250 2762 2517 
Q 2569 2784 2203 2784 
z
M 2203 3584 
Q 3106 3584 3614 3096 
Q 4122 2609 4122 1747 
Q 4122 884 3614 396 
Q 3106 -91 2203 -91 
Q 1297 -91 786 396 
Q 275 884 275 1747 
Q 275 2609 786 3096 
Q 1297 3584 2203 3584 
z
" transform="scale(0.015625)"/>
      <path id="DejaVuSans-Bold-4f" d="M 538 4863 
L 1656 4863 
L 1656 0 
L 538 0 
L 538 4863 
z
" transform="scale(0.015625)"/>
      <path id="DejaVuSans-Bold-51" d="M 4056 2131 
L 4056 0 
L 2931 0 
L 2931 347 
L 2931 1631 
Q 2931 2084 2911 2256 
Q 2891 2428 2841 2509 
Q 2775 2619 2662 2680 
Q 2550 2741 2406 2741 
Q 2056 2741 1856 2470 
Q 1656 2200 1656 1722 
L 1656 0 
L 538 0 
L 538 3500 
L 1656 3500 
L 1656 2988 
Q 1909 3294 2193 3439 
Q 2478 3584 2822 3584 
Q 3428 3584 3742 3212 
Q 4056 2841 4056 2131 
z
" transform="scale(0.015625)"/>
      <path id="DejaVuSans-Bold-3" transform="scale(0.015625)"/>
      <path id="DejaVuSans-Bold-53" d="M 1656 506 
L 1656 -1331 
L 538 -1331 
L 538 3500 
L 1656 3500 
L 1656 2988 
Q 1888 3294 2169 3439 
Q 2450 3584 2816 3584 
Q 3463 3584 3878 3070 
Q 4294 2556 4294 1747 
Q 4294 938 3878 423 
Q 3463 -91 2816 -91 
Q 2450 -91 2169 54 
Q 1888 200 1656 506 
z
M 2400 2772 
Q 2041 2772 1848 2508 
Q 1656 2244 1656 1747 
Q 1656 1250 1848 986 
Q 2041 722 2400 722 
Q 2759 722 2948 984 
Q 3138 1247 3138 1747 
Q 3138 2247 2948 2509 
Q 2759 2772 2400 2772 
z
" transform="scale(0.015625)"/>
      <path id="DejaVuSans-Bold-57" d="M 1759 4494 
L 1759 3500 
L 2913 3500 
L 2913 2700 
L 1759 2700 
L 1759 1216 
Q 1759 972 1856 886 
Q 1953 800 2241 800 
L 2816 800 
L 2816 0 
L 1856 0 
Q 1194 0 917 276 
Q 641 553 641 1216 
L 641 2700 
L 84 2700 
L 84 3500 
L 641 3500 
L 641 4494 
L 1759 4494 
z
" transform="scale(0.015625)"/>
     </defs>
     <use xlink:href="#DejaVuSans-Bold-39"/>
     <use xlink:href="#DejaVuSans-Bold-4c" transform="translate(75.640625 0)"/>
     <use xlink:href="#DejaVuSans-Bold-52" transform="translate(109.921875 0)"/>
     <use xlink:href="#DejaVuSans-Bold-4f" transform="translate(178.625 0)"/>
     <use xlink:href="#DejaVuSans-Bold-4c" transform="translate(212.90625 0)"/>
     <use xlink:href="#DejaVuSans-Bold-51" transform="translate(247.1875 0)"/>
     <use xlink:href="#DejaVuSans-Bold-3" transform="translate(318.375 0)"/>
     <use xlink:href="#DejaVuSans-Bold-53" transform="translate(353.1875 0)"/>
     <use xlink:href="#DejaVuSans-Bold-4f" transform="translate(424.765625 0)"/>
     <use xlink:href="#DejaVuSans-Bold-52" transform="translate(459.046875 0)"/>
     <use xlink:href="#DejaVuSans-Bold-57" transform="translate(527.75 0)"/>
    </g>
   </g>
  </g>
 </g>
 <defs>
  <clipPath id="p22e6457d90">
   <rect x="45.402344" y="28.357422" width="329.397656" height="216.242578"/>
  </clipPath>
 </defs>
</svg>
